<svg width="477" height="300" viewBox="0 0 477 300" fill="none" xmlns="http://www.w3.org/2000/svg">
<path d="M425.876 172.949C344.529 136.581 245.945 190.779 153.768 180.942C106.754 175.926 55.0939 163.293 12.9331 183.556C-25.3312 201.958 13.3963 335.97 357.621 290.164C480.633 273.801 515.945 213.207 425.876 172.949Z" fill="#9CC0FA"/>
<path d="M68.0444 176.892L69.6199 168.256L76.0084 167.882L76.811 119.368L81.3987 119.669L83.2986 93.6418L96.8039 93.4537L97.1904 115.47L103.928 114.595L104.508 118.063L107.785 117.875L108.934 102.506L123.951 101.048L125.341 111.359L128.387 110.933L131.635 73.5041L150.917 74.6152L151.836 98.8337L156.696 98.796L157.053 116.767L158.814 116.982L161.45 74.1913L164.405 73.3862L165.705 60.5772L170.372 59.0974L173.907 39.85L173.689 58.6359L176.523 61.0211L177.004 71.6079L178.646 72.4808L178.953 103.584L181.641 127.421L184.395 109.927L193.771 109.047L195.842 71.1916L213.227 70.7853L216.256 128.49L219.578 128.076L219.903 104.083L225.157 102.741L225.714 66.9127L229.011 66.2531L227.574 37.1111L247.225 32.9702L245.967 64.1036L249.034 64.7959L249.447 96.303L251.543 96.5187L253.351 109.714L255.972 109.985L256.906 79.8772L274.449 81.0962L277.206 117.908L279.272 118.124L280.156 96.9526L293.525 96.6516L294.853 113.807L298.172 114.264L300.801 135.207L305.074 135.171L306.01 141.043L307.967 141.467L308.557 97.1081L325 96.466L325.01 81.1112L342.54 81.4122L345.607 108.339L349.08 108.854L348.312 90.4013L364.084 89.5686L368.634 108.793L374.877 108.849L374.716 101.858L390.23 101.56L392.66 101.678L395.127 171.926L395.479 171.078L399.514 171.507L399.891 121.088L417.231 120.501L417.806 169.56L431.103 170.348L430.967 173.661" fill="#D8F4F8"/>
<path d="M330.328 111.151V118.751H319.515V201.644H342.079V121.906V118.751V111.151H330.328Z" fill="#9DC8D7"/>
<path d="M189.768 162.204V149.154H175.98V162.204H170.808V201.787H194.782V162.204H189.768Z" fill="#9DC8D7"/>
<path d="M192.119 183.43H173.474V201.93H192.119V183.43Z" fill="#78ABC3"/>
<path d="M230.507 106.99V111.437H202.929V106.99H194.782V201.93H238.498V106.99H230.507Z" fill="#A5C8D5"/>
<path d="M190.395 165.216H175.354V170.952H190.395V165.216Z" fill="#C5E3EB"/>
<path d="M337.222 125.347H322.181V131.083H337.222V125.347Z" fill="#78ABC3"/>
<path d="M337.222 137.539H322.181V143.275H337.222V137.539Z" fill="#78ABC3"/>
<path d="M337.222 149.729H322.181V155.465H337.222V149.729Z" fill="#78ABC3"/>
<path d="M337.222 161.918H322.181V167.655H337.222V161.918Z" fill="#5E6187"/>
<path d="M337.222 174.107H322.181V179.844H337.222V174.107Z" fill="#5E6187"/>
<path d="M337.222 186.299H322.181V192.035H337.222V186.299Z" fill="#5E6187"/>
<path d="M242.467 151.306H238.55V201.93H257.196V151.306H253.435" fill="#7EAAC0"/>
<path d="M208.448 120.622H202.122V131.025H208.448V120.622Z" fill="#C7E3EE"/>
<path d="M220.073 120.622H213.747V131.025H220.073V120.622Z" fill="#C7E3EE"/>
<path d="M231.699 120.622H225.372V131.025H231.699V120.622Z" fill="#C7E3EE"/>
<path d="M208.448 136.546H202.122V146.95H208.448V136.546Z" fill="#C7E3EE"/>
<path d="M220.073 136.546H213.747V146.95H220.073V136.546Z" fill="#C7E3EE"/>
<path d="M231.699 136.546H225.372V146.95H231.699V136.546Z" fill="#C7E3EE"/>
<path d="M208.448 152.468H202.122V162.871H208.448V152.468Z" fill="#C7E3EE"/>
<path d="M220.073 152.468H213.747V162.871H220.073V152.468Z" fill="#C7E3EE"/>
<path d="M231.699 152.468H225.372V162.871H231.699V152.468Z" fill="#C7E3EE"/>
<path d="M208.448 168.392H202.122V178.795H208.448V168.392Z" fill="#C7E3EE"/>
<path d="M220.073 168.392H213.747V178.795H220.073V168.392Z" fill="#C7E3EE"/>
<path d="M231.699 168.392H225.372V178.795H231.699V168.392Z" fill="#C7E3EE"/>
<path d="M223.821 189.239H210.365V201.932H223.821V189.239Z" fill="#7EAAC0"/>
<path d="M246.517 154.79H242.313V158.638H246.517V154.79Z" fill="#B5DCE8"/>
<path d="M253.829 154.79H249.625V158.638H253.829V154.79Z" fill="#B5DCE8"/>
<path d="M246.517 161.482H242.313V165.329H246.517V161.482Z" fill="#B5DCE8"/>
<path d="M253.829 161.482H249.625V165.329H253.829V161.482Z" fill="#B5DCE8"/>
<path d="M246.517 168.176H242.313V172.024H246.517V168.176Z" fill="#B5DCE8"/>
<path d="M253.829 168.176H249.625V172.024H253.829V168.176Z" fill="#B5DCE8"/>
<path d="M246.517 174.87H242.313V178.718H246.517V174.87Z" fill="#B5DCE8"/>
<path d="M253.829 174.87H249.625V178.718H253.829V174.87Z" fill="#B5DCE8"/>
<path d="M246.517 181.564H242.313V185.411H246.517V181.564Z" fill="#B5DCE8"/>
<path d="M253.829 181.564H249.625V185.411H253.829V181.564Z" fill="#B5DCE8"/>
<path d="M246.517 188.256H242.313V192.104H246.517V188.256Z" fill="#B5DCE8"/>
<path d="M253.829 188.256H249.625V192.104H253.829V188.256Z" fill="#B5DCE8"/>
<path d="M254.959 146.606H242.202V151.379H254.959V146.606Z" fill="#78ABC3"/>
<path d="M252.692 141.833H244.471V146.606H252.692V141.833Z" fill="#78ABC3"/>
<path d="M108.518 116.884V124.03V126.997V201.965H129.73V124.03H119.566V116.884H108.518Z" fill="#7EAAC0"/>
<path d="M129.73 112.975V202.234H170.831V112.975" fill="#86B7CD"/>
<path d="M127.225 130.233H113.083V135.625H127.225V130.233Z" fill="#B5DCE8"/>
<path d="M127.225 141.695H113.083V147.087H127.225V141.695Z" fill="#B5DCE8"/>
<path d="M127.225 153.155H113.083V158.547H127.225V153.155Z" fill="#B5DCE8"/>
<path d="M127.225 164.617H113.083V170.009H127.225V164.617Z" fill="#B5DCE8"/>
<path d="M127.225 176.077H113.083V181.469H127.225V176.077Z" fill="#B5DCE8"/>
<path d="M127.225 187.539H113.083V192.932H127.225V187.539Z" fill="#B5DCE8"/>
<path d="M100.121 154.64V202.234H117.651V154.64H113.968V139.942H103.658V154.64H100.121Z" fill="#A5C8D5"/>
<path d="M158.844 187.606H141.207V201.932H158.844V187.606Z" fill="#C5E3EB"/>
<path d="M107.748 159.254H103.816V165.72H107.748V159.254Z" fill="#78ABC3"/>
<path d="M114.971 159.254H111.04V165.72H114.971V159.254Z" fill="#78ABC3"/>
<path d="M107.748 169.149H103.816V175.615H107.748V169.149Z" fill="#78ABC3"/>
<path d="M114.971 169.149H111.04V175.615H114.971V169.149Z" fill="#78ABC3"/>
<path d="M107.748 179.043H103.816V185.509H107.748V179.043Z" fill="#78ABC3"/>
<path d="M114.971 179.043H111.04V185.509H114.971V179.043Z" fill="#78ABC3"/>
<path d="M107.748 188.938H103.816V195.404H107.748V188.938Z" fill="#78ABC3"/>
<path d="M114.971 188.938H111.04V195.404H114.971V188.938Z" fill="#78ABC3"/>
<path d="M408.565 146.348H402.804V202.234H431.38V146.348H425.375" fill="#9DC8D7"/>
<path d="M167.868 125.52H133.354V130.702H167.868V125.52Z" fill="#C5E3EB"/>
<path d="M167.868 135.021H133.354V140.203H167.868V135.021Z" fill="#C5E3EB"/>
<path d="M167.868 144.522H133.354V149.704H167.868V144.522Z" fill="#C5E3EB"/>
<path d="M167.868 154.022H133.354V159.204H167.868V154.022Z" fill="#C5E3EB"/>
<path d="M167.868 163.523H133.354V168.705H167.868V163.523Z" fill="#C5E3EB"/>
<path d="M167.868 173.024H133.354V178.206H167.868V173.024Z" fill="#C5E3EB"/>
<path d="M259.893 139.052L257.144 137.035L272.549 124.444H311.616V135.525L286.304 151.138L259.893 139.052Z" fill="#D8ECF3"/>
<path d="M313.553 126.366L311.616 124.444L298.96 137.035L294.008 140.057L286.329 191.406L297.91 202.003H324.821V137.539L318.74 131.507" fill="#78ABC3"/>
<path d="M298.962 137.035H257.144V202.003H298.962V137.035Z" fill="#9DC8D7"/>
<path d="M281.078 186.139H273.374V202.003H281.078V186.139Z" fill="#7EAAC0"/>
<path d="M293.733 140.311H261.82V146.355H293.733V140.311Z" fill="#C7E3EE"/>
<path d="M293.733 152.397H261.82V158.442H293.733V152.397Z" fill="#C7E3EE"/>
<path d="M293.733 164.484H261.82V170.528H293.733V164.484Z" fill="#C7E3EE"/>
<path d="M293.733 176.571H261.82V182.615H293.733V176.571Z" fill="#C7E3EE"/>
<path d="M310.276 139.624H305.099V144.361H310.276V139.624Z" fill="#B5DCE8"/>
<path d="M319.283 139.624H314.105V144.361H319.283V139.624Z" fill="#B5DCE8"/>
<path d="M310.276 147.865H305.099V152.603H310.276V147.865Z" fill="#B5DCE8"/>
<path d="M319.283 147.865H314.105V152.603H319.283V147.865Z" fill="#B5DCE8"/>
<path d="M310.276 156.106H305.099V160.844H310.276V156.106Z" fill="#B5DCE8"/>
<path d="M319.283 156.106H314.105V160.844H319.283V156.106Z" fill="#B5DCE8"/>
<path d="M310.276 164.349H305.099V169.086H310.276V164.349Z" fill="#B5DCE8"/>
<path d="M319.283 164.349H314.105V169.086H319.283V164.349Z" fill="#B5DCE8"/>
<path d="M310.276 172.59H305.099V177.328H310.276V172.59Z" fill="#B5DCE8"/>
<path d="M319.283 172.59H314.105V177.328H319.283V172.59Z" fill="#B5DCE8"/>
<path d="M310.276 180.832H305.099V185.57H310.276V180.832Z" fill="#B5DCE8"/>
<path d="M319.283 180.832H314.105V185.57H319.283V180.832Z" fill="#B5DCE8"/>
<path d="M163.24 107.883H135.365V102.899L157.682 95.0464H163.24V107.883Z" fill="#C3E1EE"/>
<path d="M169.171 111.119H131.627V108.119L163.612 99.9775H169.171V111.119Z" fill="#C3E1EE"/>
<path d="M170.823 109.162H129.663V115.633H170.823V109.162Z" fill="#7EAAC0"/>
<path d="M187.995 140.792H177.804V145.658H187.995V140.792Z" fill="#9DC8D7"/>
<path d="M188.302 144.379H177.497V149.245H188.302V144.379Z" fill="#78ABC3"/>
<path d="M412.713 150.232H407.853V156.463H412.713V150.232Z" fill="#C7E3EE"/>
<path d="M412.713 158.238H407.853V164.466H412.713V158.238Z" fill="#C7E3EE"/>
<path d="M412.713 166.242H407.853V172.472H412.713V166.242Z" fill="#C7E3EE"/>
<path d="M412.713 174.249H407.853V180.479H412.713V174.249Z" fill="#C7E3EE"/>
<path d="M412.713 182.254H407.853V188.482H412.713V182.254Z" fill="#C7E3EE"/>
<path d="M412.713 190.257H407.853V196.485H412.713V190.257Z" fill="#C7E3EE"/>
<path d="M427.612 150.232H415.63V164.466H427.612V150.232Z" fill="#78ABC3"/>
<path d="M427.644 166.5H415.663V180.734H427.644V166.5Z" fill="#78ABC3"/>
<path d="M427.679 182.763H415.697V196.999H427.679V182.763Z" fill="#78ABC3"/>
<path d="M411.093 141.999H410.389V146.393H411.093V141.999Z" fill="#78ABC3"/>
<path d="M424.635 141.999H423.932V146.393H424.635V141.999Z" fill="#78ABC3"/>
<path d="M427.744 134.316H407.278V141.998H427.744V134.316Z" fill="#78ABC3"/>
<path d="M380.366 160.26H324.916V202.537H380.366V160.26Z" fill="#9DC8D7"/>
<path d="M402.802 160.26H380.364V202.537H402.802V160.26Z" fill="#78ABC3"/>
<path d="M349.912 153.318H331.923V160.26H349.912V153.318Z" fill="#9DC8D7"/>
<path d="M356.224 153.318H349.915V160.26H356.224V153.318Z" fill="#78ABC3"/>
<path d="M384.102 153.318H366.113V160.26H384.102V153.318Z" fill="#9DC8D7"/>
<path d="M390.413 153.318H384.104V160.26H390.413V153.318Z" fill="#78ABC3"/>
<path d="M374.587 168.304H332.411V172.084H374.587V168.304Z" fill="#C7E3EE"/>
<path d="M374.587 175.236H332.411V179.016H374.587V175.236Z" fill="#C7E3EE"/>
<path d="M374.587 182.167H332.411V185.946H374.587V182.167Z" fill="#C7E3EE"/>
<path d="M390.416 166.312H384.884V171.798H390.416V166.312Z" fill="#B5DCE8"/>
<path d="M390.416 175.854H384.884V181.339H390.416V175.854Z" fill="#B5DCE8"/>
<path d="M390.416 185.396H384.884V190.882H390.416V185.396Z" fill="#B5DCE8"/>
<path d="M362.501 190.977H345.265V202.54H362.501V190.977Z" fill="#7EAAC0"/>
<path d="M100.084 134.394H88.7656V202.241H100.084V134.394Z" fill="#78ABC3"/>
<path d="M100.084 111.487L88.7656 134.394H100.084V111.487Z" fill="#78ABC3"/>
<path d="M100.084 111.487L65.1733 134.394H88.7655L100.084 111.487Z" fill="#D8ECF3"/>
<path d="M88.7655 134.394H65.1733V202.241H88.7655V134.394Z" fill="#9DC8D7"/>
<path d="M95.4141 138.997H70.7295V144.183H95.4141V138.997Z" fill="#C7E3EE"/>
<path d="M95.4141 148.507H70.7295V153.694H95.4141V148.507Z" fill="#C7E3EE"/>
<path d="M95.4141 158.018H70.7295V163.205H95.4141V158.018Z" fill="#C7E3EE"/>
<path d="M95.4141 167.529H70.7295V172.716H95.4141V167.529Z" fill="#C7E3EE"/>
<path d="M95.4141 177.04H70.7295V182.226H95.4141V177.04Z" fill="#C7E3EE"/>
<path d="M95.4141 186.55H70.7295V191.737H95.4141V186.55Z" fill="#C7E3EE"/>
<path d="M475.419 201.388C365.597 196.733 121.303 186.628 59.0573 186.171L54.8809 188.712C54.8809 188.712 302.842 198.085 469.426 206.457L475.419 201.388Z" fill="white"/>
<path d="M332.902 234.779C332.902 234.779 419.277 214.892 447.91 204.589L441.994 204.84L317.283 233.831" fill="white"/>
<path d="M185.616 220.764C185.616 220.764 272.564 209.016 301.507 202.237L295.586 202.169L170.033 219.347" fill="white"/>
<path d="M71.012 214.756C71.012 214.756 182.438 207.147 219.447 202.507L211.837 202.386L50.9473 213.535" fill="white"/>
<path d="M2.60842 208.09L0 211.444C94.728 218.404 294.363 233.32 413.243 244.002L420.815 238.735C420.815 238.735 135.048 216.53 2.60842 208.09Z" fill="white"/>
<path d="M94.2333 209.37C98.6832 209.305 102.206 203.327 102.101 196.018C101.997 188.709 98.3045 182.837 93.8546 182.902C89.4047 182.967 85.8821 188.945 85.9867 196.254C86.0913 203.563 89.7834 209.435 94.2333 209.37Z" fill="#131F2D"/>
<path d="M93.5813 196.638C93.6506 201.542 95.3722 205.489 97.4258 205.462C99.4793 205.434 101.087 201.431 101.018 196.53C100.948 191.629 99.2266 187.677 97.1731 187.707C95.1196 187.737 93.5119 191.735 93.5813 196.638Z" fill="#ECFCFB"/>
<path d="M81.3879 203.601C85.7789 203.537 89.2789 199.312 89.2053 194.166C89.1316 189.019 85.5123 184.899 81.1212 184.963C76.7301 185.027 73.2301 189.252 73.3038 194.399C73.3774 199.546 76.9968 203.666 81.3879 203.601Z" fill="#131F2D"/>
<path d="M80.1602 194.506C80.2147 198.373 81.9462 201.481 84.027 201.451C86.1078 201.421 87.7427 198.263 87.6981 194.395C87.6535 190.528 85.9096 187.42 83.8288 187.45C81.748 187.481 80.1131 190.641 80.1602 194.506Z" fill="#ECFCFB"/>
<path d="M117.007 195.176C117.089 200.93 120.379 204.652 126.059 204.569C131.739 204.486 134.91 199.686 134.828 193.932C134.746 188.179 131.36 183.611 125.663 183.694C119.965 183.777 116.926 189.425 117.007 195.176Z" fill="#131F2D"/>
<path d="M122.207 195.389C122.266 199.583 124.315 202.304 127.844 202.252C131.374 202.199 133.336 198.705 133.277 194.511C133.217 190.318 131.102 186.987 127.579 187.03C124.057 187.072 122.145 191.193 122.207 195.389Z" fill="#ECFCFB"/>
<path d="M40.5485 207.576C45.5128 207.504 49.4666 202.461 49.3797 196.311C49.2928 190.161 45.198 185.234 40.2337 185.306C35.2694 185.378 31.3156 190.422 31.4025 196.571C31.4894 202.721 35.5843 207.648 40.5485 207.576Z" fill="#131F2D"/>
<path d="M36.5873 196.653C36.6616 201.857 39.5153 206.036 42.9585 205.986C46.4017 205.936 49.134 201.677 49.0597 196.47C48.9854 191.263 46.1342 187.087 42.691 187.137C39.2478 187.187 36.5155 191.449 36.5873 196.653Z" fill="#ECFCFB"/>
<path d="M39.0817 196.114C39.1337 199.776 40.9965 202.718 43.2457 202.685C45.495 202.652 47.2736 199.658 47.2215 195.996C47.1695 192.334 45.3042 189.392 43.0575 189.425C40.8107 189.457 39.0297 192.452 39.0817 196.114Z" fill="#131F2D"/>
<path d="M89.4617 200.227C89.4617 200.227 53.0875 201.386 46.2605 200.5C39.4336 199.615 40.5284 192.52 40.5284 192.52L89.3279 195.028C89.3279 195.028 89.4964 198.91 89.4617 200.227Z" fill="#131F2D"/>
<path d="M29.7627 196.179C29.7627 196.179 31.4967 196.525 31.5983 194.812L48.47 195.193L49.3717 196.347L62.2775 196.598L63.2362 195.328L84.7451 195.775L84.9433 196.292C85.1345 196.786 85.4568 197.217 85.8746 197.538C86.2924 197.859 86.7896 198.057 87.3114 198.11C87.7078 198.15 88.1413 198.19 88.5698 198.223C89.3174 198.28 90.0594 198.055 90.6536 197.592C91.2478 197.129 91.6525 196.461 91.7901 195.715C92.4862 191.927 94.1558 184.729 97.1457 182.306C97.688 181.837 98.362 181.552 99.0729 181.491C99.0729 181.491 106.648 182.527 101.852 199.321L117.954 198.92C117.954 198.92 124.015 196.685 124.793 195.512C125.571 194.338 127.741 177.38 131.469 183.498C131.469 183.498 132.061 184.807 131.944 186.006L132.876 187.067C132.746 184.226 132.146 181.428 131.1 178.79C131.018 178.587 130.931 178.384 130.837 178.175C129.802 175.825 128.239 173.45 125.861 171.692C125.861 171.692 114.025 152.908 103.933 151.266C103.933 151.266 73.6946 145.896 50.7168 151.06C50.7168 151.06 42.2351 160.034 40.6968 163.678C40.3079 164.596 38.4104 165.401 37.0108 166.071C36.1909 166.465 35.5245 166.824 35.4477 167.109C35.4477 167.109 33.8425 172.341 33.9763 174.809C33.9848 174.95 33.9706 175.092 33.9342 175.228C33.8637 175.555 33.6897 175.849 33.4388 176.066C31.8336 177.478 28.0931 182.319 29.7627 196.179Z" fill="#A24C3E"/>
<path d="M47.8408 194.218L63.5657 194.524L62.2701 196.6L49.3717 196.342L47.8408 194.218Z" stroke="#111111" stroke-miterlimit="10"/>
<path d="M83.6601 166.824C83.6601 166.824 41.9154 169.082 38.8017 167.436C38.8017 167.436 37.9471 182.4 41.7742 182.861C48.7102 183.696 68.775 185.282 77.0065 181.858C80.6082 180.351 83.1399 167.504 83.6601 166.824Z" fill="#F47459"/>
<g style="mix-blend-mode:multiply">
<path d="M47.3799 171.866C47.3947 171.663 47.4071 171.457 47.4245 171.244H47.4592C47.4294 171.457 47.4146 171.665 47.3799 171.866Z" fill="#EEBB2D"/>
<path d="M70.2265 176.262C70.0337 176.827 69.7725 177.365 69.4487 177.865C69.7541 177.355 70.0144 176.819 70.2265 176.262Z" fill="#EEBB2D"/>
</g>
<path d="M98.1096 170.413C98.1096 170.413 103.631 183.165 103.921 184.77C104.211 186.375 104.471 195.627 104.471 195.627L124.783 195.51C125.561 194.338 127.731 177.378 131.459 183.496C131.459 183.496 132.051 184.805 131.935 186.004L132.876 187.067C132.747 184.227 132.146 181.429 131.1 178.79C131.079 178.563 130.987 178.347 130.837 178.176C130.837 178.176 129.121 174.007 122.368 172.081C121.587 171.861 120.796 171.681 119.998 171.542C119.998 171.542 114.196 169.362 108.179 167.293L108.125 167.278C102.519 165.354 96.7422 163.538 95.3203 163.689C95.3178 163.704 98.4266 168.176 98.1096 170.413Z" fill="#F47459"/>
<path d="M61.1409 151.851L71.0757 151.708L71.0539 150.165L61.1191 150.309L61.1409 151.851Z" fill="#EEBB2D"/>
<path d="M31.606 195.254L48.4777 195.635L49.3794 196.781L62.2753 197.032L63.2315 195.761L84.7404 196.21C84.7404 196.21 84.3317 192.791 77.4973 192.786C67.2048 192.786 36.3348 192.49 36.3348 192.49C36.3348 192.49 30.1742 192.259 31.606 195.254Z" fill="#131F2D"/>
<path d="M101.84 199.319C101.84 199.319 103.663 187.749 95.9668 183.556C95.9668 183.556 98.5579 178.883 101.709 182.229C101.719 182.234 107.265 184.308 101.84 199.319Z" fill="#131F2D"/>
<path d="M111.419 168.61C111.419 168.61 114.374 173.047 113.985 179.395C113.985 179.515 113.97 179.646 113.96 179.758C113.435 186.295 113.477 195.505 113.477 195.505" stroke="#A24C3E" stroke-width="0.5" stroke-miterlimit="10" stroke-linecap="round"/>
<path d="M40.6943 163.694C45.064 166.453 87.153 163.779 87.153 163.779C87.5718 163.588 88.0156 163.459 88.4708 163.395C89.8023 163.23 91.1485 163.225 92.4813 163.38L95.3176 163.704C95.3176 163.704 93.2715 150.185 85.0127 150.13C85.0127 150.13 62.7557 149.352 53.6745 150.478C53.6606 150.476 53.6463 150.476 53.6324 150.478C52.6418 150.571 51.6636 150.769 50.7143 151.07C50.6326 151.163 49.6046 152.249 48.2372 153.789C45.5916 156.744 41.6901 161.336 40.6943 163.694Z" fill="#ECFCFB"/>
<path d="M108.352 167.181C108.352 167.181 104.369 154.316 101.912 152.706C101.912 152.706 94.3492 152.011 93.3955 153.275C93.3955 153.275 98.6867 162.029 98.4563 164.359C98.4563 164.359 108.343 167.188 108.345 167.369" fill="#ECFCFB"/>
<path d="M119.291 169.523C119.291 169.523 112.769 167.293 111.761 167.935C111.761 167.935 107.748 155.876 104.592 152.904C104.592 152.904 109.17 153.405 116.162 160.626C117.783 162.304 119.061 168.856 119.291 169.523Z" fill="#ECFCFB"/>
<path d="M48.2275 153.799C48.4168 153.729 48.5965 153.634 48.7626 153.518C52.9613 150.682 73.8535 152.201 82.2039 151.687C92.8952 151.033 88.2877 163.24 88.2877 163.24L95.3698 163.889C95.3698 163.889 93.0834 149.525 85.013 150.142C85.013 150.142 63.9375 148.637 53.6748 150.491C53.6608 150.488 53.6466 150.488 53.6326 150.491C52.642 150.583 51.6639 150.782 50.7146 151.083C50.6353 151.173 49.5999 152.259 48.2275 153.799Z" fill="#131F2D"/>
<path d="M52.3023 172.452L61.4404 172.299L61.1679 180.265L52.0298 180.421L52.3023 172.452Z" fill="white"/>
<path d="M39.8395 169.54C40.7462 169.523 41.4472 170.594 41.4026 171.923C41.358 173.252 40.5827 174.343 39.6686 174.358C38.7546 174.373 38.061 173.31 38.1056 171.978C38.1501 170.646 38.9329 169.555 39.8395 169.54Z" fill="white"/>
<path d="M41.7521 165.871L42.2996 176.032L35.4751 176.144L35.6336 171.479C37.3949 166.561 41.5342 165.904 41.7521 165.871ZM39.6763 174.359C40.5829 174.344 41.3583 173.255 41.4103 171.923C41.4623 170.591 40.7539 169.523 39.8472 169.54C38.9406 169.558 38.1653 170.649 38.1132 171.978C38.0612 173.308 38.7697 174.374 39.6763 174.359Z" fill="#F9E1B1"/>
<path d="M61.4405 172.299L70.5736 172.144L70.3036 180.112L61.168 180.265L61.4405 172.299Z" fill="white"/>
<path d="M82.9941 165.439C83.2244 165.457 87.609 165.785 89.3875 170.874L89.4668 175.84L82.2212 176.342L82.9941 165.439ZM85.0377 174.313C86.0013 174.248 86.7717 173.059 86.7444 171.632C86.7172 170.204 85.9171 169.123 84.9559 169.184C83.9948 169.244 83.2219 170.455 83.2542 171.87C83.2864 173.284 84.0766 174.378 85.0377 174.313Z" fill="#F9E1B1"/>
<path d="M84.9557 169.184C85.9168 169.119 86.7194 170.217 86.7442 171.632C86.7689 173.046 86.001 174.248 85.0374 174.313C84.0738 174.378 83.2762 173.287 83.2539 171.87C83.2316 170.453 83.9921 169.259 84.9557 169.184Z" fill="white"/>
<path d="M240.973 188.692L240.911 188.622C240.911 188.554 240.911 188.484 240.911 188.417C240.938 188.507 240.956 188.597 240.973 188.692Z" fill="#F7D877"/>
<path d="M198.058 215.163C203.115 215.089 207.118 208.294 206.999 199.986C206.881 191.679 202.684 185.004 197.627 185.079C192.57 185.153 188.567 191.947 188.685 200.255C188.804 208.563 193 215.237 198.058 215.163Z" fill="#131F2D"/>
<path d="M197.318 200.698C197.398 206.269 199.355 210.761 201.688 210.731C204.022 210.701 205.85 206.151 205.77 200.578C205.691 195.005 203.734 190.515 201.401 190.546C199.067 190.576 197.239 195.125 197.318 200.698Z" fill="#ECFCFB"/>
<path d="M183.455 208.605C188.446 208.531 192.425 203.729 192.341 197.879C192.257 192.028 188.143 187.345 183.151 187.418C178.16 187.491 174.181 192.294 174.265 198.144C174.349 203.994 178.463 208.678 183.455 208.605Z" fill="#131F2D"/>
<path d="M182.062 198.276C182.124 202.67 184.093 206.204 186.459 206.169C188.824 206.134 190.692 202.545 190.63 198.143C190.568 193.741 188.599 190.212 186.233 190.247C183.868 190.282 181.997 193.882 182.062 198.276Z" fill="#ECFCFB"/>
<path d="M223.945 199.035C224.039 205.574 227.777 209.805 234.235 209.713C240.693 209.62 244.297 204.162 244.203 197.623C244.109 191.085 240.257 185.89 233.799 185.983C227.341 186.076 223.851 192.497 223.945 199.035Z" fill="#131F2D"/>
<path d="M229.856 199.279C229.922 204.044 232.253 207.137 236.264 207.079C240.274 207.021 242.506 203.049 242.439 198.278C242.372 193.508 239.962 189.715 235.957 189.776C231.951 189.836 229.789 194.508 229.856 199.279Z" fill="#ECFCFB"/>
<path d="M236.96 194.744L238.035 195.494L239.447 192.083L237.906 191.057L236.96 194.744Z" fill="#D6E3DD"/>
<path d="M238.825 196.402L239.085 197.957L241.979 197.529L241.726 195.667L238.825 196.402Z" fill="#D6E3DD"/>
<path d="M238.3 200.373L237.431 201.449L239.682 204.097L240.891 202.54L238.3 200.373Z" fill="#D6E3DD"/>
<path d="M137.04 213.138C142.682 213.056 147.177 207.324 147.078 200.335C146.979 193.346 142.325 187.747 136.682 187.828C131.039 187.91 126.545 193.642 126.644 200.631C126.743 207.62 131.397 213.22 137.04 213.138Z" fill="#131F2D"/>
<path d="M132.534 200.714C132.618 206.633 135.861 211.381 139.775 211.326C143.688 211.271 146.795 206.425 146.711 200.508C146.626 194.592 143.384 189.841 139.47 189.899C135.556 189.957 132.45 194.797 132.534 200.714Z" fill="#ECFCFB"/>
<path d="M135.368 200.109C135.427 204.272 137.545 207.616 140.102 207.578C142.658 207.54 144.68 204.137 144.62 199.976C144.561 195.815 142.443 192.469 139.886 192.507C137.33 192.544 135.309 195.94 135.368 200.109Z" fill="#131F2D"/>
<path d="M192.634 204.779C192.634 204.779 151.288 206.093 143.528 205.088C135.767 204.082 137.01 196.016 137.01 196.016L192.498 198.867C192.498 198.867 192.674 203.282 192.634 204.779Z" fill="#131F2D"/>
<path d="M124.778 200.177C124.778 200.177 126.76 200.568 126.864 198.622L146.042 199.056L147.065 200.36L161.724 200.658L162.812 199.214L187.264 199.715L187.489 200.302C187.706 200.865 188.072 201.356 188.547 201.721C189.023 202.086 189.588 202.311 190.182 202.371C190.632 202.416 191.123 202.462 191.611 202.497C192.461 202.559 193.304 202.301 193.979 201.774C194.654 201.247 195.113 200.486 195.27 199.637C196.057 195.333 197.957 187.152 201.356 184.398C201.972 183.863 202.739 183.538 203.548 183.47C203.548 183.47 212.156 184.649 206.707 203.736L225.008 203.282C225.008 203.282 231.899 200.743 232.783 199.407C233.668 198.07 236.132 178.797 240.371 185.75C240.371 185.75 241.042 187.24 240.911 188.614L241.983 189.818C241.834 186.593 241.152 183.416 239.964 180.42C239.87 180.189 239.769 179.959 239.665 179.723C238.488 177.049 236.71 174.35 234.007 172.351C234.007 172.351 220.554 151.002 209.082 149.131C209.082 149.131 174.712 143.029 148.593 148.898C148.593 148.898 138.95 159.101 137.198 163.244C136.757 164.288 134.602 165.203 133.009 165.963C132.075 166.41 131.335 166.806 131.231 167.142C131.231 167.142 129.408 173.091 129.561 175.893C129.57 176.053 129.554 176.214 129.514 176.369C129.433 176.743 129.232 177.079 128.942 177.325C127.131 178.92 122.873 184.421 124.778 200.177Z" fill="#00A3FE"/>
<path d="M145.326 197.947L163.199 198.296L161.727 200.656L147.065 200.36L145.326 197.947Z" stroke="#111111" stroke-miterlimit="10"/>
<path d="M186.043 166.809C186.043 166.809 138.591 169.384 135.051 167.503C135.051 167.503 134.08 184.513 138.415 185.038C146.295 185.988 169.109 187.797 178.465 183.889C182.56 182.183 185.451 167.579 186.043 166.809Z" fill="#46B8F8"/>
<g style="mix-blend-mode:multiply">
<path d="M144.803 172.541C144.818 172.31 144.833 172.076 144.853 171.83H144.89C144.858 172.076 144.828 172.31 144.803 172.541Z" fill="#EEBB2D"/>
<path d="M170.776 177.536C170.559 178.179 170.262 178.791 169.892 179.357C170.239 178.778 170.535 178.168 170.776 177.536Z" fill="#EEBB2D"/>
</g>
<path d="M202.466 170.887C202.466 170.887 208.743 185.384 209.07 187.207C209.397 189.031 209.696 199.55 209.696 199.55L232.783 199.414C233.668 198.083 236.132 178.805 240.371 185.758C240.371 185.758 241.042 187.247 240.911 188.622L241.983 189.826C241.834 186.601 241.152 183.424 239.965 180.428C239.939 180.169 239.834 179.925 239.665 179.731C239.665 179.731 237.71 174.99 230.036 172.803C229.149 172.551 228.249 172.346 227.341 172.189C227.341 172.189 220.747 169.711 213.908 167.361L213.846 167.343C207.472 165.153 200.908 163.079 199.29 163.262C199.29 163.262 202.827 168.344 202.466 170.887Z" fill="#46B8F8"/>
<path d="M160.44 149.783L171.732 149.62L171.707 147.867L160.415 148.03L160.44 149.783Z" fill="#EEBB2D"/>
<path d="M126.871 199.123L146.049 199.557L147.072 200.859L161.732 201.157L162.819 199.715L187.269 200.217C187.269 200.217 186.803 196.347 179.035 196.332C167.338 196.332 132.247 195.996 132.247 195.996C132.247 195.996 125.244 195.72 126.871 199.123Z" fill="#131F2D"/>
<path d="M206.707 203.744C206.707 203.744 208.778 190.596 200.041 185.834C200.041 185.834 202.986 180.524 206.568 184.329C206.568 184.326 212.873 186.679 206.707 203.744Z" fill="#131F2D"/>
<path d="M217.594 168.838C217.594 168.838 220.953 173.882 220.512 181.091C220.512 181.229 220.494 181.364 220.482 181.502C219.885 188.931 219.935 199.4 219.935 199.4" stroke="#064789" stroke-width="0.5" stroke-miterlimit="10" stroke-linecap="round"/>
<path d="M137.201 163.253C142.155 166.38 190.011 163.348 190.011 163.348C190.488 163.131 190.992 162.984 191.51 162.911C192.795 162.703 194.428 162.741 196.07 162.894L199.29 163.263C199.29 163.263 196.964 147.895 187.576 147.833C187.576 147.833 162.277 146.95 151.955 148.229C151.939 148.225 151.922 148.225 151.905 148.229C150.78 148.332 149.669 148.557 148.591 148.898C148.497 149.004 147.328 150.24 145.77 151.989C142.77 155.352 138.326 160.571 137.201 163.253Z" fill="#ECFCFB"/>
<path d="M214.106 167.213C214.106 167.213 209.58 152.59 206.793 150.752C206.793 150.752 198.2 149.962 197.115 151.402C197.115 151.402 203.13 161.351 202.867 163.997C202.867 163.997 214.106 167.213 214.108 167.416" fill="#ECFCFB"/>
<path d="M226.541 169.876C226.541 169.876 219.127 167.343 217.983 168.07C217.983 168.07 213.422 154.363 209.835 150.985C209.835 150.985 215.037 151.547 222.984 159.763C224.827 161.669 226.281 169.119 226.541 169.876Z" fill="#ECFCFB"/>
<path d="M145.757 152.004C145.973 151.924 146.178 151.816 146.366 151.683C151.14 148.46 174.885 150.178 184.385 149.603C196.523 148.851 191.294 162.718 191.294 162.718L199.345 163.471C199.345 163.471 196.744 147.145 187.571 147.845C187.571 147.845 163.614 146.122 151.95 148.241C151.933 148.238 151.916 148.238 151.9 148.241C150.775 148.345 149.664 148.57 148.586 148.911C148.482 149.019 147.322 150.256 145.757 152.004Z" fill="#131F2D"/>
<path d="M150.394 173.207L160.783 173.032L160.474 182.089L150.087 182.264L150.394 173.207Z" fill="#767879"/>
<path d="M136.232 169.894C137.263 169.879 138.058 171.095 138.008 172.605C137.959 174.115 137.075 175.364 136.044 175.364C135.014 175.364 134.216 174.17 134.268 172.658C134.32 171.145 135.199 169.911 136.232 169.894Z" fill="#F47459"/>
<g style="mix-blend-mode:multiply">
<path d="M138.405 165.726L139.026 177.263L131.268 177.393L131.449 172.091C133.45 166.501 138.157 165.763 138.405 165.726ZM136.044 175.374C137.074 175.357 137.956 174.12 138.008 172.615C138.06 171.111 137.265 169.889 136.232 169.904C135.199 169.919 134.32 171.158 134.268 172.678C134.216 174.198 135.011 175.402 136.044 175.384" fill="#A24C3E"/>
</g>
<path d="M160.783 173.032L171.165 172.859L170.858 181.916L160.474 182.089L160.783 173.032Z" fill="#919192"/>
<g style="mix-blend-mode:multiply">
<path d="M185.282 165.247C185.545 165.267 190.529 165.638 192.55 171.424L192.642 177.067L184.4 177.622L185.282 165.247ZM187.621 175.322C188.716 175.249 189.585 173.885 189.558 172.274C189.531 170.664 188.619 169.418 187.527 169.493C186.434 169.568 185.567 170.938 185.592 172.545C185.617 174.153 186.526 175.397 187.621 175.322Z" fill="#A24C3E"/>
</g>
<path d="M187.514 169.492C188.606 169.417 189.518 170.666 189.545 172.274C189.572 173.881 188.703 175.248 187.608 175.321C186.513 175.394 185.606 174.155 185.579 172.544C185.552 170.934 186.419 169.565 187.514 169.492Z" fill="#F47459"/>
<path d="M299.136 215.292C304.849 215.292 309.48 208.856 309.48 200.918C309.48 192.979 304.849 186.543 299.136 186.543C293.423 186.543 288.792 192.979 288.792 200.918C288.792 208.856 293.423 215.292 299.136 215.292Z" fill="#131F2D"/>
<path d="M309.171 200.862C309.171 207.24 306.796 212.412 303.865 212.412C300.935 212.412 298.562 207.24 298.562 200.862C298.562 194.484 300.937 189.325 303.865 189.325C306.793 189.325 309.171 194.491 309.171 200.862Z" fill="#ECFCFB"/>
<path d="M383.561 196.224C383.561 208.082 379.947 217.696 375.488 217.696C371.03 217.696 367.418 208.082 367.418 196.224C367.418 184.366 371.032 174.752 375.488 174.752C379.945 174.752 383.561 184.366 383.561 196.224Z" fill="#131F2D"/>
<path d="M382.046 196.681C382.046 204.616 380.624 211.047 378.868 211.047C377.111 211.047 375.689 204.616 375.689 196.681C375.689 188.745 377.114 182.314 378.868 182.314C380.621 182.314 382.046 188.747 382.046 196.681Z" fill="#ECFCFB"/>
<path d="M251.984 221.17C260.116 221.17 266.708 212.011 266.708 200.714C266.708 189.416 260.116 180.257 251.984 180.257C243.852 180.257 237.26 189.416 237.26 200.714C237.26 212.011 243.852 221.17 251.984 221.17Z" fill="#131F2D"/>
<path d="M264.362 201.567C264.362 211.138 260.398 218.896 255.506 218.896C250.614 218.896 246.653 211.138 246.653 201.567C246.653 191.996 250.616 184.236 255.506 184.236C260.396 184.236 264.362 191.996 264.362 201.567Z" fill="#ECFCFB"/>
<path d="M347.606 220.897C355.016 220.897 361.022 211.738 361.022 200.441C361.022 189.143 355.016 179.984 347.606 179.984C340.197 179.984 334.19 189.143 334.19 200.441C334.19 211.738 340.197 220.897 347.606 220.897Z" fill="#131F2D"/>
<path d="M358.971 200.337C358.971 208.363 356.058 214.884 352.466 214.884C348.874 214.884 345.964 208.363 345.964 200.337C345.964 192.311 348.874 185.79 352.466 185.79C356.058 185.79 358.971 192.306 358.971 200.337Z" fill="#ECFCFB"/>
<path d="M383.512 198.557C383.512 198.557 384.6 177.394 381.672 179.543C381.672 179.543 378.033 182.992 378.233 192.635C378.233 192.635 378.439 204.193 373.69 205.111L360.398 206.46C360.398 206.46 362.702 197.885 358.312 188.076C358.312 188.076 357.973 171.156 353.135 178.013C352.833 178.442 352.796 178.695 352.29 179.934C350.822 183.594 347.973 192.136 348.374 202.507L348.349 202.598C348.3 202.813 348.146 203.383 347.899 204.103V204.135C347.49 205.307 346.801 206.842 345.825 207.825C345.825 207.825 338.81 208.076 328.314 208.351C304.261 208.981 261.927 209.701 243.785 207.664C242.051 207.476 240.55 207.25 239.296 207.01C238.364 205.448 237.645 203.765 237.158 202.008C236.919 201.153 236.823 200.263 236.876 199.375C236.876 199.375 236.94 180.759 241.582 173.195C241.582 173.195 241.181 162.147 251.283 159.079C251.283 159.079 253.559 156.892 256.928 153.754C265.207 146.029 280.075 132.543 283.805 131.668C283.805 131.668 313.504 122.874 348.25 128.6C348.25 128.6 359.021 127.645 367.782 139.237C369.183 141.18 370.415 143.242 371.463 145.4C372.796 148.124 374.079 151.505 374.51 154.991C374.531 155.018 374.555 155.043 374.58 155.066C375.13 155.668 378.947 159.887 379.626 161.469C380.411 163.303 382.321 172.641 383.198 176.669C383.185 176.679 388.065 192.319 383.512 198.557Z" fill="#F47459"/>
<path d="M361.166 133.489C361.166 133.489 350.559 125.545 350.762 134.339C350.762 134.339 352.629 157.203 356.333 160.885C356.333 160.885 372.05 157.762 374.354 155.174C375.186 154.241 367.938 137.406 361.166 133.489Z" fill="#131F2D"/>
<path d="M352.682 140.782C352.682 140.782 351.468 133.508 354.195 132.806C354.195 132.806 356.355 132.385 356.722 132.909C359.65 137.1 363.455 144.123 365.508 153.054C365.508 153.054 359.752 156.736 357.227 154.795C354.703 152.854 352.682 140.782 352.682 140.782Z" fill="#ECFCFB"/>
<path d="M359.752 134.476C359.752 134.476 368.776 139.52 371.199 150.907C371.199 150.907 366.755 152.613 366.284 152.204C365.813 151.795 362.511 139.999 359.415 135.5C359.415 135.5 358.607 134.271 359.752 134.476Z" fill="#ECFCFB"/>
<path d="M284.412 132.947C287.07 132.417 325.114 125.074 347.145 132.911C347.47 133.029 347.752 133.245 347.953 133.529C348.154 133.813 348.265 134.152 348.27 134.502C348.364 138.951 348.436 154.353 344.802 152.954C344.802 152.954 281.286 152.64 263.74 153.245C263.398 153.256 263.06 153.164 262.77 152.979C262.481 152.794 262.252 152.526 262.115 152.208C261.978 151.89 261.937 151.538 262 151.197C262.062 150.856 262.224 150.542 262.465 150.295C267.501 145.149 277.531 135.497 284.127 133.027C284.22 132.992 284.315 132.966 284.412 132.947Z" fill="#131F2D"/>
<path d="M269.185 150.654C268.89 150.66 268.6 150.575 268.353 150.411C268.106 150.247 267.914 150.011 267.802 149.734C267.69 149.457 267.663 149.153 267.725 148.86C267.787 148.568 267.935 148.302 268.15 148.096C273.56 142.909 280.382 137.06 284.917 135.347C286.798 134.978 303.595 131.773 320.836 131.773C330.539 131.773 338.602 132.776 344.864 134.733C345.157 134.827 345.414 135.013 345.596 135.264C345.779 135.515 345.878 135.818 345.88 136.13C345.942 141.597 345.573 146.777 344.961 149.375C344.882 149.697 344.699 149.983 344.44 150.186C344.181 150.389 343.861 150.498 343.534 150.494C339.323 150.474 325.267 150.418 309.966 150.418C288.777 150.418 276.436 150.516 269.185 150.654Z" fill="#ECFCFB"/>
<path d="M380.837 180.546C380.837 180.546 382.323 175.731 383.433 182.671C384.543 189.61 383.681 196.716 383.309 196.716C382.938 196.716 383.515 189.094 380.837 180.546Z" fill="#111111"/>
<path d="M351.52 181.103C351.52 181.103 354.916 181.966 358.312 188.073C358.312 188.073 358.882 176.182 355.518 176.182C355.518 176.182 352.89 176.014 351.52 181.103Z" fill="#111111"/>
<path d="M383.43 198.605C383.43 198.605 384.468 178.377 381.674 179.543C381.674 179.543 380.188 180.599 378.736 185.939C378.736 185.939 377.993 180.634 380.926 177.933C381.149 177.731 381.421 177.591 381.713 177.527C382.006 177.463 382.31 177.477 382.596 177.568C382.882 177.658 383.14 177.822 383.345 178.043C383.549 178.265 383.694 178.536 383.764 178.83C384.887 183.345 386.943 193.786 383.43 198.605Z" fill="#A24C3E"/>
<path d="M378.231 192.635C378.231 192.635 378.441 204.195 373.69 205.111L360.398 206.463L361.022 201.248L373.903 199.696C373.903 199.696 375.818 199.482 378.144 190.383C378.238 189.983 378.37 189.594 378.54 189.222C378.345 190.349 378.242 191.491 378.231 192.635Z" fill="#A24C3E"/>
<path d="M349.91 187.453C349.91 187.453 351.005 172.174 356.972 175.193C358.211 175.823 359.588 178.768 358.342 187.915C358.342 187.915 357.76 175.487 354.894 176.435C354.894 176.435 353.234 176.014 349.91 187.453Z" fill="#A24C3E"/>
<g style="mix-blend-mode:multiply">
<path d="M348.386 202.517L348.362 202.608L347.908 204.113V204.145C347.497 205.317 346.811 206.854 345.832 207.837C345.832 207.837 338.817 208.088 328.322 208.359C304.266 208.988 261.934 209.711 243.789 207.672C242.055 207.484 240.569 207.263 239.306 207.017C238.373 205.456 237.653 203.775 237.166 202.018C239.848 203.132 255.32 209.014 278.764 207.158C278.764 207.158 328.866 207.461 334.519 204.431C336.442 203.39 342.441 200.611 342.441 200.611C342.441 200.611 343.479 202.896 344.192 203.205C345.166 203.621 348.386 202.517 348.386 202.517Z" fill="#A24C3E"/>
</g>
<path d="M379.613 161.484C379.613 161.484 374.354 170.646 346.013 163.992C346.013 163.992 345.518 161.65 344.735 160.576C344.735 160.576 355.156 163.864 374.354 155.166L374.567 155.068C375.117 155.678 378.934 159.897 379.613 161.484Z" fill="#FF9685"/>
<path d="M368.451 158.065C368.451 158.065 376.328 173.919 369.459 200.917" stroke="#A24C3E" stroke-width="0.5" stroke-miterlimit="10" stroke-linecap="round"/>
<path d="M243.093 182.395C243.093 182.395 242.707 185.49 248.726 186.302C254.746 187.115 259.987 185.638 261.444 190.651C262.901 195.665 259.987 200.383 269.601 201.71C279.215 203.036 303.786 204.514 305.19 200.531C306.595 196.548 303.679 189.914 309.798 188.743C315.916 187.571 329.895 189.036 333.244 187.12C336.593 185.204 336.739 182.856 334.7 181.221C332.662 179.585 256.638 179.746 252.343 179.746C248.048 179.746 243.093 179.292 243.093 182.395Z" fill="#131F2D"/>
<path d="M270.126 185.472L299.555 185.246C299.787 185.244 300.016 185.295 300.226 185.395C300.436 185.495 300.621 185.642 300.767 185.825C300.913 186.008 301.016 186.222 301.069 186.451C301.121 186.68 301.122 186.918 301.071 187.147L300.399 190.157C300.322 190.503 300.132 190.812 299.858 191.033C299.585 191.255 299.246 191.376 298.896 191.376H270.864C270.525 191.376 270.194 191.261 269.925 191.051C269.657 190.84 269.464 190.545 269.378 190.212L268.65 187.416C268.593 187.187 268.587 186.948 268.634 186.717C268.681 186.485 268.78 186.268 268.922 186.081C269.064 185.894 269.246 185.742 269.455 185.636C269.664 185.531 269.893 185.475 270.126 185.472Z" fill="white"/>
<path d="M306.612 176.445H270.287C269.505 176.448 268.731 176.295 268.008 175.994C267.285 175.692 266.629 175.249 266.076 174.689L265.333 173.937C264.817 173.412 264.204 172.995 263.528 172.712C262.852 172.429 262.128 172.284 261.397 172.286H258.065V171.888H261.397C262.178 171.884 262.953 172.037 263.676 172.338C264.399 172.64 265.055 173.083 265.608 173.643L266.351 174.396C266.866 174.921 267.48 175.337 268.156 175.621C268.831 175.904 269.556 176.049 270.287 176.046H306.612C307.547 176.046 308.467 175.808 309.287 175.354L314.202 172.625C315.079 172.135 316.063 171.876 317.065 171.873H321.933V172.271H317.065C316.13 172.272 315.21 172.51 314.39 172.964L309.475 175.692C308.598 176.182 307.613 176.441 306.612 176.445Z" fill="#131F2D"/>
<path d="M257.522 173.055C261.858 169.503 263.513 164.296 261.219 161.424C258.924 158.551 253.548 159.102 249.212 162.654C244.875 166.206 243.22 171.413 245.515 174.286C247.809 177.158 253.185 176.607 257.522 173.055Z" fill="#F9E1B1"/>
<path d="M251.483 175.693C249.532 175.693 247.978 174.956 247.104 173.616C246.135 172.129 246.113 170.025 247.03 167.848C248.843 163.556 253.767 160.072 258.006 160.072C258.645 160.067 259.282 160.157 259.896 160.338C259.908 160.341 259.919 160.347 259.928 160.355C259.938 160.362 259.946 160.372 259.951 160.383C259.957 160.393 259.961 160.405 259.962 160.417C259.963 160.43 259.962 160.442 259.958 160.454C259.954 160.465 259.949 160.476 259.941 160.486C259.934 160.495 259.924 160.503 259.914 160.509C259.903 160.515 259.891 160.518 259.879 160.52C259.867 160.521 259.855 160.52 259.844 160.516C259.246 160.343 258.627 160.258 258.006 160.266C253.834 160.266 248.987 163.704 247.201 167.933C246.301 170.057 246.324 172.099 247.257 173.534C248.095 174.82 249.596 175.528 251.483 175.528C252.344 175.52 253.2 175.39 254.025 175.141C254.037 175.137 254.05 175.135 254.062 175.136C254.075 175.136 254.087 175.14 254.098 175.146C254.11 175.151 254.12 175.16 254.128 175.169C254.136 175.179 254.142 175.191 254.145 175.203C254.148 175.216 254.149 175.228 254.148 175.241C254.146 175.254 254.142 175.266 254.135 175.277C254.128 175.288 254.12 175.297 254.109 175.305C254.099 175.312 254.087 175.317 254.075 175.319C253.233 175.568 252.36 175.693 251.483 175.693Z" fill="#131F2D"/>
<path d="M334 173.051C338.336 169.5 339.991 164.292 337.697 161.42C335.402 158.547 330.026 159.098 325.69 162.65C321.353 166.202 319.698 171.409 321.993 174.282C324.288 177.154 329.663 176.603 334 173.051Z" fill="#F9E1B1"/>
<path d="M327.965 175.693C326.015 175.693 324.46 174.956 323.588 173.616C322.619 172.129 322.597 170.025 323.513 167.848C325.327 163.556 330.249 160.072 334.49 160.072C335.129 160.067 335.766 160.157 336.38 160.338C336.391 160.341 336.402 160.347 336.412 160.355C336.422 160.362 336.429 160.372 336.435 160.383C336.441 160.393 336.445 160.405 336.446 160.417C336.447 160.43 336.445 160.442 336.442 160.454C336.438 160.465 336.433 160.476 336.425 160.486C336.417 160.495 336.408 160.503 336.397 160.509C336.387 160.515 336.375 160.518 336.363 160.52C336.351 160.521 336.339 160.52 336.328 160.516C335.73 160.343 335.111 160.258 334.49 160.266C330.316 160.266 325.468 163.704 323.684 167.933C322.785 170.057 322.808 172.099 323.741 173.534C324.579 174.82 326.08 175.528 327.953 175.528C328.814 175.52 329.671 175.39 330.497 175.141C330.508 175.137 330.521 175.135 330.534 175.136C330.546 175.136 330.559 175.14 330.57 175.146C330.581 175.151 330.591 175.16 330.599 175.169C330.607 175.179 330.613 175.191 330.617 175.203C330.62 175.216 330.621 175.228 330.619 175.241C330.617 175.254 330.613 175.266 330.606 175.277C330.6 175.288 330.591 175.297 330.581 175.305C330.57 175.312 330.558 175.317 330.546 175.319C329.707 175.566 328.838 175.692 327.965 175.693Z" fill="#131F2D"/>
<path d="M288.44 171.767C288.44 172.389 287.412 172.896 286.143 172.896C284.875 172.896 283.85 172.394 283.85 171.767C283.85 171.14 284.875 170.636 286.143 170.636C287.412 170.636 288.44 171.14 288.44 171.767Z" fill="#E3EEEC"/>
<path d="M250.044 194.933C250.044 197.378 248.268 199.976 245.518 199.976C242.769 199.976 240.993 197.378 240.993 194.933C240.993 192.487 243.222 190.197 245.974 190.197C248.726 190.197 250.044 192.487 250.044 194.933Z" fill="#131F2D"/>
<path d="M337.423 194.933C337.423 197.378 335.646 199.976 332.897 199.976C330.147 199.976 328.371 197.378 328.371 194.933C328.371 192.487 330.601 190.197 333.353 190.197C336.105 190.197 337.423 192.487 337.423 194.933Z" fill="#131F2D"/>
<path d="M352.209 155.179C352.209 155.179 349.568 152.643 350.923 148.395C352.278 144.146 362.699 147.025 363.782 149.147C364.864 151.269 360.601 154.903 357.757 155.52C354.914 156.137 355.528 161.344 353.358 161.071C351.188 160.797 349.474 159.29 350.537 158.329C351.599 157.369 353.561 156.002 352.209 155.179Z" fill="#131F2D"/>
<path d="M370.317 170.04C370.73 171.545 370.247 172.987 369.237 173.27C368.226 173.554 367.074 172.573 366.66 171.073C366.247 169.573 366.732 168.126 367.74 167.84C368.749 167.554 369.905 168.54 370.317 170.04Z" fill="#131F2D"/>
<path d="M398.278 23.4193C398.125 23.324 397.969 23.2337 397.81 23.1484C397.971 23.2337 398.127 23.3215 398.278 23.4193Z" fill="#3E4754"/>
<path d="M399.998 256.126H392.514L394.27 79.5835H399.131L399.998 256.126Z" fill="#3E4754"/>
<path d="M390.822 256.124H402.217L403.814 260.064H389.222L390.822 256.124Z" fill="#3E4754"/>
<path d="M368.627 63.4917L368.496 63.6096L368.572 63.7475C368.607 63.694 368.638 63.6378 368.664 63.5795C368.671 63.5569 368.639 63.5218 368.627 63.4917ZM368.627 63.4917L368.496 63.6096L368.572 63.7475C368.607 63.694 368.638 63.6378 368.664 63.5795C368.671 63.5569 368.639 63.5218 368.627 63.4917Z" fill="#F77F00"/>
<path d="M397.81 23.1484C397.975 23.2337 398.131 23.324 398.278 23.4193C398.127 23.3215 397.971 23.2337 397.81 23.1484Z" fill="#F77F00"/>
<path d="M437.746 10.6604C437.777 9.23809 437.402 7.83702 436.666 6.62483C435.068 4.04647 432.68 3.02566 429.755 3.02817C414.611 3.02817 399.468 3.02817 384.324 3.02817C379.633 3.02817 374.936 3.12097 370.244 3.00309C365.488 2.88019 362.07 6.43923 362.132 11.2247C362.278 21.2347 362.176 31.2496 362.174 41.2621C362.174 51.3815 362.174 61.5027 362.174 71.6255C362.174 76.4887 365.253 79.5813 370.036 79.5838C378.113 79.5838 386.19 79.5838 394.265 79.5838H399.125C409.485 79.5838 419.846 79.5838 430.211 79.5838C434.556 79.5838 437.719 76.3433 437.731 71.9315C437.731 67.3617 437.731 62.7918 437.731 58.2195C437.736 42.3665 437.741 26.5134 437.746 10.6604Z" fill="#064789" stroke="#F77F00" stroke-width="5" stroke-miterlimit="10"/>
<path d="M420.067 29.5942C419.988 25.521 419.138 21.6986 416.599 18.3954C413.245 14.0112 408.695 12.3358 403.379 12.1C397.186 11.8241 390.993 11.9646 384.8 11.8793C381.758 11.8342 378.717 11.9445 375.675 11.9847C375.681 11.9954 375.684 12.0075 375.685 12.0199C375.685 12.0323 375.683 12.0446 375.678 12.0559C375.673 12.0672 375.665 12.0771 375.656 12.0848C375.646 12.0925 375.635 12.0977 375.623 12.1C375.6 12.4587 375.556 12.8199 375.556 13.1785C375.556 23.2244 375.556 33.2686 375.556 43.3112C375.556 49.3307 375.569 55.3502 375.595 61.3697C375.595 62.3228 375.553 63.2357 375.551 64.1286C375.576 66.2505 375.599 68.3716 375.623 70.4918C375.635 70.4953 375.646 70.5015 375.656 70.5098C375.665 70.5182 375.673 70.5285 375.679 70.5401C375.684 70.5518 375.687 70.5644 375.687 70.5773C375.687 70.5901 375.685 70.6029 375.68 70.6147C379.219 70.8053 382.767 70.6147 386.309 70.72C387.124 70.7426 387.3 70.4968 387.3 69.6917C387.268 63.0175 387.3 56.3434 387.26 49.6693C387.26 48.6911 387.508 48.4804 388.449 48.4804C392.532 48.4804 396.624 48.5858 400.691 48.3851C402.088 48.3174 403.483 48.2121 404.878 48.0515L405.086 48.0265C408.99 47.5399 412.388 46.0024 415.18 43.1908C418.898 39.4461 420.169 34.761 420.067 29.5942ZM407.929 30.4946C407.929 30.5423 407.929 30.5874 407.929 30.6351C407.929 30.7329 407.929 30.8282 407.912 30.921C407.895 31.0138 407.895 31.1091 407.885 31.2019C407.875 31.2947 407.867 31.3775 407.855 31.4527C407.843 31.528 407.84 31.5756 407.828 31.6333C407.815 31.691 407.815 31.7311 407.806 31.7763C407.806 31.7763 407.806 31.7888 407.806 31.7964C407.786 31.9067 407.766 32.0146 407.741 32.1199C407.716 32.2252 407.696 32.3206 407.672 32.4184C407.672 32.4685 407.647 32.5162 407.632 32.5638C407.633 32.5755 407.633 32.5873 407.632 32.599C407.615 32.6692 407.595 32.7419 407.573 32.8121L407.558 32.8573C407.523 32.9702 407.483 33.083 407.444 33.1934C407.404 33.3037 407.357 33.4241 407.308 33.537C407.258 33.6499 407.211 33.7627 407.156 33.8706C407.102 33.9784 407.072 34.0461 407.025 34.1214C406.993 34.1816 406.961 34.2393 406.926 34.297C406.891 34.3546 406.874 34.3898 406.847 34.4374C406.82 34.4851 406.795 34.5252 406.765 34.5678C406.735 34.6105 406.691 34.6857 406.651 34.7434L406.589 34.8337C406.552 34.8889 406.515 34.9415 406.475 34.9917C406.436 35.0419 406.384 35.1171 406.334 35.1773C406.082 35.4992 405.802 35.7972 405.497 36.0677L405.37 36.1781C405.328 36.2157 405.284 36.2533 405.237 36.2884L405.063 36.4264L405.041 36.4439C404.979 36.4941 404.915 36.5392 404.85 36.5869C404.749 36.6596 404.647 36.7273 404.541 36.7925C404.434 36.8578 404.385 36.8929 404.293 36.938C404.201 36.9832 404.169 37.0133 404.105 37.0459C404.04 37.0785 403.921 37.1462 403.827 37.1938C403.778 37.2189 403.726 37.2465 403.671 37.2691C403.652 37.2803 403.632 37.2896 403.612 37.2967L403.461 37.3669C403.364 37.4121 403.267 37.4522 403.168 37.4923L402.921 37.5851C402.901 37.5948 402.88 37.6024 402.859 37.6077L402.675 37.6729C402.564 37.713 402.452 37.7481 402.338 37.7833L401.974 37.8861H401.952C401.841 37.9137 401.724 37.9438 401.608 37.9689H401.585L401.449 37.9964C401.246 38.0399 401.038 38.0775 400.825 38.1093C400.736 38.1244 400.644 38.1394 400.55 38.1494C400.456 38.1595 400.302 38.1795 400.188 38.1921C396.151 38.6009 392.103 38.3977 388.05 38.473C387.396 38.4855 387.292 38.2046 387.307 37.6353C387.332 35.1272 387.307 32.6316 387.307 30.1285C387.307 27.6253 387.322 25.1247 387.307 22.6216C387.307 22.0322 387.436 21.7864 388.073 21.799C392.261 21.8792 396.453 21.6635 400.634 22.0698C400.736 22.0698 400.835 22.0899 400.936 22.1049L401.13 22.135L401.315 22.1651C401.402 22.1802 401.489 22.1952 401.563 22.2153L401.751 22.2579C401.803 22.2579 401.855 22.283 401.907 22.2956L402.177 22.3683L402.467 22.4561C402.636 22.5088 402.799 22.569 402.963 22.6342L403.146 22.7069L403.292 22.7671L403.399 22.8173C403.584 22.9 403.768 22.9903 403.946 23.0856C404.124 23.1809 404.261 23.2612 404.414 23.3565L404.563 23.4493C404.625 23.4869 404.684 23.5271 404.741 23.5672C404.798 23.6073 404.91 23.6826 404.989 23.7428C405.068 23.803 405.2 23.9008 405.301 23.9936C405.366 24.0462 405.427 24.0964 405.487 24.1491C405.546 24.2017 405.638 24.282 405.712 24.3497C405.787 24.4174 405.928 24.5529 406.029 24.6607C406.074 24.7059 406.116 24.751 406.156 24.7962C406.602 25.2754 406.974 25.8199 407.261 26.4114C407.295 26.4791 407.325 26.5468 407.355 26.6171C407.503 26.9578 407.616 27.3134 407.692 27.678C407.734 27.8862 407.771 28.0918 407.803 28.2975C407.82 28.4003 407.835 28.5032 407.848 28.6035C407.848 28.6512 407.848 28.6963 407.865 28.7415C407.882 28.7866 407.88 28.8593 407.885 28.917L407.907 29.1302C407.907 29.1553 407.907 29.1804 407.907 29.2055V29.3008C407.907 29.3685 407.907 29.4337 407.907 29.4989V29.6494C407.932 29.9679 407.932 30.2338 407.922 30.4946H407.929Z" fill="#FDFDFD"/>
<path d="M398.278 23.4193C398.125 23.324 397.969 23.2337 397.81 23.1484C397.971 23.2337 398.127 23.3215 398.278 23.4193Z" fill="#F77F00"/>
<path d="M409.296 51.6284H426.787V55.9073L417.268 65.7241H427.372V70.7228H408.581V65.9749L417.622 56.6271H409.292L409.296 51.6284Z" fill="white"/>
</svg>
