<svg width="533" height="292" viewBox="0 0 533 292" fill="none" xmlns="http://www.w3.org/2000/svg">
<g clip-path="url(#clip0_532_8312)">
<path d="M374.925 95.8853L373.401 192.626L366.77 244.706L352.131 244.553L347.186 244.498L323.686 244.246L321.705 212.491L318.888 101.575L374.925 95.8853Z" fill="#D5D6DA"/>
<path d="M434.964 245.271H423.855L392.001 244.971L392.458 201.118L393.551 102.552L431.131 111.545L433.636 201.118L434.964 245.271Z" fill="#D5D6DA"/>
<path d="M316.019 166.778V244.013L296.087 243.757L256.197 243.252L253.344 153.814L316.019 166.778Z" fill="#D5D6DA"/>
<path d="M273.935 243.479L257.724 243.281L241.909 243.086L234.722 243L235.124 193.16L236.124 69.7461L270.469 83.2915L272.756 193.16L273.935 243.479Z" fill="#D5D6DA"/>
<path d="M307.919 102.552L307.915 102.856L306.916 243.894L305.223 243.872L296.087 243.747L290.245 243.668L280.659 243.54L281.336 181.905L282.106 110.743L307.919 102.552Z" fill="#D5D6DA"/>
<path d="M417.099 133.586L413.215 133.033L413.004 125.42L417.099 125.142V133.586Z" fill="white"/>
<path d="M404.731 119.702L400.847 119.149L400.636 111.539L404.731 111.261V119.702Z" fill="white"/>
<path d="M361.831 167.976L357.947 167.321L357.736 158.303L361.831 157.974V167.976Z" fill="white"/>
<path d="M249.712 99.2779L245.828 98.6262L245.617 89.6076L249.712 89.2754V99.2779Z" fill="white"/>
<path d="M302.575 122.423L298.694 121.768L298.479 112.75L302.575 112.417V122.423Z" fill="white"/>
<path d="M329.32 143.23L325.436 142.575L325.225 133.557L329.32 133.228V143.23Z" fill="white"/>
<path d="M267.201 291.997C394.163 291.997 497.087 279.606 497.087 264.321C497.087 249.037 394.163 236.646 267.201 236.646C140.239 236.646 37.3154 249.037 37.3154 264.321C37.3154 279.606 140.239 291.997 267.201 291.997Z" fill="#EAEAEA"/>
<path d="M470.309 39.2944C470.309 39.2944 465.776 27.9438 454.306 29.3654C442.835 30.787 444.199 42.1665 438.737 41.0994C433.275 40.0324 425.64 41.0994 423.986 48.2108C422.331 55.3222 414.972 51.4055 414.7 57.453C414.428 63.5005 423.165 67.7654 433.272 62.4303C443.378 57.0952 448.285 66.5834 462.499 64.8583C476.714 63.1331 478.471 61.0087 486.868 62.0757C495.266 63.1427 495.078 55.6512 491.251 50.6707C487.424 45.6902 471.948 46.179 470.309 39.2944Z" fill="#EAEAEA"/>
<path d="M275.487 10.3734C275.487 10.3734 270.811 -1.34152 258.97 0.128028C247.129 1.59758 248.54 13.338 242.902 12.2359C237.265 11.1337 229.372 12.2359 227.679 19.5836C225.986 26.9314 218.377 22.8869 218.096 29.1229C217.815 35.3589 226.835 39.7644 237.261 34.26C247.688 28.7555 252.763 38.5376 267.425 36.7678C282.087 34.9979 283.898 32.7936 292.577 33.8926C301.256 34.9915 301.045 27.2572 297.1 22.1202C293.155 16.9831 277.18 17.4687 275.487 10.3734Z" fill="#EAEAEA"/>
<path d="M327.346 47.8274C327.346 47.8274 323.855 41.1185 315.013 41.9492C306.171 42.7798 307.225 49.5173 303.015 48.8976C298.805 48.2778 292.912 48.8976 291.647 53.1082C290.382 57.3188 284.702 55.0026 284.492 58.5806C284.281 62.1587 291.018 64.6857 298.805 61.5293C306.593 58.373 310.381 63.9797 321.328 62.9637C332.275 61.9478 333.629 60.6859 340.107 61.3185C346.585 61.951 346.432 57.5136 343.487 54.5649C340.542 51.6162 328.611 51.8974 327.346 47.8274Z" fill="#EAEAEA"/>
<path d="M85.265 69.9317C83.3484 73.3884 81.6778 73.8164 80.3107 73.0721C78.9435 72.3277 78.3941 70.7016 80.3107 67.245C83.7893 60.9451 87.945 59.2583 87.945 59.2583C87.945 59.2583 88.8011 63.5424 85.265 69.9317Z" fill="#D5D6DA"/>
<path d="M131.371 149.831L130.694 150.15C130.643 150.048 125.484 139.659 113.381 127.148C102.217 115.577 82.6774 99.7923 53.0249 90.2051L53.2581 89.4927C83.0639 99.1374 102.705 115.015 113.949 126.637C126.123 139.237 131.32 149.709 131.371 149.831Z" fill="#D5D6DA"/>
<path d="M85.8077 104.498L85.0538 104.472C85.8971 77.3911 63.9428 58.1304 63.7192 57.9387L64.2048 57.3765C64.438 57.5681 86.6605 77.0557 85.8077 104.498Z" fill="#D5D6DA"/>
<path d="M69.8173 99.869C63.2562 103.757 56.3343 103.437 56.2544 103.434L56.2959 102.69C56.3854 102.69 65.2399 103.092 72.2481 97.2397L72.7337 97.8116C71.8184 98.5747 70.8431 99.2627 69.8173 99.869Z" fill="#D5D6DA"/>
<path d="M50.4504 86.895C55.7114 87.9269 57.0306 89.4508 56.7272 90.9778C56.4237 92.5049 54.6158 93.4154 49.358 92.3835C39.7752 90.505 35.6929 86.8535 35.6929 86.8535C35.6929 86.8535 40.7302 84.9782 50.4504 86.895Z" fill="#D5D6DA"/>
<path d="M56.7398 100.339C62.0679 99.7475 63.7928 100.818 63.9653 102.354C64.1378 103.891 62.6876 105.309 57.3659 105.897C47.6585 106.971 42.6562 104.709 42.6562 104.709C42.6562 104.709 46.8919 101.425 56.7398 100.339Z" fill="#D5D6DA"/>
<path d="M70.2741 85.7546C73.0372 88.585 72.9509 90.3006 71.8329 91.374C70.7149 92.4474 68.9804 92.4762 66.2174 89.6425C61.1832 84.4831 60.7871 80.0425 60.7871 80.0425C60.7871 80.0425 65.1633 80.5057 70.2741 85.7546Z" fill="#D5D6DA"/>
<path d="M64.0133 53.9898C67.7602 57.7915 67.971 59.7978 66.8562 60.8776C65.7414 61.9574 63.7226 61.7018 59.9757 57.9001C53.1496 50.9741 51.8687 45.6709 51.8687 45.6709C51.8687 45.6709 57.0849 46.9615 64.0133 53.9898Z" fill="#D5D6DA"/>
<path d="M147.314 200.661C147.314 200.661 95.6334 96.6647 67.6995 111.629C39.7655 126.592 117.904 173.708 131.981 204.459L147.314 200.661Z" fill="#508A68"/>
<path d="M120.744 184.78C120.744 184.78 48.4092 93.9236 18.9196 115.437C-10.5699 136.949 83.9391 165.053 103.97 192.198L120.744 184.78Z" fill="#9DE368"/>
<path d="M111.404 189.013C97.911 170.017 76.7809 154.137 61.4292 144.16C44.7838 133.346 31.1698 126.95 31.0356 126.886L31.4349 126.046C31.5691 126.11 45.2438 132.531 61.9435 143.383C77.3622 153.405 98.5914 169.363 112.17 188.486L111.404 189.013Z" fill="white"/>
<path d="M128.308 236.524C116.546 236.301 128.899 248.13 114.825 248.507C97.2402 246.977 90.0275 238.84 87.52 234.869C86.2292 232.799 84.6815 230.9 82.9138 229.218C77.5251 224.135 76.0334 225.551 59.2762 228.502C45.0617 230.997 43.3975 218.599 37.3635 209.603C37.2549 209.437 37.1431 209.283 37.044 209.111C34.7154 205.785 31.7256 202.99 27.1833 201.696C22.2516 200.3 17.5258 198.259 13.1285 195.626C12.7707 195.412 12.4162 195.191 12.068 194.965C3.51373 189.467 -2.23597 181.918 0.852899 174.11C0.923173 173.924 1.00303 173.739 1.08608 173.557C1.73749 172.15 2.58259 170.842 3.59678 169.669C15.077 156.172 26.7106 160.973 40.1393 163.053C47.566 164.2 58.1582 154.833 68.5684 150.38L69.0156 150.191C77.2791 146.77 85.3894 146.588 91.6694 157.386L92.0527 158.025C106.082 181.803 113.026 173.244 132.783 177.649C136.459 178.471 139.766 179.378 141.95 181.317C162.317 199.386 148.642 224.372 128.308 236.524Z" fill="#13BA38"/>
<path d="M130.007 213.312L130.713 212.408C130.31 212.088 89.4587 181.419 0.897403 173.538L0.791992 174.679C89.0306 182.547 129.611 213.005 130.007 213.312Z" fill="white"/>
<path d="M77.1003 175.708C89.4973 166.037 92.1134 157.884 92.2188 157.543L91.1136 157.223C91.0912 157.303 88.4687 165.398 76.3848 174.823L77.1003 175.708Z" fill="white"/>
<path d="M74.2475 187.892C77.9209 182.365 78.1637 174.068 74.9534 163.897C73.4259 159.129 71.4304 154.524 68.9961 150.15L67.9995 150.722C68.1369 150.961 81.7349 174.567 73.2988 187.278L74.2475 187.892Z" fill="white"/>
<path d="M51.0382 184.371C52.5076 183.307 53.3093 182.604 53.3445 182.572L52.5779 181.723C52.4086 181.87 35.4821 196.623 12.1128 194.383L12.001 195.514C30.8344 197.325 45.56 188.336 51.0382 184.371Z" fill="white"/>
<path d="M37.7659 210.005C43.5156 204.443 45.4322 198.635 46.0263 194.744C46.6651 190.508 45.972 187.617 45.9432 187.496L44.8221 187.77C44.8508 187.882 47.4701 199.006 36.9609 209.175L37.7659 210.005Z" fill="white"/>
<path d="M17.1371 152.233C13.4701 150.709 12.8664 149.102 13.4701 147.677C14.0738 146.253 15.6518 145.55 19.3188 147.074C25.9981 149.847 28.135 153.782 28.135 153.782C28.135 153.782 23.9154 155.047 17.1371 152.233Z" fill="#D5D6DA"/>
<path d="M120.424 261.005L109.631 260.935C103.165 261.731 97.5562 255.504 97.5562 247.517V55.2905C97.5562 47.3389 103.121 41.1093 109.56 41.8504H122.912C128.553 42.4894 209.496 58.6736 209.496 65.6412V236.435C209.509 243.368 126.049 260.319 120.424 261.005Z" fill="#364154"/>
<path d="M212.969 249.866L122.996 260.938C116.53 261.734 110.918 255.507 110.918 247.521V55.2905C110.918 47.3389 116.482 41.1093 122.925 41.8504L212.898 52.2012C218.543 52.8401 222.858 58.6736 222.858 65.6412V236.435C222.858 243.368 218.584 249.185 212.969 249.866Z" fill="#364154"/>
<path d="M217.447 68.7526V223.266C217.447 229.541 213.671 234.796 208.711 235.406L163.572 241.112L129.24 245.438C123.529 246.156 118.571 240.511 118.571 233.298V59.3858C118.571 52.1882 123.487 46.5528 129.176 47.2237L190.506 54.4533L208.64 56.5905C212.94 57.0953 216.364 61.0854 217.226 66.2193C217.37 67.0561 217.444 67.9035 217.447 68.7526Z" fill="#EAEAEA"/>
<path d="M211.34 104.926V220.078C211.34 224.752 208.123 228.669 203.897 229.135L165.432 233.374L136.178 236.601C131.313 237.134 127.087 232.927 127.087 227.541V97.9487C127.087 92.5848 131.275 88.3838 136.124 88.8854L188.392 94.2716L203.846 95.869C207.51 96.2459 210.426 99.217 211.161 103.044C211.28 103.664 211.34 104.294 211.34 104.926Z" fill="#9CC0FA"/>
<path d="M121.897 261.117C119.497 261.091 117.191 260.181 115.419 258.561C112.544 256.006 110.81 251.878 110.81 247.514V55.2904C110.81 50.9456 112.519 46.8277 115.387 44.2719C117.565 42.3296 120.245 41.4287 122.935 41.7386L122.913 41.959C120.287 41.6395 117.664 42.5372 115.534 44.4381C112.713 46.9523 111.03 51.0095 111.03 55.3V247.508C111.03 251.808 112.726 255.875 115.569 258.389C117.712 260.287 120.36 261.152 122.98 260.83L123.009 261.05C122.64 261.095 122.268 261.117 121.897 261.117Z" fill="#131F2D"/>
<path d="M154.127 234.62L149.792 235.1C151.035 218.356 155.453 202.939 161.995 190.828C167.259 181.087 174.197 172.938 182.62 166.647C196.994 155.894 210.771 154.022 211.34 153.958V158.076C211.209 158.092 198.307 159.622 184.751 169.832C176.813 175.81 170.265 183.528 165.294 192.77C159.049 204.376 155.325 218.478 154.127 234.62Z" fill="#EAEAEA"/>
<path d="M177.033 173.493C176.905 173.299 164.103 154.092 158.487 149.262C149.543 141.579 127.311 143.339 127.087 143.358V139.505C128.046 139.425 150.837 137.633 160.982 146.361C166.993 151.53 179.681 170.567 180.218 171.375L177.033 173.493Z" fill="#EAEAEA"/>
<path d="M189.335 136.459L185.882 138.102L196.618 160.674L200.071 159.031L189.335 136.459Z" fill="#EAEAEA"/>
<path d="M127.087 193.15V189.323L163.489 187.786L163.652 191.61L127.087 193.15Z" fill="#EAEAEA"/>
<path d="M192.334 230.41L188.475 230.834L188.596 164.146H192.42L192.334 230.41Z" fill="#EAEAEA"/>
<path d="M190.425 208.588L155.764 209.932L155.912 213.753L190.573 212.409L190.425 208.588Z" fill="#EAEAEA"/>
<path d="M141.791 141.233H137.967V190.697H141.791V141.233Z" fill="#EAEAEA"/>
<path d="M131.195 130.931C128.685 130.931 127.234 130.931 127.087 130.931V127.046C127.429 127.046 161.404 128.289 179.716 118.142C185.086 115.168 188.095 110.418 188.66 104.025C188.917 101.027 188.655 98.0075 187.884 95.0991L191.542 93.981C192.456 97.3598 192.771 100.873 192.471 104.36C191.797 111.989 188.028 117.912 181.569 121.49C173.449 125.988 161.79 128.931 146.905 130.241C140.42 130.812 134.798 130.931 131.195 130.931Z" fill="#EAEAEA"/>
<path d="M160.576 127.171L156.753 127.084L157.52 91.0898L161.522 91.502L160.576 127.171Z" fill="#EAEAEA"/>
<path d="M163.349 150.789L159.618 146.614L211.34 126.449V132.352L163.349 150.789Z" fill="#EAEAEA"/>
<path d="M194.502 90.6428C188.037 91.0293 184.872 95.9076 184.428 102.38C183.984 108.769 190.893 118.127 194.304 122.318C194.528 122.593 194.809 122.816 195.129 122.969C195.448 123.122 195.798 123.203 196.152 123.205C196.507 123.206 196.857 123.13 197.179 122.98C197.5 122.83 197.784 122.61 198.01 122.337C201.319 118.325 207.88 109.587 207.88 103.342C207.88 96.8596 202.536 90.1604 194.502 90.6428ZM195.323 109.862C191.592 109.712 188.81 107.051 188.81 103.313C188.81 99.5751 190.385 96.8979 195.748 95.9811C200.338 95.1984 202.536 99.3802 202.827 103.105C203.175 107.626 200.441 110.079 195.323 109.862Z" fill="#F77F00"/>
<path d="M192.739 134.617L182.527 118.634L186.776 115.884L197.362 132.812L192.739 134.617Z" fill="#EAEAEA"/>
<path d="M170.376 161.686C170.227 161.686 170.08 161.652 169.946 161.585C169.812 161.519 169.696 161.422 169.606 161.302L168.846 160.277C168.712 160.072 168.661 159.824 168.704 159.583C168.746 159.343 168.88 159.127 169.076 158.981C169.273 158.835 169.517 158.77 169.76 158.799C170.003 158.828 170.226 158.949 170.383 159.136L171.143 160.162C171.247 160.304 171.31 160.473 171.324 160.648C171.339 160.824 171.304 161.001 171.225 161.158C171.146 161.316 171.025 161.448 170.875 161.541C170.725 161.634 170.553 161.684 170.376 161.686Z" fill="#F77F00"/>
<path d="M168.131 158.667C167.982 158.667 167.835 158.632 167.702 158.564C167.568 158.497 167.453 158.4 167.364 158.28L165.879 156.281C165.795 156.18 165.733 156.064 165.695 155.939C165.658 155.814 165.647 155.683 165.662 155.553C165.678 155.424 165.719 155.298 165.785 155.186C165.85 155.073 165.938 154.974 166.043 154.897C166.148 154.819 166.267 154.763 166.394 154.733C166.521 154.703 166.653 154.7 166.781 154.722C166.91 154.745 167.032 154.794 167.141 154.866C167.25 154.938 167.343 155.031 167.415 155.14L168.897 157.14C169.002 157.282 169.066 157.451 169.081 157.627C169.096 157.804 169.062 157.981 168.982 158.139C168.903 158.297 168.781 158.43 168.631 158.523C168.481 158.616 168.307 158.666 168.131 158.667ZM165.163 154.67C165.014 154.67 164.867 154.635 164.734 154.568C164.601 154.501 164.485 154.404 164.396 154.284L162.908 152.287C162.824 152.187 162.762 152.071 162.725 151.946C162.688 151.821 162.676 151.689 162.692 151.56C162.707 151.43 162.749 151.305 162.814 151.192C162.88 151.079 162.967 150.981 163.072 150.903C163.177 150.825 163.297 150.77 163.424 150.74C163.551 150.71 163.682 150.706 163.811 150.729C163.939 150.752 164.062 150.801 164.171 150.873C164.28 150.944 164.373 151.038 164.444 151.147L165.927 153.143C166.032 153.286 166.095 153.455 166.11 153.631C166.125 153.807 166.091 153.984 166.012 154.142C165.932 154.3 165.811 154.433 165.66 154.527C165.51 154.62 165.337 154.67 165.16 154.67H165.163Z" fill="#F77F00"/>
<path d="M162.199 150.674C162.049 150.674 161.902 150.639 161.768 150.572C161.634 150.505 161.518 150.408 161.429 150.287L160.669 149.265C160.581 149.147 160.522 149.009 160.496 148.864C160.47 148.719 160.478 148.57 160.519 148.429C160.561 148.287 160.634 148.157 160.733 148.048C160.833 147.939 160.956 147.855 161.094 147.802L162.285 147.345C162.515 147.28 162.762 147.303 162.976 147.41C163.19 147.517 163.357 147.7 163.442 147.924C163.528 148.147 163.527 148.395 163.439 148.618C163.352 148.841 163.184 149.023 162.969 149.128C163.074 149.27 163.137 149.439 163.152 149.615C163.167 149.791 163.133 149.968 163.054 150.127C162.974 150.285 162.853 150.418 162.703 150.511C162.552 150.604 162.379 150.654 162.202 150.655L162.199 150.674Z" fill="#F77F00"/>
<path d="M165.112 148.233C164.89 148.231 164.675 148.151 164.505 148.008C164.335 147.865 164.22 147.667 164.18 147.449C164.14 147.23 164.176 147.005 164.284 146.81C164.392 146.616 164.564 146.465 164.77 146.383L167.255 145.425C167.374 145.371 167.503 145.342 167.634 145.339C167.764 145.337 167.894 145.361 168.015 145.41C168.136 145.46 168.246 145.533 168.337 145.627C168.429 145.72 168.5 145.831 168.547 145.953C168.594 146.075 168.615 146.206 168.61 146.336C168.605 146.467 168.573 146.595 168.516 146.713C168.459 146.83 168.379 146.935 168.281 147.021C168.182 147.107 168.067 147.171 167.942 147.211L165.457 148.169C165.347 148.212 165.23 148.234 165.112 148.233ZM170.086 146.316C169.863 146.314 169.649 146.234 169.479 146.091C169.309 145.948 169.194 145.751 169.154 145.532C169.113 145.314 169.15 145.088 169.258 144.894C169.365 144.699 169.537 144.548 169.744 144.467L172.229 143.508C172.348 143.454 172.477 143.425 172.607 143.422C172.738 143.42 172.868 143.444 172.989 143.493C173.11 143.543 173.219 143.617 173.311 143.71C173.402 143.803 173.473 143.914 173.52 144.036C173.567 144.158 173.589 144.289 173.583 144.419C173.578 144.55 173.546 144.678 173.49 144.796C173.433 144.914 173.353 145.019 173.254 145.104C173.155 145.19 173.04 145.255 172.916 145.294L170.431 146.252C170.32 146.295 170.203 146.316 170.086 146.316ZM175.046 144.4C174.825 144.395 174.613 144.315 174.445 144.172C174.276 144.029 174.162 143.833 174.122 143.616C174.082 143.399 174.118 143.174 174.224 142.981C174.33 142.787 174.5 142.636 174.704 142.553L177.19 141.595C177.422 141.521 177.675 141.539 177.895 141.644C178.115 141.75 178.286 141.936 178.374 142.164C178.461 142.392 178.459 142.645 178.366 142.871C178.274 143.097 178.099 143.279 177.876 143.38L175.391 144.339C175.281 144.38 175.164 144.401 175.046 144.4ZM180.02 142.483C179.798 142.48 179.583 142.401 179.413 142.258C179.243 142.115 179.128 141.917 179.088 141.699C179.047 141.48 179.084 141.254 179.192 141.06C179.299 140.866 179.471 140.715 179.678 140.633L182.163 139.675C182.396 139.601 182.648 139.619 182.868 139.724C183.088 139.83 183.26 140.016 183.347 140.244C183.435 140.472 183.432 140.725 183.34 140.951C183.247 141.177 183.072 141.359 182.85 141.46L180.365 142.419C180.259 142.464 180.147 142.491 180.033 142.499L180.02 142.483ZM184.993 140.566C184.771 140.564 184.557 140.484 184.387 140.341C184.217 140.198 184.102 140 184.061 139.782C184.021 139.563 184.058 139.337 184.165 139.143C184.273 138.949 184.445 138.798 184.651 138.716L187.137 137.758C187.256 137.7 187.386 137.668 187.518 137.663C187.651 137.658 187.782 137.681 187.906 137.73C188.029 137.778 188.141 137.852 188.234 137.946C188.327 138.04 188.4 138.153 188.447 138.276C188.495 138.4 188.516 138.532 188.51 138.664C188.504 138.797 188.471 138.926 188.412 139.045C188.354 139.164 188.271 139.269 188.17 139.355C188.068 139.44 187.95 139.503 187.823 139.54L185.338 140.499C185.233 140.546 185.121 140.575 185.006 140.585L184.993 140.566ZM189.967 138.649C189.745 138.647 189.53 138.567 189.36 138.424C189.19 138.281 189.075 138.083 189.035 137.865C188.994 137.646 189.031 137.421 189.139 137.226C189.246 137.032 189.418 136.881 189.625 136.799L192.11 135.841C192.229 135.787 192.358 135.758 192.488 135.755C192.619 135.753 192.749 135.777 192.87 135.826C192.991 135.876 193.1 135.949 193.192 136.043C193.283 136.136 193.355 136.247 193.401 136.369C193.448 136.491 193.47 136.622 193.465 136.752C193.459 136.883 193.427 137.011 193.371 137.129C193.314 137.246 193.234 137.351 193.135 137.437C193.037 137.523 192.921 137.587 192.797 137.627L190.312 138.585C190.207 138.634 190.095 138.663 189.979 138.671L189.967 138.649Z" fill="#F77F00"/>
<path d="M194.953 136.758C194.731 136.755 194.516 136.676 194.346 136.533C194.176 136.39 194.061 136.192 194.021 135.974C193.98 135.755 194.017 135.529 194.125 135.335C194.233 135.141 194.404 134.99 194.611 134.908L194.71 134.87L194.653 134.78C194.532 134.566 194.497 134.314 194.557 134.076C194.617 133.837 194.766 133.631 194.973 133.499C195.181 133.368 195.431 133.321 195.672 133.368C195.913 133.416 196.127 133.554 196.269 133.755L196.949 134.831C197.025 134.951 197.073 135.086 197.09 135.226C197.108 135.367 197.094 135.509 197.049 135.644C197.005 135.778 196.932 135.901 196.834 136.003C196.737 136.106 196.618 136.186 196.486 136.237L195.298 136.694C195.188 136.736 195.071 136.758 194.953 136.758Z" fill="#F77F00"/>
<path d="M193.924 132.799C193.763 132.799 193.605 132.759 193.463 132.681C193.322 132.603 193.203 132.491 193.116 132.355L191.58 129.931C191.483 129.721 191.466 129.483 191.531 129.261C191.595 129.039 191.738 128.848 191.933 128.723C192.127 128.599 192.36 128.548 192.589 128.582C192.817 128.615 193.026 128.73 193.177 128.905L194.717 131.33C194.852 131.544 194.896 131.804 194.84 132.051C194.785 132.298 194.633 132.513 194.42 132.649C194.271 132.744 194.1 132.796 193.924 132.799ZM190.851 127.95C190.69 127.95 190.532 127.909 190.391 127.831C190.249 127.754 190.13 127.642 190.043 127.506L188.504 125.081C188.426 124.975 188.372 124.854 188.343 124.726C188.314 124.598 188.312 124.466 188.337 124.337C188.361 124.208 188.412 124.086 188.486 123.977C188.56 123.869 188.655 123.777 188.766 123.706C188.877 123.636 189.001 123.59 189.13 123.57C189.26 123.549 189.392 123.556 189.519 123.589C189.646 123.622 189.765 123.681 189.868 123.762C189.972 123.842 190.057 123.943 190.12 124.059L191.656 126.484C191.792 126.698 191.837 126.957 191.782 127.204C191.727 127.451 191.576 127.666 191.363 127.803C191.21 127.899 191.032 127.95 190.851 127.95Z" fill="#F77F00"/>
<path d="M187.775 123.104C187.614 123.104 187.456 123.063 187.314 122.986C187.173 122.908 187.054 122.796 186.967 122.66L186.287 121.583C186.197 121.479 186.131 121.357 186.093 121.226C186.055 121.094 186.045 120.956 186.065 120.82C186.085 120.684 186.134 120.554 186.208 120.439C186.282 120.324 186.38 120.226 186.496 120.152C186.611 120.078 186.741 120.029 186.877 120.01C187.012 119.99 187.151 120 187.282 120.039C187.414 120.077 187.536 120.143 187.64 120.233C187.743 120.322 187.827 120.433 187.884 120.558L188.568 121.634C188.703 121.849 188.747 122.108 188.691 122.355C188.636 122.603 188.484 122.818 188.271 122.954C188.123 123.05 187.951 123.102 187.775 123.104Z" fill="#F77F00"/>
<path d="M183.773 117.883C183.773 117.562 183.868 117.247 184.047 116.98C184.226 116.713 184.48 116.504 184.777 116.381C185.074 116.258 185.401 116.226 185.716 116.289C186.031 116.351 186.321 116.506 186.549 116.734C186.776 116.961 186.931 117.251 186.993 117.566C187.056 117.882 187.024 118.209 186.901 118.506C186.778 118.803 186.57 119.057 186.302 119.235C186.035 119.414 185.72 119.51 185.399 119.51C184.968 119.51 184.554 119.338 184.249 119.033C183.944 118.728 183.773 118.315 183.773 117.883Z" fill="#131F2D"/>
<path d="M170.986 163.219C170.986 162.958 171.063 162.702 171.208 162.484C171.353 162.266 171.559 162.096 171.8 161.995C172.042 161.895 172.308 161.868 172.565 161.919C172.822 161.969 173.057 162.095 173.243 162.28C173.428 162.465 173.554 162.7 173.606 162.957C173.657 163.214 173.631 163.48 173.531 163.722C173.431 163.963 173.261 164.17 173.044 164.316C172.826 164.461 172.57 164.539 172.309 164.539C171.959 164.539 171.623 164.4 171.375 164.152C171.127 163.905 170.987 163.57 170.986 163.219Z" fill="#131F2D"/>
<path d="M351.501 136.464H351.453C350.303 136.46 349.168 136.2 348.131 135.703C347.094 135.205 346.181 134.483 345.458 133.589C339.9 126.771 331.901 116.248 325.359 104.837C317.438 91.0326 313.729 79.5669 314.339 70.7559C315.061 60.2135 318.102 51.3131 323.136 45.0036C328.685 38.0456 336.469 34.2216 346.269 33.637C351.847 33.2675 357.44 34.0819 362.681 36.0266C367.489 37.8367 371.888 40.589 375.618 44.1219C383.751 51.7891 388.606 62.8779 388.606 73.7973C388.606 82.3942 384.687 93.3647 376.956 106.402C370.536 117.229 362.841 127.187 357.513 133.637C356.782 134.523 355.863 135.235 354.824 135.724C353.785 136.213 352.65 136.466 351.501 136.464ZM346.301 34.1641C336.654 34.7423 328.998 38.4993 323.545 45.3455C318.581 51.5687 315.578 60.3605 314.863 70.8071C314.259 79.5094 317.945 90.876 325.813 104.588C332.339 115.957 340.318 126.452 345.867 133.257C346.539 134.093 347.39 134.768 348.358 135.234C349.325 135.699 350.383 135.943 351.457 135.947H351.501C352.572 135.95 353.63 135.715 354.6 135.26C355.569 134.805 356.426 134.14 357.107 133.314C362.423 126.88 370.102 116.945 376.503 106.159C384.169 93.2049 388.082 82.3239 388.082 73.8228C388.082 63.0472 383.291 52.099 375.257 44.5308C371.573 41.043 367.229 38.3275 362.48 36.5441C357.308 34.6259 351.789 33.8225 346.285 34.1865L346.301 34.1641ZM350.757 94.5882C350.135 94.5882 349.496 94.5744 348.84 94.5467C343.049 94.3135 337.785 92.1347 334.025 88.4097C330.192 84.6336 328.106 79.4135 328.106 73.7142C328.106 60.2039 334.904 53.0191 350.147 50.4218C355.344 49.5337 359.889 50.5752 363.659 53.5111C368.674 57.4182 372.06 64.7212 372.711 73.0401C373.226 79.6979 371.667 84.9595 368.073 88.6941C364.333 92.5628 358.369 94.5882 350.757 94.5882ZM353.632 50.6423C352.495 50.6458 351.36 50.7452 350.24 50.9394C342.225 52.3067 336.642 54.9551 333.163 59.0443C330.122 62.6159 328.643 67.4143 328.643 73.7142C328.643 79.273 330.687 84.3589 334.393 88.036C338.06 91.6683 343.196 93.7864 348.86 94.0228C357.225 94.3774 363.735 92.4031 367.683 88.3139C371.168 84.7071 372.679 79.5828 372.178 73.0817C371.539 64.9065 368.227 57.7472 363.327 53.9136C360.563 51.7507 357.144 50.5965 353.635 50.6423H353.632Z" fill="#131F2D"/>
<path d="M351.818 33.902C331.486 35.116 321.526 50.4441 320.134 70.7782C318.741 90.9047 340.465 120.251 351.195 133.413C351.897 134.279 352.782 134.978 353.787 135.46C354.792 135.942 355.891 136.195 357.005 136.2C358.12 136.206 359.221 135.965 360.231 135.493C361.241 135.022 362.133 134.332 362.844 133.474C373.248 120.874 393.877 93.4253 393.877 73.8003C393.877 53.4375 377.072 32.3909 351.818 33.902ZM354.395 94.2814C342.66 93.8086 333.917 85.4481 333.917 73.7109C333.917 61.9736 338.865 53.5525 355.731 50.6773C370.166 48.2174 377.072 61.3475 377.988 73.056C379.087 87.2595 370.491 94.9683 354.395 94.2846V94.2814Z" fill="#F77F00"/>
<path d="M199.847 194.476C200.322 192.768 200.992 191.121 201.843 189.566C201.843 189.566 208.631 189.604 208.96 190.205C209.717 191.582 210.599 194.629 211.33 196.016C211.65 196.62 212.573 198.719 212.014 199.112C211.528 199.453 209.998 198.134 209.347 197.418C208.784 201.869 205.967 208.111 206.472 198.696C206.331 199.655 205.561 204.913 204.367 204.233C203.309 203.632 203.706 199.837 203.916 198.275H203.872C203.52 199.84 202.572 203.603 201.754 202.709C200.725 201.584 201.057 197.415 201.057 197.415C201.057 197.415 200.518 202.734 199.173 201.568C198.256 200.786 199.368 196.54 199.684 195.045C199.717 194.85 199.772 194.659 199.847 194.476Z" fill="#FF7955"/>
<path d="M253.654 166.762C259.404 167.845 270.75 170.065 279.234 164.136C284.025 160.785 287.859 156.111 288.005 155.996L281.735 147.089L284.872 151.546L281.745 147.073C278.477 149.428 273.072 156.616 265.499 154.766C262.058 153.926 258.059 153.405 253.916 147.3L242.985 151.115C246.419 157.97 245.416 165.554 253.654 166.762Z" fill="#00A3FE"/>
<path d="M273.159 157.178C273.159 157.178 276.727 151.904 280.352 150.281C283.978 148.658 286.281 150.003 286.281 150.003L290.171 148.46C290.171 148.46 290.73 163.114 280.614 160.533C279.819 160.335 273.159 157.178 273.159 157.178Z" fill="#FF7955"/>
<path d="M289.59 140.828L285.888 162.069C285.828 162.4 285.703 162.716 285.52 162.998C285.336 163.281 285.098 163.523 284.819 163.712C284.541 163.901 284.227 164.032 283.897 164.097C283.567 164.163 283.228 164.162 282.898 164.095L272.938 162.092C272.298 161.966 271.732 161.595 271.361 161.058C270.991 160.521 270.845 159.86 270.955 159.216L274.618 138.288C274.735 137.632 275.107 137.05 275.652 136.667C276.198 136.284 276.872 136.133 277.528 136.247L287.542 137.94C288.197 138.052 288.78 138.419 289.164 138.96C289.548 139.502 289.701 140.173 289.59 140.828Z" fill="#131F2D"/>
<path d="M288.034 140.566C288.031 140.356 287.964 140.152 287.844 139.979C287.724 139.807 287.555 139.674 287.36 139.597C287.164 139.521 286.95 139.505 286.745 139.55C286.54 139.595 286.353 139.701 286.207 139.853C286.062 140.005 285.965 140.196 285.929 140.403C285.893 140.61 285.919 140.824 286.005 141.016C286.09 141.208 286.23 141.37 286.408 141.482C286.586 141.595 286.793 141.651 287.003 141.646C287.283 141.639 287.548 141.522 287.742 141.319C287.935 141.117 288.04 140.846 288.034 140.566Z" fill="white"/>
<path d="M291.884 148.964C291.884 148.964 293.193 146.112 290.561 144.942C287.21 143.454 281.592 144.789 283.703 145.763C285.575 146.626 288.533 147.217 288.533 147.217C288.533 147.217 280.997 145.815 281.237 147.466C281.477 149.118 287.974 150.239 287.974 150.239C287.974 150.239 280.509 149.559 281.247 151.047C281.984 152.536 287.878 153.587 287.878 153.587C287.878 153.587 280.617 152.533 281.515 154.242C282.413 155.951 286.278 155.74 287.935 156.022C289.501 156.29 290.171 155.383 290.334 153.852C290.334 153.852 291.369 152.428 291.216 151.412C291.155 151.022 291.574 150.715 291.654 150.453C291.768 149.963 291.844 149.466 291.884 148.964Z" fill="#FF7955"/>
<path d="M215.042 189.997C215.08 191.53 224.439 192.141 236.018 191.783C247.598 191.425 256.848 189.837 256.807 188.301C256.765 186.764 247.454 185.86 235.875 186.221C224.295 186.582 215 188.46 215.042 189.997Z" fill="#131F2D"/>
<path d="M217.875 146.498C217.875 146.498 219.923 138.444 235.025 138.361C256.81 138.243 254.791 158.111 256.807 188.301C256.807 188.301 243.602 182.828 215.042 189.997C215.042 189.997 213.145 158.801 217.875 146.498Z" fill="#00A3FE"/>
<path d="M212.298 145.358L222.165 150.789C222.165 150.789 244.237 155.622 249.955 154.683C255.673 153.744 256.82 151.393 256.82 151.393C256.82 151.393 250.712 140.381 240.331 138.707C239.355 138.547 238.344 138.432 237.296 138.362C235.547 138.243 233.791 138.278 232.048 138.467C218.878 139.927 212.298 145.358 212.298 145.358Z" fill="#00A3FE"/>
<path d="M232.949 136.518L234.089 132.867L234.409 131.803L236.376 125.551L236.635 131.771L236.788 135.502L236.836 136.684C236.868 137.486 237.36 137.643 237.961 138.352C238.203 138.636 239.759 140.349 237.993 141.122C235.798 142.08 231.687 140.626 230.125 138.713C230.135 138.71 232.581 137.691 232.949 136.518Z" fill="#FF7955"/>
<path d="M209.385 192.639C210.292 182.717 212.378 168.529 217.144 157.293C218.249 154.69 218.709 153.712 219.571 152.291C220.265 151.147 219.025 148.633 217.064 147.431C215.227 146.307 212.365 146.492 211.912 147.048C211.142 148.007 210.314 149.811 209.037 152.693C204.594 162.705 201.933 175.637 200.853 192.307L209.385 192.639Z" fill="#FF7955"/>
<path d="M241.395 123.203C241.636 124.327 241.636 125.49 241.395 126.615C240.999 128.512 239.053 123.848 239.053 123.848L241.395 123.203Z" fill="#131F2D"/>
<path d="M236.989 134.512C240.051 134.092 242.126 130.781 241.624 127.115C241.122 123.449 238.233 120.818 235.171 121.237C232.108 121.657 230.033 124.969 230.535 128.634C231.037 132.3 233.927 134.931 236.989 134.512Z" fill="#FF7955"/>
<path d="M236.376 127.605C236.391 127.596 236.403 127.583 236.413 127.568C236.422 127.553 236.428 127.536 236.431 127.519C236.432 127.504 236.43 127.489 236.425 127.475C236.421 127.46 236.413 127.447 236.404 127.436C236.394 127.425 236.382 127.415 236.368 127.409C236.355 127.402 236.34 127.398 236.325 127.398C236.056 127.359 235.783 127.411 235.546 127.544C235.31 127.678 235.124 127.886 235.019 128.136C235.012 128.149 235.007 128.163 235.006 128.178C235.005 128.193 235.007 128.208 235.012 128.222C235.016 128.236 235.024 128.249 235.034 128.26C235.044 128.271 235.056 128.28 235.07 128.286C235.096 128.297 235.126 128.298 235.154 128.289C235.181 128.281 235.205 128.262 235.22 128.238C235.504 127.919 235.886 127.702 236.306 127.621C236.331 127.624 236.355 127.619 236.376 127.605Z" fill="#080435"/>
<path d="M235.878 129.065C235.949 129.324 236.163 129.493 236.351 129.442C236.452 129.393 236.53 129.308 236.57 129.203C236.61 129.099 236.608 128.983 236.565 128.88C236.495 128.621 236.284 128.452 236.092 128.503C235.991 128.551 235.913 128.637 235.873 128.741C235.834 128.846 235.835 128.962 235.878 129.065Z" fill="#080435"/>
<path d="M240.567 127.269C240.582 127.267 240.596 127.26 240.607 127.25C240.618 127.239 240.627 127.226 240.631 127.212C240.64 127.185 240.641 127.157 240.633 127.13C240.625 127.103 240.609 127.079 240.586 127.062C240.503 126.991 240.407 126.938 240.302 126.907C240.198 126.875 240.088 126.865 239.98 126.877C239.872 126.889 239.767 126.924 239.672 126.978C239.578 127.032 239.495 127.105 239.43 127.193C239.413 127.215 239.403 127.243 239.403 127.271C239.403 127.299 239.413 127.327 239.43 127.349C239.437 127.359 239.445 127.368 239.455 127.374C239.466 127.38 239.477 127.384 239.489 127.386C239.501 127.387 239.513 127.386 239.524 127.383C239.535 127.379 239.546 127.373 239.555 127.365C239.698 127.281 239.857 127.229 240.022 127.21C240.187 127.191 240.354 127.207 240.513 127.257C240.529 127.268 240.548 127.272 240.567 127.269Z" fill="#080435"/>
<path d="M239.532 128.426C239.5 128.695 239.631 128.931 239.826 128.953C240.021 128.976 240.206 128.781 240.241 128.516C240.276 128.251 240.142 128.014 239.947 127.989C239.753 127.963 239.57 128.158 239.532 128.426Z" fill="#080435"/>
<path d="M226.793 126.867C226.793 126.867 228.665 130.876 231.317 131.17C231.317 131.17 229.173 128.116 233.696 126.254C233.699 126.254 229.547 125.605 226.793 126.867Z" fill="#131F2D"/>
<path d="M230.537 129.081C230.786 129.252 231.091 129.32 231.389 129.271C231.687 129.221 231.954 129.058 232.134 128.816C232.208 128.684 232.255 128.54 232.272 128.39C232.29 128.24 232.277 128.089 232.236 127.944C232.195 127.799 232.125 127.664 232.032 127.546C231.938 127.428 231.822 127.33 231.69 127.257C231.442 127.086 231.137 127.018 230.839 127.067C230.541 127.116 230.274 127.277 230.093 127.519C230.019 127.65 229.973 127.795 229.955 127.945C229.938 128.095 229.95 128.247 229.991 128.392C230.032 128.537 230.102 128.673 230.195 128.791C230.289 128.909 230.405 129.008 230.537 129.081Z" fill="#FF7955"/>
<path d="M233.7 126.254C233.7 126.254 233.336 129.618 234.019 130.254C234.703 130.889 239.264 131.164 241.388 130.346C241.41 131.398 241.055 132.423 240.386 133.235C239.717 134.047 238.78 134.593 237.744 134.774C237.024 134.897 236.288 134.897 235.568 134.774C234.083 134.515 232.636 133.905 232.023 132.538C231.834 132.123 232.377 129.557 232.377 129.557C232.377 129.557 232.582 128.053 231.7 127.27C231.707 127.257 232.726 126.35 233.7 126.254Z" fill="#131F2D"/>
<path d="M233.699 126.254C233.699 126.254 233.323 123.902 235.182 123.733C237.041 123.564 239.159 123.257 239.887 123.733C240.615 124.209 241.484 126.087 241.484 126.087C241.484 126.087 242.503 122.573 240.634 121.053C238.766 119.532 232.818 117.564 229.029 120.187C225.241 122.81 226.793 126.867 226.793 126.867C226.793 126.867 229.512 126.046 233.699 126.254Z" fill="#131F2D"/>
<path d="M231.122 120.187C231.122 120.187 228.32 117.89 228.956 116.194C229.592 114.497 232.553 115.034 233.7 115.299C234.846 115.564 235.038 117.593 234.118 118.906C233.198 120.219 231.122 120.187 231.122 120.187Z" fill="#131F2D"/>
<path d="M235.434 264.028C236.087 263.991 236.738 264.137 237.312 264.449C237.886 264.762 238.362 265.229 238.686 265.797C238.996 266.384 239.496 266.848 240.104 267.114C242.126 267.951 247.984 268.711 245.796 270.628C244.541 271.723 238.619 271.014 236.948 271.014C235.278 271.014 233.709 271.736 232.476 270.628C231.732 269.963 231.799 267.858 232.013 266.078C232.085 265.457 232.401 264.891 232.891 264.502C233.381 264.114 234.005 263.936 234.626 264.008C234.822 264.032 235.019 264.042 235.217 264.04L235.434 264.028Z" fill="#131F2D"/>
<path d="M214.79 263.325C214.79 263.325 214.863 266.289 216.885 267.126C218.907 267.963 224.765 268.724 222.577 270.641C221.322 271.733 215.4 271.027 213.729 271.027C212.058 271.027 210.49 271.749 209.257 270.641C207.89 269.417 209.257 263.341 209.257 263.341C209.257 263.341 210.701 264.085 211.998 264.053C213.857 263.989 214.79 263.325 214.79 263.325Z" fill="#131F2D"/>
<path d="M250.54 188.723C250.982 188.768 251.396 188.962 251.714 189.273C252.031 189.584 252.235 189.994 252.29 190.435C252.51 192.24 252.546 196.054 251.456 203.968C249.859 215.59 243.79 258.012 242.793 263.667C242.433 265.689 242.02 266.935 239.069 267.36L235.146 267.283C231.952 267.743 230.722 264.341 230.7 262.171L233.255 196.824L223.034 189.093C228.442 188.468 233.881 188.148 239.324 188.135C243.07 188.142 246.813 188.338 250.54 188.723Z" fill="#657285"/>
<path d="M240.934 190.892L218.434 262.628C217.986 264.083 217.091 265.36 215.877 266.277C214.663 267.195 213.19 267.706 211.669 267.74L210.314 267.762C209.559 267.766 208.813 267.604 208.128 267.285C207.444 266.967 206.838 266.5 206.356 265.92C205.873 265.34 205.524 264.66 205.336 263.929C205.147 263.198 205.122 262.434 205.264 261.692L217.572 194.284C217.75 193.483 218.21 189.943 218.987 189.719C223.206 188.521 241.35 187.927 240.934 190.892Z" fill="#657285"/>
<path d="M230.879 222.956L230.521 222.838L235.361 208.239C236.46 204.883 238.766 202.056 241.832 200.306L242.021 200.626C239.036 202.327 236.79 205.076 235.719 208.341L230.879 222.956Z" fill="#020202"/>
<path d="M225.314 140.186C225.314 140.186 222.967 138.036 225.79 137.275C226.905 136.975 228.569 134.24 230.122 134.474C231.674 134.707 232.591 143.387 238.823 146.07C238.823 146.07 240.356 147.396 237.865 147.348C235.373 147.3 225.314 140.186 225.314 140.186Z" fill="#657285"/>
<path d="M238.823 146.07C238.823 146.07 241.941 143.026 241.395 140.186C240.848 137.345 242.436 134.918 243.209 136.202C243.982 137.486 244.876 136.687 245.052 138.294C245.228 139.901 242.816 147.811 240.638 147.811C238.459 147.811 238.823 146.07 238.823 146.07Z" fill="#657285"/>
<path d="M238.117 146.671C238.117 146.671 236.102 147.569 236.84 149.699C237.577 151.83 236.542 152.69 236.542 152.69C236.542 152.69 238.983 152.805 239.28 150.524C239.358 149.836 239.296 149.14 239.096 148.477C238.896 147.815 238.563 147.2 238.117 146.671Z" fill="#657285"/>
<path d="M239.251 146.671C239.251 146.671 241.807 147.533 241.922 149.188C242.037 150.843 240.564 151.233 240.05 150.249C239.535 149.265 238.453 147.342 238.453 147.342L239.251 146.671Z" fill="#657285"/>
<path d="M232.029 132.525C232.029 132.525 232.045 134.838 233.699 136.138C235.354 137.438 234.258 138.569 235.712 140.412C237.165 142.256 235.434 142.297 238.012 143.639C240.589 144.981 242.528 143.764 242.02 141.722C241.513 139.681 243.752 140.214 242.698 137.617C241.644 135.02 240.874 136.611 241.765 133.847C242.656 131.084 241.394 130.343 241.394 130.343C241.394 130.343 239.973 130.442 238.823 130.646C237.673 130.851 236.638 130.49 235.836 130.745C235.035 131.001 232.029 132.525 232.029 132.525Z" fill="#131F2D"/>
<path d="M240.274 131.56C239.08 131.849 237.847 131.946 236.623 131.848C236.623 131.848 236.9 133.598 238.83 133.25C239.954 133.046 240.274 131.56 240.274 131.56Z" fill="white"/>
<path d="M200.856 188.738C200.856 188.738 206.736 189.377 209.8 188.738C209.8 188.738 210.196 190.291 209.557 191C209.557 191 202.53 191.53 200.872 191C200.856 191 199.642 189.834 200.856 188.738Z" fill="#131F2D"/>
<path d="M204.676 187.684H204.571C203.408 187.684 202.466 188.627 202.466 189.789V190.182C202.466 191.345 203.408 192.288 204.571 192.288H204.676C205.839 192.288 206.781 191.345 206.781 190.182V189.789C206.781 188.627 205.839 187.684 204.676 187.684Z" fill="#131F2D"/>
<path d="M212.298 145.358C212.298 145.358 207.315 148.284 202.466 167.513C197.617 186.742 201.259 187.09 201.259 187.09C201.259 187.09 207.8 187.218 209.906 186.47C212.011 185.723 213.135 168.497 217.329 161.488C221.523 154.479 223.028 143.735 212.298 145.358Z" fill="#00A3FE"/>
<path d="M239.328 159.111C239.326 158.963 239.368 158.818 239.449 158.694C239.529 158.571 239.645 158.474 239.781 158.416C239.917 158.358 240.067 158.342 240.212 158.37C240.357 158.398 240.491 158.469 240.596 158.573C240.701 158.677 240.772 158.81 240.802 158.954C240.831 159.099 240.816 159.25 240.76 159.386C240.703 159.523 240.607 159.639 240.484 159.721C240.361 159.803 240.217 159.846 240.069 159.846C239.972 159.846 239.876 159.827 239.786 159.791C239.696 159.754 239.615 159.7 239.546 159.632C239.477 159.564 239.423 159.482 239.385 159.393C239.348 159.304 239.328 159.208 239.328 159.111Z" fill="#131F2D"/>
<path d="M239.328 168.091C239.326 167.943 239.369 167.799 239.45 167.675C239.531 167.552 239.647 167.456 239.783 167.399C239.919 167.341 240.069 167.326 240.214 167.354C240.359 167.382 240.492 167.453 240.597 167.557C240.702 167.661 240.773 167.794 240.802 167.939C240.831 168.084 240.816 168.234 240.759 168.37C240.703 168.507 240.607 168.623 240.484 168.705C240.361 168.786 240.216 168.83 240.069 168.829C239.873 168.829 239.685 168.751 239.546 168.613C239.407 168.475 239.329 168.287 239.328 168.091Z" fill="#131F2D"/>
<path d="M239.328 178.736C239.326 178.588 239.369 178.444 239.45 178.32C239.531 178.197 239.647 178.101 239.783 178.044C239.919 177.986 240.069 177.971 240.214 177.999C240.359 178.027 240.492 178.098 240.597 178.202C240.702 178.306 240.773 178.439 240.802 178.584C240.831 178.729 240.816 178.879 240.759 179.015C240.703 179.152 240.607 179.268 240.484 179.35C240.361 179.431 240.216 179.475 240.069 179.474C239.972 179.474 239.875 179.456 239.785 179.419C239.695 179.382 239.614 179.328 239.545 179.259C239.476 179.19 239.421 179.109 239.384 179.019C239.347 178.93 239.328 178.833 239.328 178.736Z" fill="#131F2D"/>
<path d="M214.847 168.388L214.479 168.299C215.472 164.31 216.778 160.405 218.386 156.622L218.731 156.775C217.131 160.537 215.832 164.42 214.847 168.388Z" fill="#131F2D"/>
<path d="M255.402 167.366C254.986 160.676 251.635 152.083 251.604 151.996L251.955 151.859C251.99 151.945 255.36 160.593 255.788 167.34L255.402 167.366Z" fill="#131F2D"/>
<path d="M372.689 211.28C372.689 211.28 439.97 95.2623 477.043 115.101C514.116 134.94 411.298 182.637 392.995 217.043L372.689 211.28Z" fill="#9DE368"/>
<path d="M384.019 214.606C396.227 190.611 417.635 168.944 433.447 154.993C450.588 139.866 465.013 130.305 465.157 130.209L464.562 129.311C464.419 129.407 449.93 139.01 432.735 154.185C416.856 168.2 395.362 189.965 383.061 214.117L384.019 214.606Z" fill="white"/>
<path d="M506.331 205.526C490.305 209.184 493.235 233.48 474.887 229.167C459.356 225.512 458.037 224.1 452.728 228.621C450.915 230.179 449.333 231.987 448.029 233.991C446.451 236.384 443.394 239.917 438.702 240.796C410.024 246.156 370.268 204.101 399.981 180.349C402.127 178.633 405.271 177.947 408.752 177.362C427.643 174.199 433.636 182.818 448.291 160.354C462.946 137.889 483.543 169.634 496.205 168.369C508.867 167.104 520.025 163.171 530.065 176.509C540.104 189.847 522.363 201.881 506.331 205.526Z" fill="#13BA38"/>
<g opacity="0.5">
<path d="M409.481 211.168L408.867 210.28C409.26 210.009 449.093 183.176 532.393 180.308L532.431 181.391C449.434 184.243 409.87 210.897 409.481 211.168Z" fill="white"/>
<path d="M484.907 187.936C483.588 186.856 482.872 186.15 482.84 186.119L483.604 185.355C483.754 185.505 498.824 200.309 520.814 199.412L520.859 200.491C503.137 201.213 489.823 191.962 484.907 187.936Z" fill="white"/>
<path d="M495.988 212.823C490.906 207.277 489.411 201.693 489.053 197.987C488.663 193.955 489.478 191.278 489.51 191.147L490.545 191.466C490.513 191.572 487.482 201.935 496.786 212.091L495.988 212.823Z" fill="white"/>
</g>
<path d="M467.383 93.1407C470.645 90.4092 472.494 90.6329 473.555 91.9107C474.615 93.1886 474.513 95.0383 471.261 97.7698C465.32 102.747 460.509 102.837 460.509 102.837C460.509 102.837 461.356 98.1883 467.383 93.1407Z" fill="#D5D6DA"/>
<g opacity="0.6">
<path d="M499.904 147.913C504.424 147.827 505.798 149.239 505.833 151.009C505.868 152.779 504.555 154.245 500.026 154.332C491.788 154.488 487.744 151.354 487.744 151.354C487.744 151.354 491.542 148.073 499.904 147.913Z" fill="#D5D6DA"/>
</g>
<path d="M437.913 259.935C437.913 259.935 426.04 260.305 424.58 257.651C419.198 247.885 424.791 225.241 431.144 219.573C437.498 213.906 442.197 223.794 442.197 223.794L437.913 259.935Z" fill="#131F2D"/>
<path d="M443.701 227.19C443.701 227.19 441.529 219.203 436.705 221.707C431.882 224.212 432.125 259.788 437.913 259.935C443.701 260.082 446.112 238.403 443.701 227.19Z" fill="#364154"/>
<path d="M442.088 230.199C442.088 230.199 440.769 224.017 437.836 225.95C434.904 227.883 435.061 255.472 438.574 255.574C442.088 255.676 443.548 238.892 442.088 230.199Z" fill="#B8C1C9"/>
<path d="M391.938 270.883C391.938 270.883 376.059 271.944 374.42 268.519C369.217 257.657 364.061 228.068 382.371 218.471C398.214 210.165 402.514 231.19 402.514 231.19L391.938 270.883Z" fill="#131F2D"/>
<path d="M399.62 230.502C399.62 230.502 396.745 220.669 390.356 223.739C383.968 226.809 384.287 270.701 391.954 270.883C399.62 271.065 402.82 244.329 399.62 230.502Z" fill="#364154"/>
<path d="M397.47 234.212C397.47 234.212 395.72 226.589 391.829 228.972C387.938 231.355 388.136 265.392 392.787 265.519C397.438 265.647 399.415 244.933 397.47 234.212Z" fill="#B8C1C9"/>
<path d="M391.915 265.114L391.711 264.74C393.468 263.782 394.905 259.207 395.573 252.492C396.196 246.153 396.03 239.163 395.135 234.25L395.554 234.173C397.31 243.856 396.177 262.798 391.915 265.114Z" fill="#131F2D"/>
<path d="M295.174 232.509C294.695 231.211 294.022 229.993 293.177 228.899C293.177 228.899 286.942 218.391 278.512 224.426C270.083 230.461 273.069 262.602 274.884 265.478C276.698 268.353 287.485 267.311 287.485 267.311C295.174 267.465 298.374 244.425 295.174 232.509Z" fill="#131F2D"/>
<path d="M290.337 185.981C290.337 185.981 264.167 196.831 266.403 221.711C266.403 221.711 263.972 222.084 263.036 226.947C262.1 231.809 266.965 254.625 270.517 255.185C274.069 255.744 376.356 258.74 378.972 257.242C381.588 255.744 384.211 252.194 384.022 243.591C383.834 234.988 386.197 217.075 393.746 217.826C400.198 218.465 401.731 239.793 400.198 253.223C399.431 259.884 408.893 250.511 417.128 249.763C425.362 249.016 430.748 250.255 431.125 245.578C431.502 240.901 430.298 220.941 437.418 220.631C444.142 220.337 444.637 234.116 444.637 234.116C445.384 233.18 446.298 222.548 444.241 217.823C442.184 213.098 445.177 193.84 440.315 191.035C435.453 188.23 439.005 159.242 411.142 153.632C383.278 148.022 326.615 150.15 315.594 156.277C304.574 162.405 290.337 185.981 290.337 185.981Z" fill="#00A3FE"/>
<path d="M337.05 218.034H297.824C296.979 218.036 296.142 217.871 295.361 217.547C294.58 217.224 293.872 216.748 293.276 216.149L292.477 215.35C291.921 214.791 291.258 214.347 290.529 214.045C289.8 213.743 289.018 213.588 288.229 213.59H284.629V213.165H288.229C289.074 213.163 289.911 213.328 290.692 213.652C291.473 213.975 292.182 214.45 292.778 215.05L293.576 215.849C294.133 216.408 294.795 216.852 295.524 217.154C296.253 217.456 297.035 217.611 297.824 217.609H337.05C338.055 217.606 339.044 217.351 339.925 216.868L345.231 213.957C346.18 213.438 347.244 213.166 348.326 213.165H353.606V213.59H348.348C347.343 213.593 346.355 213.848 345.473 214.331L340.145 217.238C339.196 217.758 338.132 218.032 337.05 218.034Z" fill="#131F2D"/>
<path d="M392.487 155.667C392.905 155.707 393.31 155.835 393.675 156.042C394.041 156.249 394.359 156.53 394.608 156.868C394.858 157.206 395.034 157.592 395.125 158.002C395.215 158.412 395.219 158.837 395.135 159.248C394.223 163.68 393.696 168.182 393.56 172.704C393.372 181.308 397.86 186.544 383.658 187.48C369.456 188.416 291.871 188.758 292.433 186.135C292.995 183.512 312.601 158.552 318.211 156.808C323.184 155.261 378.116 154.344 392.487 155.667Z" fill="#131F2D"/>
<path d="M279.553 243.834C279.553 246.313 277.733 248.945 274.912 248.945C272.092 248.945 270.268 246.313 270.268 243.834C270.268 241.355 272.555 239.042 275.378 239.042C278.202 239.042 279.553 241.355 279.553 243.834Z" fill="#131F2D"/>
<path d="M369.22 243.834C369.22 246.313 367.399 248.945 364.576 248.945C361.752 248.945 359.931 246.313 359.931 243.834C359.931 241.355 362.221 239.042 365.042 239.042C367.863 239.042 369.22 241.355 369.22 243.834Z" fill="#131F2D"/>
<path d="M263.036 226.94C263.036 226.94 262.537 230.867 270.268 231.895C277.998 232.924 284.728 231.055 286.597 237.413C288.465 243.77 284.728 249.757 297.071 251.437C309.413 253.118 340.963 254.993 342.749 249.942C344.535 244.891 340.81 236.477 348.665 234.981C356.519 233.486 374.471 235.355 378.771 232.924C383.07 230.493 383.259 227.493 380.639 225.442C378.02 223.391 280.413 223.573 274.909 223.573C269.405 223.573 263.036 223.011 263.036 226.94Z" fill="#131F2D"/>
<path d="M297.745 230.844L335.53 230.557C335.828 230.554 336.122 230.619 336.392 230.747C336.661 230.874 336.898 231.061 337.085 231.293C337.272 231.525 337.404 231.796 337.472 232.086C337.539 232.376 337.54 232.678 337.475 232.969L336.613 236.802C336.516 237.239 336.273 237.63 335.925 237.911C335.577 238.192 335.143 238.346 334.696 238.349H298.693C298.256 238.349 297.83 238.205 297.483 237.938C297.136 237.671 296.888 237.296 296.777 236.873L295.844 233.323C295.768 233.032 295.759 232.727 295.818 232.431C295.878 232.136 296.004 231.858 296.187 231.618C296.371 231.379 296.606 231.185 296.876 231.051C297.146 230.917 297.443 230.846 297.745 230.844Z" fill="white"/>
<path d="M423.12 198.415C423.577 200.057 423.043 201.642 421.922 201.951C420.801 202.261 419.527 201.188 419.067 199.546C418.607 197.904 419.146 196.319 420.264 196.006C421.382 195.693 422.663 196.773 423.12 198.415Z" fill="#131F2D"/>
<path d="M438.801 196.645C439.261 198.287 438.724 199.872 437.606 200.182C436.488 200.492 435.207 199.418 434.75 197.776C434.294 196.134 434.827 194.55 435.945 194.24C437.063 193.93 438.344 195.003 438.801 196.645Z" fill="#131F2D"/>
<path d="M432.917 185.358C432.917 185.358 433.016 171.021 424.912 165.162C416.808 159.303 405.108 156.683 402.846 158.427C400.585 160.172 400.23 183.116 402.207 185.358C404.185 187.601 430.822 187.604 432.917 185.358Z" fill="#131F2D"/>
<path d="M407.957 191.499C407.957 191.499 404.312 188.039 406.181 182.234C408.05 176.429 422.449 180.365 423.944 183.263C425.439 186.16 419.552 191.118 415.639 191.962C411.726 192.805 412.554 199.91 409.57 199.533C406.587 199.156 404.201 197.102 405.67 195.796C407.139 194.489 409.826 192.62 407.957 191.499Z" fill="#364154"/>
<path d="M387.785 169.903C387.785 169.903 390.165 160.977 388.842 159.434C387.52 157.891 375.966 156.897 375.966 158.456C375.966 160.015 380.518 160.878 381.716 163.801C382.914 166.724 387.121 172.759 387.785 169.903Z" fill="#364154"/>
<path d="M369.747 205.897L369.354 205.731C370.331 203.415 372.797 200.262 376.701 196.364C379.576 193.47 382.227 191.224 382.252 191.198L382.527 191.518C382.406 191.614 372.028 200.479 369.747 205.897Z" fill="#131F2D"/>
<path d="M276.493 204.108C276.483 204.111 276.472 204.111 276.461 204.108C276.449 204.104 276.437 204.098 276.428 204.089C276.418 204.081 276.41 204.07 276.404 204.059C276.399 204.047 276.395 204.034 276.395 204.021C276.394 204.009 276.396 203.996 276.4 203.983C278.803 197.339 290.056 189.454 290.168 189.374C290.179 189.367 290.191 189.361 290.203 189.358C290.216 189.356 290.229 189.355 290.242 189.357C290.255 189.36 290.268 189.364 290.279 189.371C290.29 189.378 290.299 189.387 290.307 189.398C290.314 189.409 290.32 189.421 290.323 189.434C290.325 189.446 290.326 189.46 290.324 189.473C290.321 189.486 290.317 189.498 290.31 189.509C290.303 189.52 290.294 189.53 290.283 189.537C288.214 191.015 286.227 192.605 284.332 194.3C281.483 196.856 277.828 200.613 276.586 204.051C276.578 204.068 276.565 204.084 276.548 204.094C276.532 204.104 276.513 204.109 276.493 204.108Z" fill="#131F2D"/>
<path d="M284.036 214.418C288.719 210.63 290.507 205.076 288.029 202.013C285.551 198.95 279.747 199.537 275.064 203.326C270.382 207.114 268.594 212.668 271.072 215.731C273.549 218.794 279.354 218.207 284.036 214.418Z" fill="#E3EEEC"/>
<path d="M277.519 217.238C275.414 217.238 273.734 216.449 272.791 215.021C271.743 213.424 271.718 211.188 272.711 208.859C274.669 204.284 279.985 200.552 284.565 200.552C285.256 200.547 285.944 200.643 286.606 200.837C286.629 200.846 286.647 200.864 286.658 200.886C286.668 200.908 286.67 200.934 286.663 200.957C286.656 200.981 286.64 201 286.619 201.013C286.598 201.026 286.573 201.03 286.549 201.025C285.905 200.837 285.236 200.745 284.565 200.751C280.058 200.751 274.823 204.421 272.897 208.932C271.938 211.197 271.938 213.376 272.957 214.903C273.861 216.277 275.484 217.034 277.519 217.034C278.449 217.026 279.374 216.886 280.266 216.619C280.291 216.613 280.318 216.616 280.34 216.63C280.363 216.643 280.38 216.664 280.387 216.689C280.394 216.714 280.391 216.74 280.378 216.763C280.366 216.786 280.345 216.803 280.32 216.81C279.411 217.084 278.468 217.228 277.519 217.238Z" fill="#131F2D"/>
<path d="M366.626 214.411C371.308 210.623 373.096 205.068 370.618 202.005C368.141 198.942 362.336 199.53 357.654 203.318C352.971 207.107 351.184 212.661 353.661 215.724C356.139 218.787 361.943 218.199 366.626 214.411Z" fill="#E3EEEC"/>
<path d="M360.11 217.238C358.005 217.238 356.325 216.449 355.382 215.021C354.335 213.424 354.306 211.188 355.302 208.859C357.261 204.284 362.576 200.552 367.156 200.552C367.846 200.547 368.533 200.643 369.194 200.837C369.207 200.84 369.219 200.846 369.229 200.854C369.239 200.862 369.248 200.872 369.254 200.883C369.26 200.894 369.264 200.907 369.265 200.92C369.267 200.933 369.265 200.946 369.261 200.958C369.258 200.971 369.252 200.983 369.243 200.993C369.235 201.003 369.225 201.012 369.213 201.018C369.202 201.024 369.189 201.028 369.176 201.029C369.163 201.031 369.149 201.029 369.137 201.025C368.494 200.837 367.826 200.745 367.156 200.751C362.649 200.751 357.414 204.421 355.484 208.932C354.526 211.197 354.526 213.376 355.548 214.903C356.452 216.277 358.072 217.034 360.11 217.034C361.039 217.026 361.963 216.886 362.854 216.619C362.879 216.612 362.907 216.615 362.93 216.628C362.954 216.641 362.971 216.663 362.978 216.689C362.985 216.714 362.982 216.741 362.97 216.763C362.957 216.786 362.936 216.803 362.911 216.81C362.002 217.083 361.059 217.227 360.11 217.238Z" fill="#131F2D"/>
<path d="M428.065 227.662C428.039 227.658 428.016 227.644 428 227.623C427.985 227.603 427.978 227.576 427.982 227.551C428.314 225.181 429.213 222.927 430.603 220.98C431.994 219.033 433.834 217.451 435.968 216.369C436.546 216.067 437.031 215.613 437.369 215.054C437.707 214.496 437.885 213.856 437.884 213.203V205.823C437.888 205.8 437.901 205.778 437.919 205.763C437.938 205.748 437.961 205.739 437.985 205.739C438.009 205.739 438.032 205.748 438.05 205.763C438.069 205.778 438.081 205.8 438.085 205.823V213.203C438.084 213.893 437.893 214.57 437.534 215.159C437.175 215.749 436.661 216.228 436.047 216.545C433.941 217.613 432.124 219.175 430.752 221.097C429.38 223.02 428.493 225.246 428.167 227.586C428.161 227.608 428.148 227.627 428.129 227.641C428.111 227.655 428.088 227.662 428.065 227.662Z" fill="#131F2D"/>
<path d="M428.065 205.913C428.039 205.909 428.015 205.895 427.999 205.874C427.983 205.854 427.976 205.827 427.978 205.801C428.815 199.169 425.742 188.47 425.701 188.361C425.694 188.336 425.697 188.31 425.71 188.287C425.722 188.264 425.743 188.247 425.768 188.24C425.793 188.233 425.821 188.236 425.844 188.249C425.867 188.261 425.884 188.282 425.893 188.307C425.924 188.416 429.02 199.153 428.176 205.827C428.172 205.853 428.159 205.876 428.138 205.892C428.117 205.908 428.091 205.916 428.065 205.913Z" fill="#131F2D"/>
<path d="M317.425 213.04C317.425 213.705 316.316 214.245 314.946 214.245C313.576 214.245 312.467 213.705 312.467 213.04C312.467 212.376 313.576 211.836 314.946 211.836C316.316 211.836 317.425 212.373 317.425 213.04Z" fill="#E3EEEC"/>
<path d="M297.483 285.128C297.483 285.128 291.155 278.617 293.33 274.905C295.505 271.193 299.182 282.869 299.182 282.869C299.182 282.869 297.266 269.065 301.223 268.813C305.181 268.56 301.223 282.869 301.223 282.869C301.223 282.869 302.686 279.537 304.117 279.333C305.548 279.128 305.136 282.157 302.584 285.122L297.483 285.128Z" fill="#EAEAEA"/>
<path d="M297.936 285.285C296.702 283.972 295.593 282.546 294.624 281.026C292.602 277.8 292.123 275.241 293.193 273.414C293.592 272.733 294.074 272.42 294.621 272.484C295.729 272.608 296.978 274.298 298.435 277.65C298.872 278.656 299.259 279.659 299.562 280.49C299.214 276.87 298.808 269.663 300.789 267.248C300.972 267.006 301.204 266.805 301.471 266.66C301.738 266.515 302.032 266.429 302.335 266.408C302.605 266.383 302.877 266.427 303.126 266.535C303.375 266.643 303.593 266.813 303.759 267.027C305.542 269.232 303.938 277.062 303.057 280.729C303.715 279.656 304.654 278.464 305.612 278.327C305.809 278.285 306.013 278.308 306.195 278.393C306.377 278.478 306.527 278.619 306.622 278.797C307.203 279.857 306.411 282.569 304.085 285.275L303.731 284.956C306.021 282.295 306.644 279.79 306.213 279.004C306.164 278.91 306.084 278.836 305.987 278.793C305.89 278.751 305.781 278.743 305.679 278.771C304.453 278.947 303.025 281.627 302.578 282.646L302.14 282.49C302.14 282.458 303.015 279.295 303.597 275.857C304.357 271.347 304.293 268.388 303.414 267.305C303.295 267.148 303.137 267.024 302.956 266.946C302.774 266.867 302.576 266.836 302.38 266.855C302.141 266.872 301.909 266.941 301.699 267.057C301.489 267.173 301.307 267.333 301.166 267.526C298.665 270.589 300.262 282.41 300.262 282.541L299.811 282.643C298.984 280.02 296.432 273.161 294.57 272.95C294.215 272.912 293.896 273.142 293.611 273.656C291.257 277.662 298.214 284.895 298.284 284.965L297.936 285.285Z" fill="#364154"/>
<path d="M188.964 280.244C188.964 280.244 184.581 275.736 186.089 273.167C187.597 270.599 190.143 278.685 190.143 278.685C190.143 278.685 188.823 269.126 191.555 268.96C194.286 268.794 191.555 278.685 191.555 278.685C191.555 278.685 192.57 276.378 193.557 276.234C194.544 276.091 194.266 278.189 192.497 280.244H188.964Z" fill="#EAEAEA"/>
<path d="M189.277 280.355C188.422 279.446 187.654 278.459 186.983 277.407C185.584 275.17 185.249 273.401 185.993 272.135C186.268 271.666 186.603 271.445 186.98 271.497C187.75 271.586 188.612 272.755 189.622 275.075C189.941 275.771 190.193 276.464 190.401 277.042C190.161 274.535 189.88 269.545 191.251 267.871C191.378 267.703 191.539 267.565 191.723 267.465C191.908 267.364 192.111 267.305 192.321 267.289C192.508 267.272 192.697 267.303 192.869 267.378C193.042 267.454 193.193 267.571 193.308 267.72C194.544 269.244 193.432 274.669 192.822 277.205C193.276 276.464 193.921 275.637 194.579 275.544C194.715 275.514 194.856 275.529 194.982 275.587C195.108 275.644 195.213 275.742 195.279 275.864C195.681 276.598 195.135 278.477 193.522 280.336L193.279 280.125C194.876 278.285 195.295 276.551 194.998 276.004C194.964 275.938 194.909 275.886 194.841 275.857C194.774 275.827 194.698 275.821 194.627 275.841C193.777 275.966 192.787 277.822 192.477 278.525L192.177 278.419C192.199 278.33 194.55 269.746 193.059 267.906C192.977 267.795 192.867 267.707 192.741 267.651C192.615 267.595 192.477 267.573 192.34 267.586C192.175 267.598 192.014 267.646 191.869 267.726C191.724 267.806 191.598 267.916 191.5 268.049C189.769 270.164 190.861 278.349 190.887 278.432L190.567 278.502C189.995 276.685 188.229 271.937 186.938 271.794C186.692 271.765 186.472 271.928 186.264 272.282C184.635 275.055 189.459 280.065 189.5 280.116L189.277 280.355Z" fill="#364154"/>
<path d="M60.3974 255.153C60.3974 255.153 55.1013 249.722 56.922 246.607C58.7428 243.492 61.8189 253.268 61.8189 253.268C61.8189 253.268 60.2217 241.722 63.5278 241.521C66.8339 241.32 63.5278 253.268 63.5278 253.268C63.5278 253.268 64.7512 250.482 65.9459 250.31C67.1405 250.137 66.8019 252.674 64.6681 255.153H60.3974Z" fill="#EAEAEA"/>
<path d="M60.7741 255.29C60.525 255.031 54.705 248.965 56.8068 245.361C57.1263 244.789 57.5415 244.527 58.0015 244.581C58.9278 244.687 59.9724 246.099 61.1958 248.904C61.5599 249.744 61.8826 250.581 62.1541 251.278C61.8602 248.249 61.5152 242.221 63.1794 240.202C63.3318 239.998 63.5263 239.83 63.7496 239.709C63.9728 239.588 64.2196 239.516 64.4731 239.499C64.6996 239.477 64.9278 239.514 65.1363 239.605C65.3448 239.696 65.5266 239.839 65.6646 240.019C67.1563 241.86 65.8147 248.412 65.0768 251.479C65.6262 250.581 66.4056 249.584 67.201 249.469C67.3652 249.434 67.5365 249.453 67.6887 249.524C67.841 249.595 67.9659 249.714 68.0443 249.862C68.5298 250.75 67.8686 253.019 65.9233 255.293L65.6294 255.041C67.546 252.805 68.0635 250.718 67.7025 250.064C67.6618 249.984 67.5952 249.922 67.5139 249.886C67.4325 249.85 67.3413 249.842 67.2553 249.865C66.2332 250.012 65.0193 252.255 64.6616 253.108L64.2974 252.977C64.2974 252.952 65.0289 250.313 65.5144 247.428C66.1533 243.655 66.0958 241.182 65.3611 240.275C65.2616 240.143 65.1296 240.039 64.9779 239.973C64.8262 239.906 64.66 239.881 64.4955 239.898C64.2957 239.913 64.1015 239.971 63.9262 240.068C63.7509 240.165 63.5986 240.299 63.4797 240.46C61.3874 243.016 62.7258 252.92 62.7386 253.003L62.3617 253.086C61.6685 250.891 59.5348 245.157 57.976 244.981C57.6821 244.946 57.4138 245.141 57.1614 245.569C55.1937 248.92 61.0137 254.971 61.0712 255.031L60.7741 255.29Z" fill="#364154"/>
<path d="M87.788 276.455C87.788 276.455 82.9966 271.532 84.6481 268.727C86.2995 265.922 89.0721 274.742 89.0721 274.742C89.0721 274.742 87.6315 264.302 90.6182 264.12C93.6048 263.938 90.6182 274.742 90.6182 274.742C90.6182 274.742 91.7234 272.222 92.8062 272.068C93.8891 271.915 93.5793 274.202 91.6467 276.445L87.788 276.455Z" fill="#EAEAEA"/>
<path d="M88.1301 276.579C87.9033 276.346 82.6263 270.861 84.5429 267.599C84.8432 267.085 85.2073 266.848 85.6225 266.896C86.4594 266.992 87.405 268.27 88.4974 270.803C88.8168 271.564 89.1203 272.324 89.3503 272.95C89.0851 270.212 88.7785 264.762 90.2766 262.935C90.4147 262.751 90.5905 262.599 90.7921 262.489C90.9938 262.379 91.2166 262.313 91.4457 262.296C91.6508 262.278 91.8571 262.312 92.0457 262.395C92.2343 262.478 92.3992 262.606 92.5254 262.769C93.8734 264.433 92.6595 270.356 91.9919 273.129C92.4902 272.318 93.193 271.417 93.9085 271.311C94.0573 271.28 94.2122 271.299 94.3498 271.363C94.4875 271.428 94.6005 271.535 94.6719 271.669C95.1127 272.471 94.5154 274.522 92.7554 276.567L92.4871 276.337C94.2183 274.327 94.6911 272.433 94.3653 271.839C94.3285 271.767 94.2681 271.71 94.1942 271.677C94.1203 271.644 94.0375 271.638 93.9596 271.66C93.0333 271.794 91.9536 273.822 91.615 274.589L91.2956 274.474C91.2956 274.449 91.96 272.065 92.3976 269.455C92.9726 266.047 92.9247 263.81 92.2603 262.989C92.1696 262.87 92.0502 262.777 91.9133 262.717C91.7763 262.657 91.6264 262.633 91.4777 262.647C91.2972 262.661 91.1219 262.713 90.9636 262.801C90.8053 262.889 90.6679 263.01 90.5609 263.155C88.6667 265.465 89.8773 274.407 89.8901 274.496L89.5483 274.573C88.9095 272.589 86.9929 267.401 85.581 267.225C85.3127 267.193 85.0731 267.369 84.8463 267.759C83.0639 270.791 88.3281 276.26 88.3824 276.314L88.1301 276.579Z" fill="#364154"/>
<path d="M164.553 264.468C164.553 264.468 157.935 257.657 160.212 253.782C162.49 249.907 166.333 262.11 166.333 262.11C166.333 262.11 164.343 247.674 168.47 247.415C172.597 247.156 168.47 262.11 168.47 262.11C168.47 262.11 170 258.628 171.494 258.414C172.989 258.2 172.561 261.366 169.897 264.484L164.553 264.468Z" fill="#EAEAEA"/>
<path d="M165.026 264.637C163.736 263.264 162.576 261.773 161.564 260.184C159.449 256.811 158.944 254.13 160.065 252.223C160.484 251.511 160.989 251.185 161.56 251.265C162.72 251.396 164.023 253.162 165.55 256.67C166.007 257.718 166.409 258.769 166.729 259.638C166.365 255.852 165.94 248.316 168.006 245.789C168.195 245.537 168.435 245.329 168.71 245.178C168.986 245.026 169.29 244.935 169.604 244.91C169.886 244.884 170.17 244.928 170.431 245.04C170.691 245.151 170.92 245.327 171.095 245.549C172.961 247.853 171.284 256.044 170.361 259.877C171.047 258.756 172.022 257.51 173.015 257.366C173.221 257.321 173.436 257.344 173.627 257.433C173.818 257.522 173.975 257.671 174.072 257.858C174.679 258.967 173.852 261.804 171.418 264.631L171.05 264.312C173.443 261.529 174.095 258.909 173.644 258.088C173.592 257.99 173.509 257.913 173.408 257.868C173.306 257.823 173.193 257.814 173.085 257.842C171.808 258.028 170.309 260.833 169.843 261.896L169.386 261.734C169.386 261.702 170.3 258.405 170.907 254.798C171.702 250.079 171.638 246.987 170.718 245.853C170.593 245.688 170.428 245.558 170.238 245.476C170.049 245.394 169.841 245.362 169.635 245.383C169.384 245.4 169.14 245.471 168.919 245.591C168.698 245.712 168.507 245.88 168.358 246.083C165.742 249.277 167.399 261.641 167.428 261.765L166.955 261.871C166.093 259.127 163.423 251.967 161.474 251.734C161.104 251.693 160.771 251.935 160.455 252.472C157.995 256.66 165.269 264.225 165.342 264.292L165.026 264.637Z" fill="#364154"/>
<path d="M460.011 252.651C460.011 252.651 455.219 247.728 456.871 244.923C458.522 242.118 461.298 250.945 461.298 250.945C461.298 250.945 459.857 240.508 462.841 240.326C465.824 240.144 462.841 250.945 462.841 250.945C462.841 250.945 463.949 248.428 465.029 248.271C466.109 248.115 465.802 250.408 463.873 252.651H460.011Z" fill="#EAEAEA"/>
<path d="M460.353 252.772C460.126 252.542 454.849 247.054 456.766 243.795C457.085 243.281 457.433 243.045 457.845 243.089C458.682 243.185 459.628 244.463 460.72 247C461.039 247.757 461.359 248.517 461.573 249.146C461.308 246.409 461.004 240.958 462.502 239.131C462.64 238.947 462.815 238.795 463.016 238.684C463.217 238.574 463.44 238.509 463.668 238.492C463.876 238.47 464.087 238.502 464.279 238.584C464.471 238.666 464.639 238.796 464.767 238.962C466.115 240.626 464.901 246.552 464.237 249.325C464.732 248.514 465.438 247.61 466.154 247.507C466.302 247.475 466.457 247.492 466.595 247.556C466.733 247.62 466.846 247.728 466.917 247.862C467.355 248.664 466.757 250.715 465 252.763L464.735 252.533C466.467 250.52 466.936 248.626 466.61 248.031C466.573 247.96 466.512 247.904 466.439 247.872C466.365 247.84 466.282 247.834 466.205 247.856C465.278 247.99 464.199 250.015 463.86 250.785L463.541 250.667C463.541 250.645 464.202 248.258 464.639 245.651C465.214 242.239 465.167 240.003 464.502 239.182C464.412 239.063 464.293 238.969 464.155 238.91C464.018 238.85 463.868 238.828 463.719 238.844C463.539 238.857 463.364 238.908 463.206 238.996C463.048 239.083 462.91 239.203 462.803 239.348C460.912 241.658 462.119 250.6 462.132 250.689L461.79 250.766C461.151 248.782 459.235 243.597 457.826 243.437C457.555 243.406 457.315 243.581 457.088 243.971C455.309 247 460.57 252.469 460.624 252.523L460.353 252.772Z" fill="#364154"/>
<path d="M413.02 275.822C413.02 275.822 408.229 270.896 409.88 268.094C411.531 265.292 414.298 274.103 414.298 274.103C414.298 274.103 412.857 263.663 415.844 263.484C418.83 263.305 415.844 274.103 415.844 274.103C415.844 274.103 416.949 271.586 418.029 271.429C419.108 271.273 418.802 273.567 416.872 275.809L413.02 275.822Z" fill="#EAEAEA"/>
<path d="M413.339 275.943C413.116 275.713 407.839 270.225 409.752 266.966C410.072 266.452 410.42 266.216 410.832 266.26C411.672 266.356 412.614 267.634 413.707 270.171C414.026 270.928 414.345 271.688 414.559 272.317C414.298 269.579 413.991 264.129 415.489 262.302C415.626 262.118 415.802 261.965 416.004 261.855C416.206 261.745 416.429 261.679 416.658 261.663C416.863 261.645 417.068 261.678 417.256 261.76C417.444 261.842 417.609 261.97 417.735 262.133C419.083 263.797 417.872 269.723 417.204 272.493C417.703 271.685 418.405 270.781 419.121 270.678C419.269 270.646 419.424 270.663 419.562 270.727C419.7 270.791 419.813 270.899 419.884 271.033C420.322 271.835 419.728 273.886 417.968 275.934L417.703 275.704C419.434 273.691 419.904 271.797 419.578 271.202C419.541 271.131 419.481 271.075 419.408 271.043C419.334 271.011 419.252 271.005 419.175 271.027C418.249 271.158 417.166 273.186 416.827 273.956L416.508 273.838C416.508 273.816 417.169 271.429 417.61 268.822C418.185 265.41 418.137 263.174 417.473 262.353C417.381 262.234 417.261 262.141 417.124 262.082C416.986 262.022 416.836 261.999 416.687 262.014C416.507 262.028 416.331 262.079 416.173 262.166C416.015 262.254 415.877 262.374 415.77 262.519C413.879 264.829 415.087 273.771 415.099 273.86L414.758 273.937C414.119 271.953 412.202 266.768 410.793 266.608C410.528 266.576 410.286 266.752 410.056 267.142C408.276 270.171 413.537 275.64 413.592 275.694L413.339 275.943Z" fill="#364154"/>
<path d="M186.121 50.2589C186.121 34.8605 172.446 24.2446 157.209 24.2446C135.146 24.2446 127.566 36.7262 127.566 52.1278C127.566 67.5293 145.052 78.4328 160.289 78.4328C175.525 78.4328 186.121 65.6604 186.121 50.2589Z" fill="#00A3FE"/>
<path d="M190.944 74.9792C190.944 74.9792 181.3 73.4745 180.611 63.7979L173.034 69.379C173.034 69.379 176.643 78.2857 190.944 74.9792Z" fill="#00A3FE"/>
<path d="M160.727 81.6561C153.115 81.6561 144.835 78.8895 138.581 74.254C131.684 69.1425 127.886 62.3858 127.886 55.2297C127.886 46.8277 130.1 40.1668 134.463 35.4227C139.485 29.9917 147.285 27.2188 157.647 27.2188C165.259 27.2188 172.45 29.7969 177.896 34.4803C183.559 39.3521 186.68 46.0546 186.68 53.3544C186.68 59.5297 185.003 65.344 181.831 70.1776C184.118 76.7554 191.337 77.9502 191.401 77.9502L192.008 78.0461L191.408 78.1866C187.057 79.193 180.934 79.6562 176.414 76.1868C171.974 79.7689 166.431 81.7017 160.727 81.6561ZM157.647 27.4743C147.355 27.4743 139.612 30.209 134.649 35.6016C130.327 40.2914 128.135 46.898 128.135 55.2361C128.135 62.3155 131.898 69.0051 138.734 74.0847C144.947 78.6914 153.172 81.4324 160.736 81.4324C166.411 81.4728 171.922 79.5356 176.324 75.9536L176.401 75.8929L176.474 75.9536C180.748 79.2888 186.53 78.9981 190.813 78.0844C189.057 77.6563 183.521 75.8865 181.576 70.2095L181.556 70.1552L181.592 70.1073C184.757 65.3153 186.431 59.5138 186.431 53.364C186.431 46.1344 183.342 39.4959 177.73 34.6719C172.338 30.0301 165.202 27.4743 157.647 27.4743Z" fill="#131F2D"/>
</g>
<defs>
<clipPath id="clip0_532_8312">
<rect width="533" height="292" fill="white"/>
</clipPath>
</defs>
</svg>
