<svg width="116" height="80" viewBox="0 0 116 80" fill="none" xmlns="http://www.w3.org/2000/svg">
<path d="M36.5753 67.9515C36.074 67.8387 35.5602 67.7134 35.0422 67.5797C34.5242 67.4461 33.9769 67.2998 33.4631 67.162C31.6166 61.3552 30.2714 59.9725 29.3399 59.9182C28.5797 59.9943 27.8138 59.8493 27.1341 59.5004C26.7498 59.2874 26.3613 59.0827 25.9728 58.8654C24.7977 57.7017 23.835 56.3417 23.1279 54.8467C21.9832 51.6592 20.7425 48.5428 17.4214 46.9094L17.4214 33.0609C19.1425 32.1168 20.5796 30.8844 21.4443 29.0881C22.071 27.7847 22.6475 26.4562 23.2449 25.1361C23.7923 23.6342 24.7122 22.2959 25.9185 21.2468C26.3111 20.9837 26.6412 20.5826 27.1007 20.4573C28.003 20.2025 28.7717 20.3111 29.2897 20.1022C31.7962 19.1038 33.3962 16.0625 33.5424 12.3988C33.9322 12.5543 34.3437 12.6487 34.7623 12.6787C35.303 12.7191 35.8465 12.6539 36.3623 12.4866C34.545 21.2594 33.8558 24.4092 33.7471 24.898C33.7054 25.0346 33.6746 25.1743 33.6552 25.3157C33.5926 25.7335 33.6093 26.2014 33.5717 26.6358C33.179 28.6285 33.0161 30.6463 32.7821 32.6598C32.716 32.983 32.7237 33.3169 32.8047 33.6366C32.8857 33.9564 33.0379 34.2537 33.25 34.5063C34.4276 38.1134 34.4042 42.005 33.1832 45.5976C33.0388 45.7555 32.9274 45.9407 32.8557 46.1423C32.7839 46.3439 32.7532 46.5579 32.7654 46.7715C33.0119 49.161 33.1581 51.5631 33.7012 53.9109C33.7457 54.7102 33.8126 55.5248 33.9017 56.3547C34.3225 60.3139 35.2202 64.2077 36.5753 67.9515Z" fill="#0C2545"/>
<path d="M61.0432 54.7213C63.8046 52.996 72.4562 54.3453 75.1382 53.2174C75.4786 53.1207 75.8379 53.1121 76.1825 53.1923C80.97 53.539 85.7616 54.0571 90.5574 53.4764C94.3172 53.021 90.6744 46.8258 93.8994 44.9041C95.0984 44.1897 96.4853 41.2028 96.9365 39.8911C98.3318 35.8138 97.3542 38.6378 95.9255 34.5564C95.1569 32.3465 94.1125 31.7031 92.078 30.6212C85.9747 27.3878 86.2963 26.2055 79.6958 26.6859C78.6389 26.7653 77.5737 26.8196 76.5293 26.9825C75.8943 27.0786 75.3972 28.0812 74.9209 27.8807C72.711 26.9533 70.781 26.9784 68.5043 26.2097C67.8526 25.9883 62.8061 26.5523 62.1252 25.6416C63.6834 24.3131 70.6808 23.4985 72.2181 23.2353C76.8264 22.4683 81.5207 22.3642 86.1585 22.9262C90.0269 23.3439 93.8618 23.887 97.6007 24.9356C102.681 26.3601 107.481 28.3569 111.136 32.3882C112.001 33.3407 112.949 34.2514 113.254 35.5799C111.405 34.9273 109.496 34.4558 107.556 34.172C106.683 34.0551 106.34 34.264 106.678 35.1579C107.942 38.3329 107.942 41.8712 106.678 45.0461C106.44 45.6561 106.766 46.0863 107.414 46.007C109.464 45.7623 111.475 45.2554 113.396 44.4989C113.271 46.7297 107.455 51.3876 103.19 53.2717C97.6132 55.7072 91.7062 56.8268 85.6446 57.3322C80.0593 57.7959 74.5199 57.75 69.0682 56.2085C67.2761 55.9578 61.7826 54.8174 61.0432 54.7213Z" fill="#F57F20"/>
<path d="M23.249 25.1653C22.6516 26.4854 22.0751 27.8139 21.4484 29.1173C20.5837 30.9136 19.1466 32.146 17.4255 33.0901C16.9283 33.2315 16.4948 33.5394 16.1975 33.9622C15.9002 34.385 15.757 34.8971 15.7921 35.4128C15.7921 38.4763 15.7921 41.5398 15.7921 44.6034C15.7921 45.7355 16.285 46.5626 17.4213 46.9219C20.7424 48.5386 21.9832 51.655 23.1278 54.8592C21.8077 54.9803 20.4834 55.0931 19.1633 55.2268C18.6575 55.2826 18.1457 55.2078 17.6769 55.0096C17.2082 54.8115 16.798 54.4965 16.4856 54.0947C14.6349 52.0059 13.3065 49.5621 11.9989 47.1182C11.9989 46.9804 11.9989 46.8509 11.8067 46.8467C11.4716 45.6832 10.948 44.5824 10.2569 43.5882C8.68194 41.2363 8.58586 38.8551 10.1775 36.4864C10.8963 35.3692 11.4916 34.1772 11.9529 32.9314C13.2605 30.4248 14.6098 27.981 16.4814 25.8296C16.7935 25.4268 17.2032 25.1102 17.6718 24.9099C18.1404 24.7096 18.6523 24.6322 19.1592 24.6849C20.5318 24.752 21.8982 24.9125 23.249 25.1653Z" fill="#F57F20"/>
<path d="M11.9698 32.9272C11.5084 34.173 10.9131 35.365 10.1943 36.4823C8.61107 38.8635 8.69879 41.2446 10.2737 43.5841C10.9649 44.5783 11.4884 45.679 11.8236 46.8425C8.8283 46.5083 6.08367 45.3929 3.43929 44.0352C2.36985 43.488 1.35053 42.8446 0.644532 41.7752C-0.358074 40.2044 -0.190973 39.0389 1.14583 37.7188C2.29129 36.6472 3.6256 35.7973 5.08106 35.2123C7.29531 34.2227 9.60306 33.4571 11.9698 32.9272Z" fill="#FF6F00"/>
<path d="M27.1048 20.4866L25.9226 21.2761C26.1398 19.1874 26.3404 17.0694 26.5743 14.9639C26.7623 13.0673 27.2218 11.2041 26.7247 9.24904C26.4754 8.01141 26.599 6.72764 27.0798 5.56029C27.627 4.01461 27.9404 2.38955 28.3665 0.802093C28.4667 0.417761 28.6088 9.15667e-06 29.0933 9.13549e-06C29.2959 0.00743414 29.4879 0.0920614 29.6301 0.236537C29.7722 0.381013 29.8537 0.574392 29.8578 0.777028C30.1377 3.19164 30.5262 5.60624 30.3341 8.04174C30.2631 8.93573 29.5988 9.59995 28.9931 10.2057C28.5041 10.6608 28.1856 11.2697 28.0907 11.931C27.7524 14.7884 27.4307 17.6375 27.1048 20.4866Z" fill="#F57F20"/>
<path d="M25.9729 58.878C26.3614 59.091 26.7499 59.2957 27.1343 59.5129C27.222 62.5458 27.9698 65.5119 28.1327 68.5364C28.1703 69.2215 28.7927 69.5933 29.2021 70.0445C29.6339 70.4704 29.9652 70.9873 30.1719 71.5575C30.3786 72.1277 30.4554 72.7369 30.3969 73.3405C30.2089 75.1411 30.1128 76.9499 29.9165 78.7463C29.8622 79.2559 29.858 79.9786 29.1144 79.9995C28.3708 80.0204 28.4293 79.3645 28.3081 78.8841C27.7191 76.6074 26.4617 74.364 26.7416 72.033C27.2596 67.7218 26.1692 63.5651 25.8977 59.325C25.9028 59.1733 25.928 59.0229 25.9729 58.878Z" fill="#F57F20"/>
<path d="M33.463 67.1578C34.3946 67.3082 35.276 66.8403 36.1993 66.9322C36.947 68.833 36.9345 68.7996 35.0128 69.5975C34.3361 69.8774 34.052 69.869 34.0144 69.0418C33.9852 68.3902 33.4421 67.8513 33.463 67.1578Z" fill="#F57F20"/>
<path d="M36.3665 12.5157C35.4056 13.1089 34.4824 12.5617 33.5466 12.428C33.6804 12.1051 33.7798 11.7691 33.8432 11.4254C33.9644 9.98833 34.6453 10.1304 35.6772 10.6233C36.9931 11.2541 37.0265 11.1831 36.3665 12.5157Z" fill="#F57F20"/>
<path d="M11.8071 46.8467C11.9909 46.8467 12.0035 46.9804 11.9993 47.1183L11.8071 46.8467Z" fill="#9DD6E1"/>
<path d="M52.4625 32.9523C51.2061 33.4414 50.0171 34.0885 48.9242 34.8781C48.3687 35.008 47.852 35.2676 47.4163 35.6358C46.9806 36.004 46.6384 36.4701 46.4177 36.9961C46.0386 37.8187 45.4439 38.5232 44.6965 39.0348C43.9111 39.5695 43.9279 40.3089 44.5378 40.806C45.6114 41.6833 46.2088 42.8572 46.9524 43.9642C47.2532 44.4196 47.6124 44.7454 48.2056 44.5783C48.2975 44.6452 48.3853 44.7162 48.473 44.783L48.6025 44.9042C49.7266 45.8488 50.9963 46.605 52.3623 47.1433C52.6505 48.5303 53.7826 48.9814 54.9147 49.4284C54.5931 50.1386 53.9873 50.6023 53.486 51.1621C51.1431 49.1627 48.344 47.771 45.3357 47.1099C41.3211 46.2744 37.2104 46.195 33.1582 45.6352C34.3792 42.0426 34.4027 38.151 33.225 34.5439C35.953 34.239 38.6558 33.8546 41.4088 33.6499C46.0041 33.3032 50.1273 31.8077 53.6949 28.85C54.3466 29.3597 54.8773 30.0074 55.2489 30.7466C54.1377 31.2228 52.8302 31.4902 52.4625 32.9523Z" fill="#F57F20"/>
<path d="M33.1876 45.6352C37.2398 46.1867 41.3547 46.266 45.3651 47.1099C48.3734 47.771 51.1726 49.1627 53.5155 51.1621C52.9014 51.7135 52.8972 52.4822 52.7844 53.2133C52.4808 53.1542 52.1739 53.1137 51.8653 53.0921C45.7959 53.0425 39.7282 53.3214 33.6889 53.9276C33.1459 51.6174 32.9997 49.1987 32.7532 46.8091C32.7432 46.5943 32.7766 46.3797 32.8512 46.178C32.9258 45.9764 33.0402 45.7918 33.1876 45.6352Z" fill="#F57F20"/>
<path d="M33.576 26.6735C39.9384 27.1706 46.3049 27.6719 52.6965 27.4589L53.7242 28.85C50.1566 31.8077 46.0417 33.3032 41.4381 33.65C38.706 33.8547 35.9822 34.239 33.2543 34.5439C33.0423 34.2913 32.89 33.994 32.809 33.6743C32.728 33.3545 32.7203 33.0206 32.7864 32.6975C33.0204 30.6839 33.1833 28.6662 33.576 26.6735Z" fill="#F57F20"/>
<path d="M66.8375 55.866C62.0197 55.9046 57.2406 55.0035 52.7676 53.2133C48.7321 51.584 44.9097 50.0384 43.0256 46.1115C41.6178 43.1872 41.8935 40.1627 42.0147 39.0097C42.1525 37.6812 42.4784 34.8781 44.446 32.3257C46.2548 29.9779 48.4856 29.0964 52.6799 27.4463C55.1367 26.5074 57.6654 25.7684 60.2412 25.2364C62.6478 24.6447 65.0938 24.2259 67.5602 23.9832C70.7769 23.7074 71.6124 24.0959 80.0928 25.0568C87.6123 25.8923 88.7569 25.8004 91.4347 26.8782C95.395 28.4698 97.371 30.4959 98.1188 31.3356C99.3933 32.6623 100.362 34.2522 100.955 35.9935C102.48 40.6891 100.437 44.7663 100.145 45.3094C99.0671 47.3689 97.6384 48.5386 95.6874 50.172C94.242 51.371 92.7632 52.595 90.5407 53.4848C88.6609 54.2409 85.9121 54.4456 80.5147 54.83C79.1319 54.9261 78.6724 54.9469 77.2729 55.0305C74.5826 55.1892 71.0526 55.4524 66.8375 55.866Z" fill="#0C2545"/>
<path d="M17.4215 46.9387C16.2852 46.5795 15.7965 45.7523 15.7923 44.6202C15.7923 41.5567 15.7923 38.4932 15.7923 35.4296C15.7573 34.914 15.9004 34.4019 16.1977 33.9791C16.495 33.5563 16.9286 33.2484 17.4257 33.1069L17.4215 46.9387Z" fill="#F9E6CC"/>
<path d="M33.3922 20.3236L33.4548 20.3821L33.3796 20.3821L33.3922 20.3236Z" fill="#FDCD4D"/>
<path d="M48.6273 44.9042L48.4978 44.783C48.5305 44.7839 48.5617 44.7967 48.5855 44.819C48.6094 44.8414 48.6243 44.8716 48.6273 44.9042Z" fill="#FDCD4D"/>
<path d="M113.208 44.5533C111.308 45.3108 109.318 45.8218 107.288 46.0739C106.453 46.1825 106.181 45.9151 106.49 45.1047C107.749 41.8811 107.749 38.3022 106.49 35.0786C106.148 34.1679 106.49 33.9591 107.368 34.076C109.309 34.3649 111.218 34.8434 113.066 35.5047C114.678 36.4781 115.643 37.7606 115.647 39.8201C115.652 41.8796 115.079 43.5298 113.208 44.5533Z" fill="#FFCC00"/>
</svg>
