<svg width="42" height="39" viewBox="0 0 42 39" fill="none" xmlns="http://www.w3.org/2000/svg">
<g clip-path="url(#clip0_684_4250)">
<path opacity="0.2" d="M3.66395 9.34212V13.0383M5.578 11.375H1.74988M38.9921 2.46094V6.15706M40.9062 4.37499H37.0781" stroke="#064789" stroke-linecap="round" stroke-linejoin="round"/>
<path d="M31.3441 9.25L31.881 9.96249L31.4913 10.9756H25.8628C25.381 10.9756 25 10.5946 25 10.1128C25 9.63282 25.3868 9.25 25.8628 9.25H31.3441Z" stroke="#064789"/>
<path fill-rule="evenodd" clip-rule="evenodd" d="M31.5306 12.5202C31.5153 12.4283 31.5 12.3441 31.5 12.2445V8.36281C31.5 7.60484 32.1048 7 32.8628 7H35.6191C36.377 7 36.9819 7.60484 36.9819 8.36281V12.2445C36.9819 13.0025 36.377 13.6073 35.6191 13.6073H35.0525L31.5306 12.5202Z" fill="#064789"/>
<path fill-rule="evenodd" clip-rule="evenodd" d="M5.67221 18.4548C4.75346 18.4548 4.0108 19.1975 4.0108 20.1162V23.9061C4.0108 24.4114 4.41658 24.8172 4.9219 24.8172H19.6372C20.1425 24.8172 20.5483 24.4114 20.5483 23.9061V22.3212C20.5483 20.1775 18.8256 18.4548 16.6819 18.4548H11.1924L8.36716 18.4548L5.67221 18.4548Z" fill="#064789"/>
<path fill-rule="evenodd" clip-rule="evenodd" d="M36.7501 19.25L37.6251 22.1187V24.5H39.5898C40.442 24.5 41.1251 23.8176 41.1251 22.9751V20.7679C41.1251 19.9254 40.442 19.25 39.5898 19.25H36.7501Z" fill="#F77F00"/>
<path d="M29.9834 13.9818L30.4234 29.2134H20.6552H20.4274L20.2779 29.3852L18.8728 31.0006L18.75 31.1417V31.3288V33.25V33.75H19.25H30.625H30.9854L31.0993 33.4081L31.9743 30.7831L32.0482 30.5615L31.9256 30.3626L31.6791 29.9627L37.8055 27.5913L38.1704 27.45L38.121 27.0619L36.4456 13.8964L36.442 13.868L36.4351 13.8401C36.1865 12.8284 35.508 11.75 34.1708 11.75H32.2539H31.7539V11.8113C30.7474 12.0303 29.9832 12.8973 29.9832 13.9673V13.9745L29.9834 13.9818Z" fill="#E7EDF4" stroke="#064789"/>
<path d="M37.4714 28.5001L39.0961 28.5L40.1932 30.2764L40.2024 30.2914L40.2127 30.3056C40.779 31.0929 41.0833 32.0396 41.0833 33.0149C41.0833 35.5711 39.0031 37.6522 36.4383 37.6523L37.4714 28.5001ZM37.4714 28.5001L32.7314 30.1551L31.9614 31.6953L31.1738 33.9418C31.4184 34.3201 31.8956 34.908 32.4357 35.4958C33.0739 36.1902 33.7102 36.7861 34.0415 36.9857C34.7649 37.4217 35.5936 37.6522 36.4383 37.6523L37.4714 28.5001ZM12.1756 37.6599H12.1754C11.2361 37.6604 10.311 37.4308 9.48098 36.9912C8.74206 36.5999 8.09847 36.0527 7.59396 35.389L9.03929 32.875H13.0439L15.4417 33.6743L16.732 35.4221C15.6472 36.8285 13.9675 37.6599 12.1756 37.6599Z" fill="#E7EDF4" stroke="#064789"/>
<path d="M2.2499 32.2284C2.2499 27.2679 6.275 23.2499 11.2283 23.2499C16.1888 23.2499 20.2068 27.275 20.2068 32.2284V34.4946C20.2068 34.8999 19.8794 35.2273 19.4741 35.2273H2.98256C2.5773 35.2273 2.2499 34.8999 2.2499 34.4946V32.2284ZM32.75 32.375V34.125C32.75 34.3478 32.6765 34.6709 32.5419 34.9274C32.3922 35.2128 32.273 35.2349 32.2601 35.2349C31.2065 35.2349 30.3407 34.3797 30.3407 33.3385C30.3407 30.0311 33.0266 27.346 36.3255 27.346H39.3498C39.6842 27.346 40.0049 27.4789 40.2414 27.7153C40.4778 27.9518 40.6107 28.2725 40.6107 28.6069C40.6107 28.9414 40.4778 29.2621 40.2414 29.4986C40.0049 29.735 39.6842 29.8679 39.3498 29.8679H36.3255C35.6149 29.8679 34.7528 30.1999 34.0852 30.6202C33.7448 30.8344 33.427 31.0886 33.1881 31.3659C32.9584 31.6326 32.75 31.9811 32.75 32.375Z" fill="#E7EDF4" stroke="#064789"/>
<path fill-rule="evenodd" clip-rule="evenodd" d="M5.29928 28.7065H11.3256C12.3209 28.7065 13.1248 29.5105 13.1248 30.5058C13.1248 31.5011 12.3209 32.305 11.3256 32.305H5.29928C4.30397 32.305 3.50006 31.5011 3.50006 30.5058C3.50006 29.5105 4.30397 28.7065 5.29928 28.7065ZM19.1624 31.4934C19.1624 31.0723 18.8178 30.7278 18.3967 30.7278C17.9756 30.7278 17.6311 31.0723 17.6311 31.4934C17.6311 31.9145 17.9756 32.259 18.3967 32.259C18.8178 32.259 19.1624 31.9145 19.1624 31.4934ZM16.6205 31.4934C16.6205 31.0723 16.276 30.7278 15.8549 30.7278C15.4338 30.7278 15.0892 31.0723 15.0892 31.4934C15.0892 31.9145 15.4338 32.259 15.8549 32.259C16.276 32.259 16.6205 31.9145 16.6205 31.4934Z" fill="#F77F00"/>
<path opacity="0.5" d="M16.0234 5.90625C17.0805 5.90625 17.9375 5.04929 17.9375 3.99219C17.9375 2.93508 17.0805 2.07812 16.0234 2.07812C14.9663 2.07812 14.1094 2.93508 14.1094 3.99219C14.1094 5.04929 14.9663 5.90625 16.0234 5.90625Z" stroke="#F77F00" stroke-linecap="round" stroke-linejoin="round"/>
</g>
<defs>
<clipPath id="clip0_684_4250">
<rect width="42" height="38.5" fill="white"/>
</clipPath>
</defs>
</svg>
