<svg width="48" height="32" viewBox="0 0 48 32" fill="none" xmlns="http://www.w3.org/2000/svg">
<g clip-path="url(#clip0_684_4224)">
<path d="M37.75 13.5199L32.115 7.85994C31.7433 7.48861 31.302 7.19415 30.8164 6.9934C30.3308 6.79264 29.8105 6.68953 29.285 6.68994H13.415C12.6719 6.68941 11.9433 6.8959 11.311 7.28625C10.6787 7.6766 10.1676 8.23538 9.83501 8.89994L7.36501 13.8449C7.08792 14.4009 6.94412 15.0138 6.94501 15.6349V22.6899C6.94501 23.7508 7.36644 24.7682 8.11658 25.5184C8.86673 26.2685 9.88415 26.6899 10.945 26.6899H42.945C44.0059 26.6899 45.0233 26.2685 45.7734 25.5184C46.5236 24.7682 46.945 23.7508 46.945 22.6899V18.6899C46.945 17.6291 46.5236 16.6117 45.7734 15.8615C45.0233 15.1114 44.0059 14.6899 42.945 14.6899H40.6C40.0712 14.693 39.547 14.5912 39.0578 14.3903C38.5687 14.1895 38.1241 13.8937 37.75 13.5199Z" fill="#E7EDF4" stroke="#064789" stroke-linecap="round" stroke-linejoin="round"/>
<path opacity="0.1" d="M11.945 14.2499V6.81494C11.3836 6.95253 10.8586 7.21016 10.4063 7.5701C9.95404 7.93004 9.58513 8.38374 9.32501 8.89994L6.94501 13.6649V24.6649C7.29333 25.2867 7.80143 25.8041 8.41677 26.1636C9.03211 26.5232 9.73233 26.7118 10.445 26.7099H42.445C43.5059 26.7099 44.5233 26.2885 45.2734 25.5384C46.0236 24.7882 46.445 23.7708 46.445 22.7099V21.7499H19.445C17.4559 21.7499 15.5482 20.9598 14.1417 19.5532C12.7352 18.1467 11.945 16.2391 11.945 14.2499Z" fill="#6A91B8"/>
<path d="M7.21002 18.985H14.21M16.71 18.985H17.21" stroke="#F77F00" stroke-linecap="round" stroke-linejoin="round"/>
<path d="M36 13.75H28.71C28.5774 13.75 28.4502 13.6973 28.3564 13.6036C28.2627 13.5098 28.21 13.3826 28.21 13.25V9.75001C28.21 9.6174 28.2627 9.49022 28.3564 9.39645C28.4502 9.30269 28.5774 9.25001 28.71 9.25001H32.5C32.5658 9.24963 32.631 9.26224 32.6919 9.28712C32.7529 9.312 32.8083 9.34867 32.855 9.39501L36.355 12.895C36.4255 12.9649 36.4736 13.0543 36.4931 13.1517C36.5127 13.249 36.5028 13.35 36.4647 13.4417C36.4266 13.5335 36.3621 13.6118 36.2793 13.6667C36.1965 13.7216 36.0993 13.7506 36 13.75ZM14.555 13.75H24.205C24.3376 13.75 24.4648 13.6973 24.5585 13.6036C24.6523 13.5098 24.705 13.3826 24.705 13.25V9.75001C24.705 9.6174 24.6523 9.49022 24.5585 9.39645C24.4648 9.30269 24.3376 9.25001 24.205 9.25001H16.5C16.4114 9.25016 16.3244 9.27385 16.248 9.31866C16.1716 9.36346 16.1084 9.42778 16.065 9.50501L14.12 13.005C14.0773 13.081 14.0551 13.1669 14.0559 13.2541C14.0566 13.3413 14.0801 13.4268 14.1241 13.5021C14.168 13.5774 14.2309 13.6399 14.3065 13.6834C14.3821 13.7269 14.4678 13.7499 14.555 13.75Z" fill="#F77F00"/>
<path d="M16.46 31.25C18.9453 31.25 20.96 29.2353 20.96 26.75C20.96 24.2647 18.9453 22.25 16.46 22.25C13.9747 22.25 11.96 24.2647 11.96 26.75C11.96 29.2353 13.9747 31.25 16.46 31.25Z" fill="#E7EDF4" stroke="#064789" stroke-linecap="round" stroke-linejoin="round"/>
<path d="M36.46 31.25C38.9453 31.25 40.96 29.2353 40.96 26.75C40.96 24.2647 38.9453 22.25 36.46 22.25C33.9747 22.25 31.96 24.2647 31.96 26.75C31.96 29.2353 33.9747 31.25 36.46 31.25Z" fill="#E7EDF4" stroke="#064789" stroke-linecap="round" stroke-linejoin="round"/>
<path d="M25.71 18.985H27.71M46.845 20.59H45.715C45.5023 20.5913 45.2914 20.5507 45.0943 20.4705C44.8973 20.3903 44.7179 20.2721 44.5666 20.1226C44.4152 19.9731 44.2948 19.7952 44.2122 19.5992C44.1295 19.4032 44.0863 19.1928 44.085 18.98C44.0863 18.7673 44.1295 18.5569 44.2122 18.3608C44.2948 18.1648 44.4152 17.9869 44.5666 17.8374C44.7179 17.6879 44.8973 17.5697 45.0943 17.4895C45.2914 17.4093 45.5023 17.3687 45.715 17.37H46.53M25.335 31.25H43.045M7.15502 31.25H21.845M4.71002 31.25H5.11502M4.21002 21H6.71002M5.71002 22.25H6.71002M33.5 14.75H26.21C26.0774 14.75 25.9502 14.6973 25.8565 14.6036C25.7627 14.5098 25.71 14.3826 25.71 14.25V10.75C25.71 10.6174 25.7627 10.4902 25.8565 10.3965C25.9502 10.3027 26.0774 10.25 26.21 10.25H30C30.0658 10.2496 30.1311 10.2622 30.192 10.2871C30.2529 10.312 30.3083 10.3487 30.355 10.395L33.855 13.895C33.9255 13.9649 33.9736 14.0543 33.9932 14.1517C34.0127 14.249 34.0028 14.35 33.9647 14.4417C33.9266 14.5335 33.8621 14.6118 33.7793 14.6667C33.6966 14.7216 33.5993 14.7506 33.5 14.75ZM12.055 14.75H21.705C21.8376 14.75 21.9648 14.6973 22.0586 14.6036C22.1523 14.5098 22.205 14.3826 22.205 14.25V10.75C22.205 10.6174 22.1523 10.4902 22.0586 10.3965C21.9648 10.3027 21.8376 10.25 21.705 10.25H14C13.9114 10.2502 13.8245 10.2739 13.748 10.3187C13.6716 10.3635 13.6084 10.4278 13.565 10.505L11.62 14.005C11.5773 14.081 11.5552 14.1669 11.5559 14.2541C11.5566 14.3413 11.5801 14.4268 11.6241 14.5021C11.6681 14.5774 11.731 14.6399 11.8066 14.6834C11.8822 14.7269 11.9678 14.7499 12.055 14.75Z" stroke="#064789" stroke-linecap="round" stroke-linejoin="round"/>
<path opacity="0.2" d="M2.25 13.46V15.96M3.5 14.71H1M42.13 8.70996V11.21M43.38 9.95996H40.88" stroke="#064789" stroke-linecap="round" stroke-linejoin="round"/>
<path opacity="0.5" d="M28.96 3.5C29.6504 3.5 30.21 2.94036 30.21 2.25C30.21 1.55964 29.6504 1 28.96 1C28.2697 1 27.71 1.55964 27.71 2.25C27.71 2.94036 28.2697 3.5 28.96 3.5Z" stroke="#F77F00" stroke-linecap="round" stroke-linejoin="round"/>
</g>
<defs>
<clipPath id="clip0_684_4224">
<rect width="48" height="32" fill="white"/>
</clipPath>
</defs>
</svg>
