<svg width="135" height="91" viewBox="0 0 135 91" fill="none" xmlns="http://www.w3.org/2000/svg">
<g clip-path="url(#clip0_1868_7146)">
<path d="M125 50.0001C120 80.0001 88 90.5001 70 81.0001C53.3318 72.203 9.65225 66.049 3.28013 45.2694C2.24618 41.8977 1.51712 38.3208 1.4324 34.7952C1.03384 18.2104 26.2007 -4.30047 70.0557 5.30057C73.3153 6.01418 76.2548 7.74378 78.7923 9.91065C105.279 32.5289 128.635 28.1887 125 50.0001Z" fill="#FEA559" fill-opacity="0.3"/>
<path d="M95.0705 32.3334L82.8058 20.0143C81.9967 19.2061 81.0363 18.5652 79.9794 18.1282C78.9225 17.6913 77.7899 17.4669 76.6463 17.4678H42.105C40.4876 17.4666 38.9019 17.916 37.5256 18.7656C36.1493 19.6153 35.0369 20.8315 34.3131 22.2779L28.9371 33.0407C28.334 34.2508 28.021 35.5847 28.023 36.9367V52.292C28.023 54.601 28.9402 56.8154 30.5729 58.4481C32.2056 60.0808 34.42 60.9981 36.729 60.9981H106.378C108.686 60.9981 110.901 60.0808 112.534 58.4481C114.166 56.8154 115.084 54.601 115.084 52.292V43.586C115.084 41.277 114.166 39.0625 112.534 37.4298C110.901 35.7971 108.686 34.8799 106.378 34.8799H101.274C100.123 34.8865 98.9818 34.6649 97.917 34.2278C96.8523 33.7907 95.8848 33.1468 95.0705 32.3334Z" fill="#E7EDF4" stroke="#064789" stroke-linecap="round" stroke-linejoin="round"/>
<path opacity="0.1" d="M38.9055 33.9226V17.7402C37.6836 18.0397 36.541 18.6004 35.5566 19.3839C34.5722 20.1673 33.7692 21.1547 33.2031 22.2783L28.0229 32.6494V56.591C28.7811 57.9443 29.887 59.0704 31.2263 59.853C32.5656 60.6355 34.0896 61.046 35.6408 61.042H105.289C107.598 61.042 109.813 60.1248 111.445 58.4921C113.078 56.8594 113.995 54.6449 113.995 52.3359V50.2465H55.2294C50.9 50.2465 46.748 48.5267 43.6867 45.4653C40.6254 42.404 38.9055 38.252 38.9055 33.9226Z" fill="#A2BDD8"/>
<path d="M28.5996 44.228H43.8352M49.2765 44.228H50.3648" stroke="#F77F00" stroke-linecap="round" stroke-linejoin="round"/>
<path d="M91.2618 32.8341H75.395C75.1063 32.8341 74.8295 32.7195 74.6254 32.5154C74.4214 32.3113 74.3067 32.0345 74.3067 31.7459V24.1281C74.3067 23.8394 74.4214 23.5626 74.6254 23.3586C74.8295 23.1545 75.1063 23.0398 75.395 23.0398H83.6439C83.7872 23.039 83.9291 23.0664 84.0617 23.1206C84.1943 23.1747 84.3149 23.2545 84.4166 23.3554L92.0344 30.9732C92.1879 31.1254 92.2926 31.3199 92.3351 31.5318C92.3776 31.7438 92.356 31.9636 92.2732 32.1632C92.1903 32.3628 92.0498 32.5333 91.8697 32.6528C91.6895 32.7722 91.4779 32.8354 91.2618 32.8341ZM44.5864 32.8341H65.5898C65.8784 32.8341 66.1552 32.7195 66.3593 32.5154C66.5634 32.3113 66.678 32.0345 66.678 31.7459V24.1281C66.678 23.8394 66.5634 23.5626 66.3593 23.3586C66.1552 23.1545 65.8784 23.0398 65.5898 23.0398H48.8197C48.6269 23.0401 48.4376 23.0917 48.2712 23.1892C48.1049 23.2868 47.9674 23.4267 47.8729 23.5948L43.6396 31.2126C43.5466 31.3781 43.4985 31.565 43.5 31.7548C43.5016 31.9446 43.5528 32.1307 43.6485 32.2946C43.7442 32.4585 43.8811 32.5946 44.0456 32.6892C44.2102 32.7838 44.3966 32.8338 44.5864 32.8341Z" fill="#F77F00"/>
<path d="M48.7323 70.9234C54.1416 70.9234 58.5266 66.5383 58.5266 61.129C58.5266 55.7198 54.1416 51.3347 48.7323 51.3347C43.3231 51.3347 38.938 55.7198 38.938 61.129C38.938 66.5383 43.3231 70.9234 48.7323 70.9234Z" fill="#E7EDF4" stroke="#064789" stroke-linecap="round" stroke-linejoin="round"/>
<path d="M92.2626 70.9234C97.6718 70.9234 102.057 66.5383 102.057 61.129C102.057 55.7198 97.6718 51.3347 92.2626 51.3347C86.8533 51.3347 82.4683 55.7198 82.4683 61.129C82.4683 66.5383 86.8533 70.9234 92.2626 70.9234Z" fill="#E7EDF4" stroke="#064789" stroke-linecap="round" stroke-linejoin="round"/>
<path d="M68.8649 44.2284H73.2179M114.866 47.7217H112.406C111.943 47.7246 111.484 47.6362 111.055 47.4617C110.626 47.2871 110.236 47.0298 109.906 46.7044C109.577 46.379 109.315 45.9919 109.135 45.5652C108.955 45.1385 108.861 44.6806 108.858 44.2175C108.861 43.7545 108.955 43.2966 109.135 42.8699C109.315 42.4432 109.577 42.0561 109.906 41.7307C110.236 41.4053 110.626 41.148 111.055 40.9734C111.484 40.7989 111.943 40.7105 112.406 40.7134H114.18M68.0487 70.9234H106.595M28.4797 70.9234H60.4527M23.1581 70.9234H24.0396M22.0698 48.6141H27.5111M25.3346 51.3348H27.5111M85.82 35.0109H69.9532C69.6645 35.0109 69.3877 34.8962 69.1836 34.6921C68.9796 34.4881 68.8649 34.2113 68.8649 33.9226V26.3048C68.8649 26.0162 68.9796 25.7394 69.1836 25.5353C69.3877 25.3312 69.6645 25.2166 69.9532 25.2166H78.2022C78.3454 25.2157 78.4873 25.2432 78.6199 25.2974C78.7525 25.3515 78.8731 25.4313 78.9748 25.5322L86.5926 33.15C86.7461 33.3022 86.8508 33.4967 86.8933 33.7086C86.9358 33.9205 86.9142 34.1403 86.8314 34.34C86.7485 34.5396 86.608 34.71 86.4279 34.8295C86.2477 34.949 86.0361 35.0121 85.82 35.0109ZM39.1446 35.0109H60.148C60.4366 35.0109 60.7134 34.8962 60.9175 34.6921C61.1216 34.4881 61.2362 34.2113 61.2362 33.9226V26.3048C61.2362 26.0162 61.1216 25.7394 60.9175 25.5353C60.7134 25.3312 60.4366 25.2166 60.148 25.2166H43.3779C43.1851 25.2169 42.9958 25.2685 42.8294 25.366C42.6631 25.4635 42.5256 25.6035 42.4311 25.7716L38.1978 33.3894C38.1048 33.5548 38.0567 33.7418 38.0582 33.9316C38.0598 34.1214 38.111 34.3075 38.2067 34.4714C38.3024 34.6353 38.4393 34.7713 38.6038 34.866C38.7684 34.9606 38.9548 35.0106 39.1446 35.0109Z" stroke="#064789" stroke-linecap="round" stroke-linejoin="round"/>
<path opacity="0.7" d="M11 27.3056V32.7469M13.7206 30.0263H8.27936M104.603 21.8643V27.3055M107.324 24.5849H101.883M44.5 83.5V88.9412M47.2206 86.2206H41.7794" stroke="#064789" stroke-linecap="round" stroke-linejoin="round"/>
<path opacity="0.9" d="M54.7206 5.72064C56.2232 5.72064 57.4413 4.50257 57.4413 3C57.4413 1.49743 56.2232 0.279356 54.7206 0.279356C53.2181 0.279356 52 1.49743 52 3C52 4.50257 53.2181 5.72064 54.7206 5.72064Z" stroke="#F77F00" stroke-linecap="round" stroke-linejoin="round"/>
<path opacity="0.9" d="M109.721 82.4413C111.223 82.4413 112.441 81.2232 112.441 79.7206C112.441 78.2181 111.223 77 109.721 77C108.218 77 107 78.2181 107 79.7206C107 81.2232 108.218 82.4413 109.721 82.4413Z" stroke="#F77F00" stroke-linecap="round" stroke-linejoin="round"/>
<path opacity="0.9" d="M128.721 53.4413C130.223 53.4413 131.441 52.2233 131.441 50.7207C131.441 49.2181 130.223 48.0001 128.721 48.0001C127.218 48.0001 126 49.2181 126 50.7207C126 52.2233 127.218 53.4413 128.721 53.4413Z" stroke="#F77F00" stroke-linecap="round" stroke-linejoin="round"/>
<g clip-path="url(#clip1_1868_7146)">
<path d="M43.1707 76.1707C41.1773 78.1643 38.8107 79.7457 36.2061 80.8246C33.6015 81.9036 30.8099 82.4589 27.9907 82.4589C25.1715 82.4589 22.3798 81.9036 19.7752 80.8246C17.1706 79.7457 14.8041 78.1643 12.8107 76.1707C10.8171 74.1773 9.23566 71.8107 8.15672 69.2061C7.07779 66.6015 6.52246 63.8099 6.52246 60.9907C6.52246 58.1715 7.07779 55.3798 8.15672 52.7752C9.23566 50.1706 10.8171 47.8041 12.8107 45.8107C14.8041 43.8171 17.1706 42.2357 19.7752 41.1567C22.3798 40.0778 25.1715 39.5225 27.9907 39.5225C30.8099 39.5225 33.6015 40.0778 36.2061 41.1567C38.8107 42.2357 41.1773 43.8171 43.1707 45.8107C45.1643 47.8041 46.7457 50.1706 47.8246 52.7752C48.9036 55.3798 49.4589 58.1715 49.4589 60.9907C49.4589 63.8099 48.9036 66.6015 47.8246 69.2061C46.7457 71.8107 45.1643 74.1773 43.1707 76.1707Z" fill="#F9A5A1"/>
<path d="M44.2563 44.7287C35.2863 35.7587 20.6981 35.7587 11.7281 44.7287C2.7612 53.6987 2.7612 68.2867 11.7281 77.2567C20.6981 86.2236 35.2863 86.2236 44.2563 77.2567C53.2263 68.2867 53.2263 53.6987 44.2563 44.7287ZM42.0881 46.8966C43.9423 48.7459 45.4134 50.9431 46.4172 53.362C47.4209 55.7808 47.9376 58.3739 47.9376 60.9927C47.9376 63.6115 47.4209 66.2046 46.4172 68.6234C45.4134 71.0422 43.9423 73.2394 42.0881 75.0888C40.2388 76.9425 38.042 78.4132 35.6234 79.4166C33.2049 80.4201 30.6122 80.9365 27.9937 80.9365C25.3753 80.9365 22.7825 80.4201 20.364 79.4166C17.9455 78.4132 15.7486 76.9425 13.8993 75.0888C12.0451 73.2394 10.574 71.0422 9.57029 68.6234C8.56654 66.2046 8.04987 63.6115 8.04987 60.9927C8.04987 58.3739 8.56654 55.7808 9.57029 53.362C10.574 50.9431 12.0451 48.7459 13.8993 46.8966C15.7486 45.0428 17.9455 43.5722 20.364 42.5687C22.7825 41.5652 25.3753 41.0489 27.9937 41.0489C30.6122 41.0489 33.2049 41.5652 35.6234 42.5687C38.042 43.5722 40.2388 45.0428 42.0881 46.8966Z" fill="#F1291F"/>
<path d="M36 55.91L33.09 53L28 58.09L22.91 53L20 55.91L25.09 61L20 66.09L22.91 69L28 63.91L33.09 69L36 66.09L30.91 61L36 55.91Z" fill="#F1291F"/>
</g>
</g>
<defs>
<clipPath id="clip0_1868_7146">
<rect width="135" height="91" fill="white"/>
</clipPath>
<clipPath id="clip1_1868_7146">
<rect width="46" height="46" fill="white" transform="translate(5 38)"/>
</clipPath>
</defs>
</svg>
