<svg width="115" height="55" viewBox="0 0 115 55" fill="none" xmlns="http://www.w3.org/2000/svg">
<path d="M30.3097 51.5774C27.8305 51.9326 25.3291 52.1107 22.8245 52.1106L17.5137 52.1106C12.8688 52.1106 8.41411 50.2672 5.12965 46.986C1.84519 43.7048 -5.61958e-07 39.2545 -7.64793e-07 34.6142L-1.41766e-06 19.6783C-1.51809e-06 17.3807 0.453004 15.1055 1.33315 12.9827C2.2133 10.86 3.50335 8.9312 5.12965 7.3065C6.75595 5.68181 8.68665 4.39303 10.8115 3.51375C12.9364 2.63447 15.2138 2.18191 17.5137 2.18191L22.8377 2.18191C25.3379 2.18239 27.8348 2.36057 30.3097 2.7151L37.6697 3.76173C40.3914 4.14124 43.1384 4.31069 45.8862 4.26858L76.387 3.84071C78.1754 3.81877 79.951 3.53717 81.6582 3.00473C83.4521 2.44566 85.3205 2.16158 87.1996 2.16217L100.747 2.16217C102.526 2.16217 104.287 2.51222 105.931 3.19236C107.575 3.87249 109.068 4.86938 110.326 6.1261C111.584 7.38282 112.582 8.87477 113.263 10.5168C113.943 12.1587 114.294 13.9186 114.294 15.6959L114.294 38.5834C114.294 40.3604 113.943 42.12 113.263 43.7616C112.582 45.4032 111.584 46.8947 110.326 48.1509C109.068 49.4071 107.574 50.4034 105.931 51.0828C104.287 51.7622 102.525 52.1115 100.747 52.1106L87.2128 52.1106C85.3447 52.1079 83.4877 51.8238 81.7044 51.268C79.9957 50.7419 78.2209 50.4604 76.4331 50.432L45.9324 50.0108C43.1842 49.973 40.4372 50.1469 37.7158 50.5308L30.3097 51.5774Z" fill="#FF6F00"/>
<path d="M31.8319 4.09081C29.494 3.76316 27.1357 3.60258 24.775 3.61028L19.7673 3.61028C15.3891 3.60329 11.187 5.33231 8.08367 8.41774C4.98037 11.5032 3.22953 15.6928 3.21557 20.0667L3.21558 34.1928C3.21557 36.3631 3.64389 38.512 4.47601 40.5167C5.30814 42.5213 6.52774 44.3425 8.06506 45.8758C9.60237 47.4092 11.4272 48.6247 13.4352 49.4528C15.4432 50.2809 17.5949 50.7053 19.7673 50.7019L24.775 50.7019C27.1362 50.703 29.4945 50.5359 31.8319 50.2016L38.7636 49.2142C41.3323 48.8524 43.925 48.6873 46.5189 48.7205L75.2999 49.1221C76.992 49.1435 78.6721 49.4096 80.2878 49.912C81.982 50.4371 83.7458 50.7034 85.5195 50.7019L98.2957 50.7019C101.684 50.7019 104.934 49.3571 107.33 46.9635C109.726 44.5699 111.072 41.3234 111.072 37.9383L111.072 16.3541C111.067 12.9724 109.718 9.73102 107.323 7.34166C104.927 4.95229 101.681 3.61027 98.2957 3.61028L85.5195 3.61028C83.7458 3.6088 81.982 3.8751 80.2878 4.40019C78.6724 4.90471 76.9923 5.17299 75.2999 5.19668L46.5189 5.58505C43.9249 5.62142 41.332 5.45636 38.7636 5.09136L31.8319 4.09081Z" fill="#FF8B00"/>
<path d="M10.0219 48.6876C7.93975 50.1094 3.86771 43.9613 5.27118 42.1446C6.67465 40.3278 11.7614 47.5093 10.0219 48.6876Z" fill="#E9E8D8"/>
<path d="M34.0193 50.7677C34.0193 50.7677 35.9894 53.6377 36.9382 54.0985C37.8871 54.5593 38.7568 54.0985 38.6778 53.7826C38.5987 53.4666 37.0173 49.7606 37.0173 49.7606L34.0193 50.7677Z" fill="#FF6600"/>
<path d="M62.4644 46.2916C57.3842 46.2916 53.0091 46.3377 49.8858 46.4825C43.8367 46.7685 37.8196 47.5322 31.8911 48.7667C43.7844 49.3657 53.4373 49.6422 61.2783 49.6882C61.7593 48.5889 62.0031 47.4436 62.4644 46.2916Z" fill="#032445"/>
<path d="M62.1743 49.6883C86.2771 49.9055 92.2468 48.1414 92.2468 48.1414C87.4104 46.9038 74.4563 46.3641 63.301 46.2917C62.9716 47.4239 62.4247 48.5692 62.1743 49.6883Z" fill="#032445"/>
<path d="M62.4644 8.00085C57.3842 8.00085 53.0091 7.96136 49.8858 7.80996C43.8367 7.52403 37.8196 6.76027 31.8911 5.52582C43.7844 4.9268 53.4373 4.65033 61.2783 4.57793C61.7593 5.70354 62.0031 6.84891 62.4644 8.00085Z" fill="#032445"/>
<path d="M62.1743 4.57134C86.2771 4.38703 92.2731 6.15774 92.2731 6.15774C87.4368 7.38868 74.4827 7.92845 63.3274 8.00085C62.9716 6.86865 62.4247 5.72987 62.1743 4.57134Z" fill="#032445"/>
<path d="M111.039 42.0854C111.698 42.4079 111.625 43.9943 110.841 45.6334C110.057 47.2724 108.864 48.3454 108.206 48.0294C107.547 47.7134 107.626 46.1271 108.403 44.4814C109.181 42.8358 110.373 41.7891 111.039 42.0854Z" fill="#FFCC00"/>
<path d="M10.0219 5.58506C7.93975 4.18297 3.86771 10.3377 5.27118 12.1676C6.67465 13.9976 11.7614 6.78967 10.0219 5.58506Z" fill="#E9E8D8"/>
<path d="M34.0193 3.53132C34.0193 3.53132 35.996 0.674489 36.9382 0.200545C37.8805 -0.273399 38.7568 0.200547 38.6778 0.51651C38.5987 0.832473 37.0173 4.53845 37.0173 4.53845L34.0193 3.53132Z" fill="#FF6600"/>
<path d="M111.039 12.2071C111.698 11.8912 111.625 10.3048 110.841 8.65914C110.057 7.01351 108.864 5.94713 108.206 6.26309C107.547 6.57906 107.626 8.17204 108.403 9.81109C109.181 11.4501 110.373 12.5231 111.039 12.2071Z" fill="#FFCC00"/>
<path d="M87.1405 27.1496C87.1405 15.5379 84.8541 10.3377 84.8541 10.3377L102.295 10.3377C102.295 10.3377 107.112 14.623 107.112 27.1496C107.112 39.6564 102.295 43.9614 102.295 43.9614L84.8541 43.9614C84.8541 43.9614 87.1405 38.7546 87.1405 27.1496ZM19.1084 27.1496C19.1084 43.2703 27.9443 47.3514 27.9443 47.3514L45.3065 45.1924C44.1002 39.2506 43.4386 33.2113 43.3298 27.1496C43.4383 21.0856 44.0999 15.0441 45.3065 9.1002L27.9443 6.94771C27.9443 6.94771 19.1084 11.0223 19.1084 27.1496Z" fill="#032445"/>
</svg>
