<svg width="136" height="91" viewBox="0 0 136 91" fill="none" xmlns="http://www.w3.org/2000/svg">
<g clip-path="url(#clip0_1795_7157)">
<path d="M125.5 50C120.5 80 88.5 90.5 70.5 81C53.8318 72.2029 10.1522 66.0489 3.78013 45.2693C2.74618 41.8976 2.01712 38.3207 1.9324 34.795C1.53384 18.2103 26.7007 -4.30059 70.5557 5.30045C73.8153 6.01406 76.7548 7.74366 79.2923 9.91052C105.779 32.5288 129.135 28.1886 125.5 50Z" fill="#FEA559" fill-opacity="0.3"/>
<path d="M95.5705 32.3334L83.3058 20.0143C82.4967 19.2061 81.5363 18.5652 80.4794 18.1282C79.4225 17.6913 78.2899 17.4669 77.1463 17.4678H42.605C40.9876 17.4666 39.4019 17.916 38.0256 18.7656C36.6493 19.6153 35.5369 20.8315 34.8131 22.2779L29.4371 33.0407C28.834 34.2508 28.521 35.5847 28.523 36.9367V52.292C28.523 54.601 29.4402 56.8154 31.0729 58.4481C32.7056 60.0808 34.92 60.9981 37.229 60.9981H106.878C109.186 60.9981 111.401 60.0808 113.034 58.4481C114.666 56.8154 115.584 54.601 115.584 52.292V43.586C115.584 41.277 114.666 39.0625 113.034 37.4298C111.401 35.7971 109.186 34.8799 106.878 34.8799H101.774C100.623 34.8865 99.4818 34.6649 98.417 34.2278C97.3523 33.7907 96.3848 33.1468 95.5705 32.3334Z" fill="#E7EDF4" stroke="#064789" stroke-linecap="round" stroke-linejoin="round"/>
<path opacity="0.1" d="M39.4055 33.9226V17.7402C38.1836 18.0397 37.041 18.6004 36.0566 19.3839C35.0722 20.1673 34.2692 21.1547 33.7031 22.2783L28.5229 32.6494V56.591C29.2811 57.9443 30.387 59.0704 31.7263 59.853C33.0656 60.6355 34.5896 61.046 36.1408 61.042H105.789C108.098 61.042 110.313 60.1248 111.945 58.4921C113.578 56.8594 114.495 54.6449 114.495 52.3359V50.2465H55.7294C51.4 50.2465 47.248 48.5267 44.1867 45.4653C41.1254 42.404 39.4055 38.252 39.4055 33.9226Z" fill="#A2BDD8"/>
<path d="M29.0996 44.228H44.3352M49.7765 44.228H50.8648" stroke="#F77F00" stroke-linecap="round" stroke-linejoin="round"/>
<path d="M91.7617 32.8341H75.895C75.6063 32.8341 75.3295 32.7195 75.1254 32.5154C74.9214 32.3113 74.8067 32.0345 74.8067 31.7459V24.1281C74.8067 23.8394 74.9214 23.5626 75.1254 23.3586C75.3295 23.1545 75.6063 23.0398 75.895 23.0398H84.1439C84.2872 23.039 84.4291 23.0664 84.5617 23.1206C84.6943 23.1747 84.8149 23.2545 84.9166 23.3554L92.5344 30.9732C92.6879 31.1254 92.7926 31.3199 92.8351 31.5318C92.8776 31.7438 92.856 31.9636 92.7732 32.1632C92.6903 32.3628 92.5498 32.5333 92.3697 32.6528C92.1895 32.7722 91.9779 32.8354 91.7617 32.8341ZM45.0864 32.8341H66.0898C66.3784 32.8341 66.6552 32.7195 66.8593 32.5154C67.0634 32.3113 67.178 32.0345 67.178 31.7459V24.1281C67.178 23.8394 67.0634 23.5626 66.8593 23.3586C66.6552 23.1545 66.3784 23.0398 66.0898 23.0398H49.3197C49.1269 23.0401 48.9376 23.0917 48.7712 23.1892C48.6049 23.2868 48.4674 23.4267 48.3729 23.5948L44.1396 31.2126C44.0466 31.3781 43.9985 31.565 44 31.7548C44.0016 31.9446 44.0528 32.1307 44.1485 32.2946C44.2442 32.4585 44.3811 32.5946 44.5456 32.6892C44.7102 32.7838 44.8966 32.8338 45.0864 32.8341Z" fill="#F77F00"/>
<path d="M49.2323 70.9234C54.6416 70.9234 59.0266 66.5383 59.0266 61.129C59.0266 55.7198 54.6416 51.3347 49.2323 51.3347C43.8231 51.3347 39.438 55.7198 39.438 61.129C39.438 66.5383 43.8231 70.9234 49.2323 70.9234Z" fill="#E7EDF4" stroke="#064789" stroke-linecap="round" stroke-linejoin="round"/>
<path d="M92.7626 70.9234C98.1718 70.9234 102.557 66.5383 102.557 61.129C102.557 55.7198 98.1718 51.3347 92.7626 51.3347C87.3533 51.3347 82.9683 55.7198 82.9683 61.129C82.9683 66.5383 87.3533 70.9234 92.7626 70.9234Z" fill="#E7EDF4" stroke="#064789" stroke-linecap="round" stroke-linejoin="round"/>
<path d="M69.3649 44.2284H73.7179M115.366 47.7217H112.906C112.443 47.7246 111.984 47.6362 111.555 47.4617C111.126 47.2871 110.736 47.0298 110.406 46.7044C110.077 46.379 109.815 45.9919 109.635 45.5652C109.455 45.1385 109.361 44.6806 109.358 44.2175C109.361 43.7545 109.455 43.2966 109.635 42.8699C109.815 42.4432 110.077 42.0561 110.406 41.7307C110.736 41.4053 111.126 41.148 111.555 40.9734C111.984 40.7989 112.443 40.7105 112.906 40.7134H114.68M68.5487 70.9234H107.095M28.9797 70.9234H60.9527M23.6581 70.9234H24.5396M22.5698 48.6141H28.0111M25.8346 51.3348H28.0111M86.32 35.0109H70.4532C70.1645 35.0109 69.8877 34.8962 69.6836 34.6921C69.4796 34.4881 69.3649 34.2113 69.3649 33.9226V26.3048C69.3649 26.0162 69.4796 25.7394 69.6836 25.5353C69.8877 25.3312 70.1645 25.2166 70.4532 25.2166H78.7022C78.8454 25.2157 78.9873 25.2432 79.1199 25.2974C79.2525 25.3515 79.3731 25.4313 79.4748 25.5322L87.0926 33.15C87.2461 33.3022 87.3508 33.4967 87.3933 33.7086C87.4358 33.9205 87.4142 34.1403 87.3314 34.34C87.2485 34.5396 87.108 34.71 86.9279 34.8295C86.7477 34.949 86.5361 35.0121 86.32 35.0109ZM39.6446 35.0109H60.648C60.9366 35.0109 61.2134 34.8962 61.4175 34.6921C61.6216 34.4881 61.7362 34.2113 61.7362 33.9226V26.3048C61.7362 26.0162 61.6216 25.7394 61.4175 25.5353C61.2134 25.3312 60.9366 25.2166 60.648 25.2166H43.8779C43.6851 25.2169 43.4958 25.2685 43.3294 25.366C43.1631 25.4635 43.0256 25.6035 42.9311 25.7716L38.6978 33.3894C38.6048 33.5548 38.5567 33.7418 38.5582 33.9316C38.5598 34.1214 38.611 34.3075 38.7067 34.4714C38.8024 34.6353 38.9393 34.7713 39.1038 34.866C39.2684 34.9606 39.4548 35.0106 39.6446 35.0109Z" stroke="#064789" stroke-linecap="round" stroke-linejoin="round"/>
<path opacity="0.7" d="M11.5 27.3056V32.7469M14.2206 30.0263H8.77936M105.103 21.8643V27.3055M107.824 24.5849H102.383M45 83.5V88.9412M47.7206 86.2206H42.2794" stroke="#064789" stroke-linecap="round" stroke-linejoin="round"/>
<path opacity="0.9" d="M55.2206 5.72064C56.7232 5.72064 57.9413 4.50257 57.9413 3C57.9413 1.49743 56.7232 0.279356 55.2206 0.279356C53.7181 0.279356 52.5 1.49743 52.5 3C52.5 4.50257 53.7181 5.72064 55.2206 5.72064Z" stroke="#F77F00" stroke-linecap="round" stroke-linejoin="round"/>
<path opacity="0.9" d="M110.221 82.4413C111.723 82.4413 112.941 81.2232 112.941 79.7206C112.941 78.2181 111.723 77 110.221 77C108.718 77 107.5 78.2181 107.5 79.7206C107.5 81.2232 108.718 82.4413 110.221 82.4413Z" stroke="#F77F00" stroke-linecap="round" stroke-linejoin="round"/>
<path opacity="0.9" d="M129.221 53.4413C130.723 53.4413 131.941 52.2233 131.941 50.7207C131.941 49.2181 130.723 48.0001 129.221 48.0001C127.718 48.0001 126.5 49.2181 126.5 50.7207C126.5 52.2233 127.718 53.4413 129.221 53.4413Z" stroke="#F77F00" stroke-linecap="round" stroke-linejoin="round"/>
<g clip-path="url(#clip1_1795_7157)">
<path d="M43.6707 76.1707C41.6773 78.1643 39.3107 79.7457 36.7061 80.8246C34.1015 81.9036 31.3099 82.4589 28.4907 82.4589C25.6714 82.4589 22.8798 81.9036 20.2752 80.8246C17.6706 79.7457 15.3041 78.1643 13.3107 76.1707C11.3171 74.1773 9.73566 71.8107 8.65672 69.2061C7.57779 66.6015 7.02246 63.8099 7.02246 60.9907C7.02246 58.1714 7.57779 55.3798 8.65672 52.7752C9.73566 50.1706 11.3171 47.8041 13.3107 45.8107C15.3041 43.8171 17.6706 42.2357 20.2752 41.1567C22.8798 40.0778 25.6714 39.5225 28.4907 39.5225C31.3099 39.5225 34.1015 40.0778 36.7061 41.1567C39.3107 42.2357 41.6773 43.8171 43.6707 45.8107C45.6643 47.8041 47.2457 50.1706 48.3246 52.7752C49.4036 55.3798 49.9589 58.1714 49.9589 60.9907C49.9589 63.8099 49.4036 66.6015 48.3246 69.2061C47.2457 71.8107 45.6643 74.1773 43.6707 76.1707Z" fill="#CBF4B6"/>
<path d="M44.7563 44.7287C35.7863 35.7587 21.1981 35.7587 12.2281 44.7287C3.2612 53.6987 3.2612 68.2867 12.2281 77.2566C21.1981 86.2236 35.7863 86.2236 44.7563 77.2566C53.7263 68.2867 53.7263 53.6987 44.7563 44.7287ZM42.5881 46.8966C44.4423 48.7459 45.9134 50.9431 46.9172 53.362C47.9209 55.7808 48.4376 58.3739 48.4376 60.9927C48.4376 63.6115 47.9209 66.2046 46.9172 68.6234C45.9134 71.0422 44.4423 73.2394 42.5881 75.0888C40.7388 76.9425 38.542 78.4132 36.1234 79.4166C33.7049 80.4201 31.1122 80.9365 28.4937 80.9365C25.8753 80.9365 23.2825 80.4201 20.864 79.4166C18.4455 78.4132 16.2486 76.9425 14.3993 75.0888C12.5451 73.2394 11.074 71.0422 10.0703 68.6234C9.06654 66.2046 8.54987 63.6115 8.54987 60.9927C8.54987 58.3739 9.06654 55.7808 10.0703 53.362C11.074 50.9431 12.5451 48.7459 14.3993 46.8966C16.2486 45.0428 18.4455 43.5722 20.864 42.5687C23.2825 41.5652 25.8753 41.0489 28.4937 41.0489C31.1122 41.0489 33.7049 41.5652 36.1234 42.5687C38.542 43.5722 40.7388 45.0428 42.5881 46.8966Z" fill="#34A853"/>
<path fill-rule="evenodd" clip-rule="evenodd" d="M37.7247 54.8516C37.3811 54.8484 37.0463 54.9607 36.7741 55.1706L25.5654 63.5732L20.3735 58.3814C20.2321 58.2349 20.0629 58.1181 19.8758 58.0377C19.6888 57.9574 19.4876 57.9148 19.284 57.9131C19.0804 57.9113 18.8785 57.9501 18.69 58.0272C18.5016 58.1043 18.3304 58.2183 18.1864 58.3623C18.0424 58.5062 17.9286 58.6773 17.8515 58.8658C17.7744 59.0542 17.7356 59.2563 17.7374 59.4599C17.7391 59.6635 17.7814 59.8646 17.8618 60.0517C17.9422 60.2388 18.059 60.4078 18.2054 60.5492L24.3387 66.6826C24.5996 66.9442 24.9461 67.103 25.3146 67.1295C25.6831 67.156 26.0488 67.0483 26.3443 66.8267L38.611 57.6267C38.8715 57.4367 39.0655 57.1695 39.1655 56.863C39.2654 56.5565 39.2662 56.2263 39.1677 55.9193C39.0693 55.6123 38.8765 55.3442 38.6169 55.153C38.3573 54.9618 38.0441 54.8576 37.7217 54.8546L37.7247 54.8516Z" fill="#34A853"/>
</g>
</g>
<defs>
<clipPath id="clip0_1795_7157">
<rect width="135" height="91" fill="white" transform="translate(0.5)"/>
</clipPath>
<clipPath id="clip1_1795_7157">
<rect width="46" height="46" fill="white" transform="translate(5.5 38)"/>
</clipPath>
</defs>
</svg>
