<svg width="28" height="28" viewBox="0 0 28 28" fill="none" xmlns="http://www.w3.org/2000/svg">
<path d="M26.1094 8.84375C26.1094 9.26042 25.9635 9.61458 25.6719 9.90625L14.3594 21.2188L12.2344 23.3438C11.9427 23.6354 11.5885 23.7812 11.1719 23.7812C10.7552 23.7812 10.401 23.6354 10.1094 23.3438L7.98438 21.2188L2.32812 15.5625C2.03646 15.2708 1.89062 14.9167 1.89062 14.5C1.89062 14.0833 2.03646 13.7292 2.32812 13.4375L4.45312 11.3125C4.74479 11.0208 5.09896 10.875 5.51562 10.875C5.93229 10.875 6.28646 11.0208 6.57812 11.3125L11.1719 15.9219L21.4219 5.65625C21.7135 5.36458 22.0677 5.21875 22.4844 5.21875C22.901 5.21875 23.2552 5.36458 23.5469 5.65625L25.6719 7.78125C25.9635 8.07292 26.1094 8.42708 26.1094 8.84375Z" fill="#13BA38"/>
</svg>
