<svg width="37" height="49" viewBox="0 0 37 49" fill="none" xmlns="http://www.w3.org/2000/svg">
<path d="M8.14381 3.77969C7.93247 3.77969 7.72978 3.86361 7.58034 4.01306C7.43089 4.1625 7.34694 4.36522 7.34694 4.57657V13.6929C7.34694 18.9777 11.0986 23.2839 16.0775 24.3995V26.2738C11.0986 27.3894 7.34375 31.6973 7.34375 36.9838V44.4202C7.34375 44.6316 7.42771 44.8344 7.57715 44.9838C7.72659 45.1333 7.92928 45.2171 8.14062 45.2171H28.8881C29.0994 45.2171 29.3021 45.1333 29.4515 44.9838C29.601 44.8344 29.6849 44.6316 29.6849 44.4202V36.9838C29.6849 31.6973 25.9332 27.3894 20.9528 26.2738V24.3995C25.9317 23.2839 29.6849 18.9776 29.6849 13.6911V4.57657C29.6849 4.36522 29.601 4.1625 29.4515 4.01306C29.3021 3.86361 29.0994 3.77969 28.8881 3.77969H8.14381ZM8.94069 5.37335H28.0912V13.6929C28.0912 18.4502 24.6168 22.3389 20.0316 23.0577C19.8441 23.0873 19.6733 23.1828 19.55 23.3272C19.4267 23.4715 19.359 23.6552 19.359 23.845V26.83C19.359 27.0199 19.4267 27.2036 19.55 27.3479C19.6733 27.4922 19.8441 27.5877 20.0316 27.6174C24.6152 28.3377 28.0912 32.2264 28.0912 36.9838V43.6233H8.9375V36.9838C8.9375 32.2264 12.4119 28.3377 16.9971 27.6174C17.1849 27.5881 17.356 27.4927 17.4797 27.3483C17.6033 27.2039 17.6712 27.0201 17.6712 26.83V23.845C17.6712 23.655 17.6033 23.4711 17.4797 23.3268C17.356 23.1824 17.1849 23.087 16.9971 23.0577C12.4119 22.3389 8.94069 18.4501 8.94069 13.6911V5.37335Z" fill="#F4A261"/>
<path d="M8.14381 3.77969C7.93247 3.77969 7.72978 3.86361 7.58034 4.01306C7.43089 4.1625 7.34694 4.36522 7.34694 4.57657V13.6929C7.34694 18.9777 11.0986 23.2839 16.0775 24.3995V26.2738C11.0986 27.3894 7.34375 31.6973 7.34375 36.9838V44.4202C7.34375 44.6316 7.42771 44.8344 7.57715 44.9838C7.72659 45.1333 7.92928 45.2171 8.14062 45.2171H28.8881C29.0994 45.2171 29.3021 45.1333 29.4515 44.9838C29.601 44.8344 29.6849 44.6316 29.6849 44.4202V36.9838C29.6849 31.6973 25.9333 27.3894 20.9528 26.2738V24.3995C25.9317 23.2839 29.6849 18.9776 29.6849 13.6911V4.57657C29.6849 4.36522 29.601 4.1625 29.4515 4.01306C29.3021 3.86361 29.0994 3.77969 28.8881 3.77969H8.14381ZM8.94069 5.37335H28.0912V13.6929C28.0912 18.4502 24.6168 22.3389 20.0316 23.0577C19.8441 23.0873 19.6733 23.1828 19.55 23.3272C19.4267 23.4715 19.359 23.6552 19.359 23.845V26.83C19.359 27.0199 19.4267 27.2036 19.55 27.3479C19.6733 27.4922 19.8441 27.5877 20.0316 27.6174C24.6152 28.3377 28.0912 32.2264 28.0912 36.9838V43.6233H8.9375V36.9838C8.9375 32.2264 12.4119 28.3377 16.9971 27.6174C17.1849 27.5881 17.356 27.4927 17.4797 27.3483C17.6033 27.2039 17.6712 27.0201 17.6712 26.83V23.845C17.6712 23.655 17.6033 23.4711 17.4797 23.3268C17.356 23.1824 17.1849 23.087 16.9971 23.0577C12.4119 22.3389 8.94069 18.4501 8.94069 13.6911V5.37335Z" fill="#F4A261"/>
<path d="M10.5312 6.96885V13.8234H10.5408C10.5769 15.6334 11.2282 17.3772 12.3875 18.7677C13.5468 20.1582 15.145 21.1125 16.919 21.4735C18.5 21.7922 18.5 22.9046 18.5 22.9046C18.5 22.9046 18.5 21.7955 20.0985 21.4704C21.8688 21.106 23.4626 20.1506 24.6184 18.7611C25.7742 17.3716 26.4233 15.6304 26.4592 13.8234H26.4688V6.96885H10.5312ZM18.5 38.047C18.5 38.047 18.5 38.6747 16.8903 39.0094C14.9988 39.4097 13.3172 40.4837 12.1585 42.0313H24.8415C23.6822 40.4825 21.9994 39.4078 20.1065 39.0079C18.5 38.6748 18.5 38.047 18.5 38.047Z" fill="#F77F00"/>
<path d="M1.76562 43.6233C1.55428 43.6233 1.35159 43.7074 1.20215 43.8568C1.05271 44.0062 0.96875 44.2089 0.96875 44.4202V47.6077C0.96875 47.8191 1.05271 48.0219 1.20215 48.1713C1.35159 48.3208 1.55428 48.4046 1.76562 48.4046H35.2344C35.4457 48.4046 35.6484 48.3208 35.7979 48.1713C35.9473 48.0219 36.0312 47.8191 36.0312 47.6077V44.4202C36.0312 44.2089 35.9473 44.0062 35.7979 43.8568C35.6484 43.7074 35.4457 43.6233 35.2344 43.6233H1.76562ZM2.5625 45.2171H34.4375V46.8108H2.5625V45.2171ZM1.76562 0.592194C1.55428 0.592194 1.35159 0.676113 1.20215 0.825556C1.05271 0.974999 0.96875 1.17772 0.96875 1.38907V4.57657C0.96875 4.78791 1.05271 4.99064 1.20215 5.14008C1.35159 5.28952 1.55428 5.37335 1.76562 5.37335H35.2344C35.4457 5.37335 35.6484 5.28952 35.7979 5.14008C35.9473 4.99064 36.0312 4.78791 36.0312 4.57657V1.38907C36.0312 1.17772 35.9473 0.974999 35.7979 0.825556C35.6484 0.676113 35.4457 0.592194 35.2344 0.592194H1.76562ZM2.5625 2.18594H34.4375V3.77969H2.5625V2.18594Z" fill="#F4A261"/>
<path fill-rule="evenodd" clip-rule="evenodd" d="M2.5625 5.37334V43.6233H4.15625V5.37334H2.5625ZM32.8438 5.37334V43.6233H34.4375V5.37334H32.8438Z" fill="#F4A261"/>
</svg>
