<svg width="17" height="16" viewBox="0 0 17 16" fill="none" xmlns="http://www.w3.org/2000/svg">
<g clip-path="url(#clip0_616_5666)">
<path d="M16.2167 3.77765C16.514 3.77765 16.7551 3.55077 16.7551 3.2709C16.7551 2.99102 16.514 2.76414 16.2167 2.76414C15.9193 2.76414 15.6782 2.99102 15.6782 3.2709C15.6782 3.55077 15.9193 3.77765 16.2167 3.77765Z" fill="#F77F00"/>
<path d="M1.14243 10.5335C1.4398 10.5335 1.68087 10.3066 1.68087 10.0268C1.68087 9.74688 1.4398 9.52 1.14243 9.52C0.845068 9.52 0.604004 9.74688 0.604004 10.0268C0.604004 10.3066 0.845068 10.5335 1.14243 10.5335Z" fill="#F77F00"/>
<path d="M0.603876 4.11531C0.802013 4.11531 0.962634 3.96414 0.962634 3.77766C0.962634 3.59118 0.802013 3.44 0.603876 3.44C0.405739 3.44 0.245117 3.59118 0.245117 3.77766C0.245117 3.96414 0.405739 4.11531 0.603876 4.11531Z" fill="#F77F00"/>
<path d="M13.1654 7.8309C13.3635 7.8309 13.5242 7.67972 13.5242 7.49324C13.5242 7.30676 13.3635 7.15559 13.1654 7.15559C12.9673 7.15559 12.8066 7.30676 12.8066 7.49324C12.8066 7.67972 12.9673 7.8309 13.1654 7.8309Z" fill="#F77F00"/>
<path d="M15.3192 13.2356C15.5173 13.2356 15.678 13.0844 15.678 12.8979C15.678 12.7114 15.5173 12.5603 15.3192 12.5603C15.1211 12.5603 14.9604 12.7114 14.9604 12.8979C14.9604 13.0844 15.1211 13.2356 15.3192 13.2356Z" fill="#F77F00"/>
<path d="M3.11657 7.8309C3.31471 7.8309 3.47533 7.67972 3.47533 7.49324C3.47533 7.30676 3.31471 7.15559 3.11657 7.15559C2.91843 7.15559 2.75781 7.30676 2.75781 7.49324C2.75781 7.67972 2.91843 7.8309 3.11657 7.8309Z" fill="#F77F00"/>
<path d="M6.61901 6.7371C7.19877 6.93379 7.70994 7.22262 8.14139 7.59696C8.57313 7.22262 9.08431 6.93379 9.66377 6.7371C11.4368 6.13545 12.6276 4.53876 12.6276 2.76414V1.91972H3.65486V2.76414C3.65486 4.53876 4.84603 6.13517 6.61901 6.7371ZM3.65486 14.0803H7.24391V10.8712C7.24391 10.8264 7.26281 10.7835 7.29645 10.7518C7.33009 10.7201 7.37572 10.7023 7.42329 10.7023C7.47086 10.7023 7.51649 10.7201 7.55013 10.7518C7.58377 10.7835 7.60267 10.8264 7.60267 10.8712V14.0803H8.67924V12.2223C8.67924 12.1776 8.69814 12.1346 8.73178 12.103C8.76542 12.0713 8.81104 12.0535 8.85862 12.0535C8.90619 12.0535 8.95182 12.0713 8.98546 12.103C9.0191 12.1346 9.038 12.1776 9.038 12.2223V14.0803H12.627V12.8979C12.627 11.1233 11.4359 9.5269 9.66319 8.92496C9.08343 8.72828 8.57225 8.43945 8.14081 8.0651C7.70906 8.43945 7.19789 8.72828 6.61843 8.92496C4.84544 9.52662 3.65457 11.1233 3.65457 12.8979L3.65486 14.0803ZM13.3454 14.4179H2.93705C2.54136 14.4179 2.21924 14.7211 2.21924 15.0935C2.21924 15.4659 2.54136 15.7691 2.93705 15.7691H13.3452C13.7408 15.7691 14.063 15.4659 14.063 15.0935C14.063 14.7211 13.7411 14.4179 13.3454 14.4179ZM13.3454 0.230896H2.93705C2.54136 0.230896 2.21924 0.534068 2.21924 0.906482C2.21924 1.2789 2.54136 1.58207 2.93705 1.58207H13.3454C13.7411 1.58207 14.0633 1.2789 14.0633 0.906482C14.0633 0.534068 13.7411 0.230896 13.3454 0.230896Z" fill="#F77F00"/>
</g>
<defs>
<clipPath id="clip0_616_5666">
<rect width="17" height="16" fill="white"/>
</clipPath>
</defs>
</svg>
