<svg width="26" height="26" viewBox="0 0 26 26" fill="none" xmlns="http://www.w3.org/2000/svg">
<path d="M22.75 10.8333C22.75 18.4166 13 24.9166 13 24.9166C13 24.9166 3.25 18.4166 3.25 10.8333C3.25 8.24745 4.27723 5.7675 6.10571 3.93902C7.93419 2.11054 10.4141 1.08331 13 1.08331C15.5859 1.08331 18.0658 2.11054 19.8943 3.93902C21.7228 5.7675 22.75 8.24745 22.75 10.8333Z" fill="white" stroke="white" stroke-width="2" stroke-linecap="round" stroke-linejoin="round"/>
<path d="M13 14.0833C14.7949 14.0833 16.25 12.6282 16.25 10.8333C16.25 9.03839 14.7949 7.58331 13 7.58331C11.2051 7.58331 9.75 9.03839 9.75 10.8333C9.75 12.6282 11.2051 14.0833 13 14.0833Z" fill="#064789" stroke="#064789" stroke-linecap="round" stroke-linejoin="round"/>
</svg>
