<svg width="28" height="28" viewBox="0 0 28 28" fill="none" xmlns="http://www.w3.org/2000/svg">
<g opacity="0.8">
<path d="M24.5 11.6667C24.5 19.8334 14 26.8334 14 26.8334C14 26.8334 3.5 19.8334 3.5 11.6667C3.5 8.88197 4.60625 6.21126 6.57538 4.24213C8.54451 2.27299 11.2152 1.16675 14 1.16675C16.7848 1.16675 19.4555 2.27299 21.4246 4.24213C23.3938 6.21126 24.5 8.88197 24.5 11.6667Z" stroke="#386CA1" stroke-width="2" stroke-linecap="round" stroke-linejoin="round"/>
<path d="M14 15.1667C15.933 15.1667 17.5 13.5997 17.5 11.6667C17.5 9.73375 15.933 8.16675 14 8.16675C12.067 8.16675 10.5 9.73375 10.5 11.6667C10.5 13.5997 12.067 15.1667 14 15.1667Z" stroke="#386CA1" stroke-width="2" stroke-linecap="round" stroke-linejoin="round"/>
</g>
</svg>
