<svg width="32" height="24" viewBox="0 0 32 24" fill="none" xmlns="http://www.w3.org/2000/svg">
<g clip-path="url(#clip0_719_1137)">
<path d="M30.9333 11.2533H27.7973C27.5993 11.2533 27.4093 11.1747 27.2693 11.0346C27.1293 10.8946 27.0506 10.7047 27.0506 10.5067C27.0506 10.3086 27.1293 10.1187 27.2693 9.97869C27.4093 9.83867 27.5993 9.76 27.7973 9.76H30.9333C31.1313 9.76 31.3212 9.83867 31.4613 9.97869C31.6013 10.1187 31.68 10.3086 31.68 10.5067C31.68 10.7047 31.6013 10.8946 31.4613 11.0346C31.3212 11.1747 31.1313 11.2533 30.9333 11.2533ZM26.0859 7.14069C25.9384 7.14066 25.7941 7.09691 25.6714 7.01495C25.5487 6.933 25.453 6.81652 25.3965 6.68023C25.3399 6.54394 25.325 6.39394 25.3536 6.24918C25.3822 6.10442 25.4531 5.97139 25.5573 5.86688L27.7809 3.63733C27.9217 3.50132 28.1103 3.42606 28.3061 3.42776C28.5018 3.42946 28.6891 3.50799 28.8276 3.64643C28.966 3.78487 29.0445 3.97214 29.0462 4.16791C29.0479 4.36369 28.9727 4.5523 28.8367 4.69312L26.6131 6.92267C26.4731 7.06225 26.2836 7.14065 26.0859 7.14069ZM28.3095 17.5881C28.2114 17.5882 28.1142 17.5691 28.0235 17.5317C27.9328 17.4942 27.8503 17.4393 27.7809 17.37L25.5573 15.1465C25.486 15.0776 25.4291 14.9952 25.39 14.9041C25.3508 14.813 25.3302 14.715 25.3294 14.6159C25.3285 14.5167 25.3474 14.4184 25.3849 14.3266C25.4225 14.2349 25.4779 14.1515 25.548 14.0814C25.6181 14.0113 25.7015 13.9559 25.7933 13.9183C25.885 13.8808 25.9834 13.8619 26.0825 13.8627C26.1816 13.8636 26.2796 13.8842 26.3707 13.9233C26.4618 13.9625 26.5442 14.0194 26.6131 14.0907L28.8426 16.3142C28.9467 16.4187 29.0176 16.5516 29.0462 16.6962C29.0749 16.8408 29.0601 16.9907 29.0038 17.1269C28.9474 17.2631 28.8519 17.3796 28.7294 17.4617C28.607 17.5438 28.4629 17.5877 28.3155 17.5881H28.3095Z" fill="#F77F00"/>
<path d="M25.7066 10.5067C25.7064 9.64628 25.4091 8.81236 24.8649 8.14596C24.3206 7.47955 23.5629 7.02158 22.7199 6.8495V1.54667C22.7215 1.4104 22.6858 1.27628 22.6165 1.15888C22.5473 1.04147 22.4473 0.945244 22.3273 0.88063C22.2073 0.816015 22.0719 0.785478 21.9358 0.792325C21.7997 0.799172 21.668 0.843144 21.5551 0.919474C17.5231 3.60747 10.8479 5.08587 9.96687 5.28001H5.54661C4.24913 5.27495 2.99616 5.75267 2.03139 6.62024C1.06662 7.48781 0.459029 8.68321 0.32679 9.97394C0.194551 11.2647 0.54712 12.5584 1.31592 13.6036C2.08473 14.6488 3.2148 15.3707 4.48634 15.6288H4.50127L7.36847 21.632C7.50466 21.9316 7.7008 22.2002 7.9448 22.4211C8.1888 22.642 8.47548 22.8105 8.78714 22.9163C9.04692 23.0043 9.31925 23.0497 9.59354 23.0507C9.97589 23.0467 10.3529 22.9601 10.6986 22.7968C11.2507 22.5152 11.6778 22.0375 11.896 21.4574C12.1143 20.8772 12.108 20.2365 11.8783 19.6608L10.2954 15.808C14.2517 16.6323 18.0521 18.0789 21.5551 20.0939C21.6817 20.1695 21.8259 20.2107 21.9733 20.2133C22.0981 20.212 22.2209 20.1813 22.3317 20.1237C22.4486 20.0582 22.5461 19.9629 22.6143 19.8475C22.6824 19.7321 22.7189 19.6007 22.7199 19.4667V14.1638C23.5629 13.9918 24.3206 13.5338 24.8649 12.8674C25.4091 12.201 25.7064 11.3671 25.7066 10.5067ZM1.81327 10.5067C1.81327 9.51653 2.20661 8.56695 2.90674 7.86681C3.60688 7.16667 4.55647 6.77334 5.54661 6.77334H9.27994V14.24H5.54661C4.55647 14.24 3.60688 13.8467 2.90674 13.1465C2.20661 12.4464 1.81327 11.4968 1.81327 10.5067ZM10.4895 20.2283C10.5812 20.4531 10.5845 20.7043 10.4986 20.9315C10.4127 21.1586 10.2441 21.3448 10.0266 21.4528C9.91197 21.5114 9.78646 21.5456 9.65796 21.5533C9.52946 21.561 9.40076 21.542 9.27994 21.4976C9.15423 21.4591 9.03839 21.3938 8.94041 21.3061C8.84243 21.2184 8.76466 21.1105 8.71247 20.9899L6.20367 15.7333H8.63781L10.4895 20.2283ZM21.2266 18.1376C17.9204 16.438 14.4062 15.1779 10.7733 14.3893V6.62401C14.4062 5.8354 17.9204 4.5753 21.2266 2.87574V18.1376ZM22.7199 12.6123V8.40406C23.1564 8.55612 23.5347 8.84023 23.8024 9.21699C24.0701 9.59375 24.214 10.0445 24.214 10.5067C24.214 10.9689 24.0701 11.4196 23.8024 11.7964C23.5347 12.1731 23.1564 12.4572 22.7199 12.6093V12.6123Z" fill="#064789"/>
<path d="M9.28005 8.29651V9.78984H5.54672C5.34869 9.78984 5.15877 9.71117 5.01874 9.57115C4.87872 9.43112 4.80005 9.2412 4.80005 9.04318C4.80005 8.84515 4.87872 8.65523 5.01874 8.5152C5.15877 8.37517 5.34869 8.29651 5.54672 8.29651H9.28005ZM9.28005 11.2533V12.7466H7.12965C6.93162 12.7466 6.7417 12.668 6.60168 12.5279C6.46165 12.3879 6.38298 12.198 6.38298 12C6.38298 11.8019 6.46165 11.612 6.60168 11.472C6.7417 11.332 6.93162 11.2533 7.12965 11.2533H9.28005Z" fill="#F77F00"/>
</g>
<defs>
<clipPath id="clip0_719_1137">
<rect width="32" height="24" fill="white"/>
</clipPath>
</defs>
</svg>
