<svg width="38" height="31" viewBox="0 0 38 31" fill="none" xmlns="http://www.w3.org/2000/svg">
<g clip-path="url(#clip0_1683_7236)">
<path d="M30.3333 13.6667C33.8311 13.6667 36.6667 10.8311 36.6667 7.33333C36.6667 3.83553 33.8311 1 30.3333 1C26.8355 1 24 3.83553 24 7.33333C24 10.8311 26.8355 13.6667 30.3333 13.6667Z" fill="#F77F00"/>
<path d="M30.7619 10.8572C30.522 10.8572 30.2919 10.7619 30.1222 10.5922C29.9525 10.4226 29.8572 10.1924 29.8572 9.95247V4.5239C29.8572 4.28394 29.9525 4.05382 30.1222 3.88414C30.2919 3.71446 30.522 3.61914 30.7619 3.61914C31.0019 3.61914 31.232 3.71446 31.4017 3.88414C31.5714 4.05382 31.6667 4.28394 31.6667 4.5239V9.95247C31.6667 10.1924 31.5714 10.4226 31.4017 10.5922C31.232 10.7619 31.0019 10.8572 30.7619 10.8572Z" fill="#064789"/>
<path d="M33.4762 8.14278H28.0476C27.8076 8.14278 27.5775 8.04745 27.4078 7.87778C27.2381 7.7081 27.1428 7.47797 27.1428 7.23801C27.1428 6.99806 27.2381 6.76793 27.4078 6.59825C27.5775 6.42857 27.8076 6.33325 28.0476 6.33325H33.4762C33.7161 6.33325 33.9462 6.42857 34.1159 6.59825C34.2856 6.76793 34.3809 6.99806 34.3809 7.23801C34.3809 7.47797 34.2856 7.7081 34.1159 7.87778C33.9462 8.04745 33.7161 8.14278 33.4762 8.14278Z" fill="#064789"/>
<path d="M38 7.2381C38 3.24719 34.7528 0 30.7619 0C27.3971 0 24.5688 2.31167 23.7618 5.42857H4.52381C2.02938 5.42857 0 7.45795 0 9.95238V26.2381C0 28.7325 2.02938 30.7619 4.52381 30.7619H29.8571C32.3516 30.7619 34.381 28.7325 34.381 26.2381V13.4972C36.5406 12.2432 38 9.90986 38 7.2381ZM32.5714 23.5238H25.2383C23.7943 23.5238 22.619 22.306 22.619 20.8095C22.619 19.313 23.7943 18.0952 25.2383 18.0952H32.5714V23.5238ZM32.5714 16.2857H25.2383C22.7955 16.2857 20.8095 18.3151 20.8095 20.8095C20.8095 23.304 22.7955 25.3333 25.2383 25.3333H32.5714V26.2381C32.5714 27.7346 31.3536 28.9524 29.8571 28.9524H4.52381C3.02733 28.9524 1.80952 27.7346 1.80952 26.2381V9.95238C1.80952 8.4559 3.02733 7.2381 4.52381 7.2381H23.5238C23.5238 11.229 26.771 14.4762 30.7619 14.4762C31.388 14.4762 31.9915 14.3884 32.5714 14.2382V16.2857ZM30.7619 12.6667C27.768 12.6667 25.3333 10.232 25.3333 7.2381C25.3333 4.24424 27.768 1.80952 30.7619 1.80952C33.7558 1.80952 36.1905 4.24424 36.1905 7.2381C36.1905 10.232 33.7558 12.6667 30.7619 12.6667Z" fill="#E7EDF4"/>
<path d="M25.3097 21.7143C25.7964 21.7143 26.1909 21.3092 26.1909 20.8095C26.1909 20.3099 25.7964 19.9048 25.3097 19.9048C24.823 19.9048 24.4285 20.3099 24.4285 20.8095C24.4285 21.3092 24.823 21.7143 25.3097 21.7143Z" fill="#E7EDF4"/>
</g>
<defs>
<clipPath id="clip0_1683_7236">
<rect width="38" height="30.7619" fill="white"/>
</clipPath>
</defs>
</svg>
