<svg width="38" height="31" viewBox="0 0 38 31" fill="none" xmlns="http://www.w3.org/2000/svg">
<g clip-path="url(#clip0_1683_7327)">
<path d="M30.762 13.5715C34.2598 13.5715 37.0954 10.7359 37.0954 7.23812C37.0954 3.74032 34.2598 0.904785 30.762 0.904785C27.2642 0.904785 24.4287 3.74032 24.4287 7.23812C24.4287 10.7359 27.2642 13.5715 30.762 13.5715Z" fill="#064789"/>
<path d="M38 7.2381C38 3.24719 34.7528 0 30.7619 0C27.3971 0 24.5688 2.31167 23.7618 5.42857H4.52381C2.02938 5.42857 0 7.45795 0 9.95238V26.2381C0 28.7325 2.02938 30.7619 4.52381 30.7619H29.8571C32.3516 30.7619 34.381 28.7325 34.381 26.2381V13.4972C36.5406 12.2432 38 9.90986 38 7.2381ZM32.5714 23.5238H25.2383C23.7943 23.5238 22.619 22.306 22.619 20.8095C22.619 19.313 23.7943 18.0952 25.2383 18.0952H32.5714V23.5238ZM32.5714 16.2857H25.2383C22.7955 16.2857 20.8095 18.3151 20.8095 20.8095C20.8095 23.304 22.7955 25.3333 25.2383 25.3333H32.5714V26.2381C32.5714 27.7346 31.3536 28.9524 29.8571 28.9524H4.52381C3.02733 28.9524 1.80952 27.7346 1.80952 26.2381V9.95238C1.80952 8.4559 3.02733 7.2381 4.52381 7.2381H23.5238C23.5238 11.229 26.771 14.4762 30.7619 14.4762C31.388 14.4762 31.9915 14.3884 32.5714 14.2382V16.2857ZM30.7619 12.6667C27.768 12.6667 25.3333 10.232 25.3333 7.2381C25.3333 4.24424 27.768 1.80952 30.7619 1.80952C33.7558 1.80952 36.1905 4.24424 36.1905 7.2381C36.1905 10.232 33.7558 12.6667 30.7619 12.6667Z" fill="#032445"/>
<path d="M31.4025 3.88503C31.3184 3.80074 31.2185 3.73387 31.1085 3.68825C30.9985 3.64262 30.8806 3.61914 30.7615 3.61914C30.6424 3.61914 30.5245 3.64262 30.4145 3.68825C30.3045 3.73387 30.2046 3.80074 30.1205 3.88503L28.3118 5.69365C28.2278 5.77765 28.1612 5.87737 28.1157 5.98713C28.0703 6.09688 28.0469 6.21451 28.0469 6.33331C28.0469 6.45211 28.0703 6.56974 28.1157 6.6795C28.1612 6.78925 28.2278 6.88898 28.3118 6.97298C28.3958 7.05698 28.4956 7.12362 28.6053 7.16908C28.7151 7.21454 28.8327 7.23794 28.9515 7.23794C29.0703 7.23794 29.1879 7.21454 29.2977 7.16908C29.4074 7.12362 29.5072 7.05698 29.5912 6.97298L29.8572 6.70788V9.86641C29.8572 10.1064 29.9525 10.3365 30.1222 10.5062C30.2918 10.6758 30.522 10.7712 30.7619 10.7712C31.0019 10.7712 31.232 10.6758 31.4017 10.5062C31.5714 10.3365 31.6667 10.1064 31.6667 9.86641V6.70788L31.9318 6.97298C32.0156 7.05729 32.1153 7.1242 32.2251 7.16985C32.3348 7.21551 32.4526 7.23901 32.5715 7.23901C32.6903 7.23901 32.8081 7.21551 32.9178 7.16985C33.0276 7.1242 33.1273 7.05729 33.2111 6.97298C33.2952 6.88903 33.3619 6.78932 33.4075 6.67956C33.453 6.5698 33.4764 6.45214 33.4764 6.33331C33.4764 6.21449 33.453 6.09683 33.4075 5.98707C33.3619 5.8773 33.2952 5.7776 33.2111 5.69365L31.4025 3.88503Z" fill="#F77F00"/>
<path d="M25.3097 21.7143C25.7964 21.7143 26.1909 21.3092 26.1909 20.8095C26.1909 20.3099 25.7964 19.9048 25.3097 19.9048C24.823 19.9048 24.4285 20.3099 24.4285 20.8095C24.4285 21.3092 24.823 21.7143 25.3097 21.7143Z" fill="#032445"/>
</g>
<defs>
<clipPath id="clip0_1683_7327">
<rect width="38" height="30.7619" fill="white"/>
</clipPath>
</defs>
</svg>
